<svg width="24" height="16" viewBox="0 0 24 16" fill="none" xmlns="http://www.w3.org/2000/svg">
<path d="M23.2482 15.7965H1.36923C1.15347 15.7965 0.978516 15.6181 0.978516 15.3982V1.0623C0.978516 0.842386 1.15347 0.664062 1.36923 0.664062H23.2482C23.464 0.664062 23.6389 0.842386 23.6389 1.0623V15.3982C23.6389 15.6181 23.4639 15.7965 23.2482 15.7965Z" fill="#41479B"/>
<path d="M23.639 1.0623C23.639 0.842386 23.464 0.664062 23.2482 0.664062H21.5002L14.2622 5.49756V0.664062H10.3552V5.49756L3.11718 0.664062H1.36923C1.15347 0.664062 0.978516 0.842386 0.978516 1.0623V2.09223L7.18841 6.23913H0.978516V10.2213H7.18841L0.978516 14.3683V15.3982C0.978516 15.6181 1.15347 15.7965 1.36923 15.7965H3.11723L10.3553 10.963V15.7965H14.2623V10.963L21.5003 15.7965H23.2483C23.4641 15.7965 23.639 15.6181 23.639 15.3982V14.3683L17.4292 10.2214H23.639V6.23918H17.4291L23.639 2.09223V1.0623Z" fill="#F5F5F5"/>
<path d="M23.6389 7.03561H13.4808V0.664062H11.1366V7.03561H0.978516V9.42491H11.1366V15.7965H13.4808V9.42491H23.6389V7.03561Z" fill="#FF4B55"/>
<path d="M8.89814 10.2217L0.989258 15.4544C1.01692 15.6467 1.17249 15.7968 1.36886 15.7968H1.907L10.3334 10.2217H8.89814V10.2217Z" fill="#FF4B55"/>
<path d="M16.3092 10.2217H14.874L23.2881 15.7886C23.4842 15.7673 23.639 15.6041 23.639 15.3986V15.0711L16.3092 10.2217Z" fill="#FF4B55"/>
<path d="M0.978516 1.50213L8.13861 6.23938H9.57383L1.20614 0.703125C1.07248 0.766415 0.978516 0.902424 0.978516 1.06252V1.50213Z" fill="#FF4B55"/>
<path d="M15.6969 6.23918L23.6249 0.99378C23.5919 0.807832 23.4397 0.664062 23.2477 0.664062H22.688L14.2617 6.23918H15.6969Z" fill="#FF4B55"/>
</svg>
