<svg width="24" height="16" viewBox="0 0 24 16" fill="none" xmlns="http://www.w3.org/2000/svg">
<path d="M23.2482 15.5875H1.36923C1.15347 15.5875 0.978516 15.4091 0.978516 15.1892V0.853317C0.978516 0.633401 1.15347 0.455078 1.36923 0.455078H23.2482C23.464 0.455078 23.6389 0.633401 23.6389 0.853317V15.1892C23.6389 15.4091 23.4639 15.5875 23.2482 15.5875Z" fill="#41479B"/>
<path d="M23.639 0.853317C23.639 0.633401 23.464 0.455078 23.2482 0.455078H21.5002L14.2622 5.28857V0.455078H10.3552V5.28857L3.11718 0.455078H1.36923C1.15347 0.455078 0.978516 0.633401 0.978516 0.853317V1.88324L7.18841 6.03015H0.978516V10.0124H7.18841L0.978516 14.1593V15.1892C0.978516 15.4091 1.15347 15.5875 1.36923 15.5875H3.11723L10.3553 10.754V15.5875H14.2623V10.754L21.5003 15.5875H23.2483C23.4641 15.5875 23.639 15.4091 23.639 15.1892V14.1593L17.4292 10.0124H23.639V6.03019H17.4291L23.639 1.88324V0.853317Z" fill="#F5F5F5"/>
<path d="M23.6389 6.82638H13.4808V0.454834H11.1366V6.82638H0.978516V9.21568H11.1366V15.5872H13.4808V9.21568H23.6389V6.82638Z" fill="#FF4B55"/>
<path d="M8.89814 10.0122L0.989258 15.2449C1.01692 15.4372 1.17249 15.5873 1.36886 15.5873H1.907L10.3334 10.0123H8.89814V10.0122Z" fill="#FF4B55"/>
<path d="M16.3092 10.0122H14.874L23.2881 15.5791C23.4842 15.5578 23.639 15.3946 23.639 15.1891V14.8617L16.3092 10.0122Z" fill="#FF4B55"/>
<path d="M0.978516 1.29265L8.13861 6.02991H9.57383L1.20614 0.493652C1.07248 0.556943 0.978516 0.692951 0.978516 0.853049V1.29265Z" fill="#FF4B55"/>
<path d="M15.6969 6.02995L23.6249 0.784552C23.5919 0.598603 23.4397 0.454834 23.2477 0.454834H22.688L14.2617 6.02995H15.6969Z" fill="#FF4B55"/>
</svg>
