<svg width="24" height="16" viewBox="0 0 24 16" fill="none" xmlns="http://www.w3.org/2000/svg">
<path d="M23.2482 15.627H1.36923C1.15347 15.627 0.978516 15.4487 0.978516 15.2288V0.892868C0.978516 0.672952 1.15347 0.494629 1.36923 0.494629H23.2482C23.464 0.494629 23.6389 0.672952 23.6389 0.892868V15.2288C23.6389 15.4487 23.4639 15.627 23.2482 15.627Z" fill="#41479B"/>
<path d="M23.639 0.892868C23.639 0.672952 23.464 0.494629 23.2482 0.494629H21.5002L14.2622 5.32812V0.494629H10.3552V5.32812L3.11718 0.494629H1.36923C1.15347 0.494629 0.978516 0.672952 0.978516 0.892868V1.92279L7.18841 6.0697H0.978516V10.0519H7.18841L0.978516 14.1989V15.2288C0.978516 15.4487 1.15347 15.627 1.36923 15.627H3.11723L10.3553 10.7935V15.627H14.2623V10.7935L21.5003 15.627H23.2483C23.4641 15.627 23.639 15.4487 23.639 15.2288V14.1989L17.4292 10.0519H23.639V6.06974H17.4291L23.639 1.92279V0.892868Z" fill="#F5F5F5"/>
<path d="M23.6389 6.86569H13.4808V0.494141H11.1366V6.86569H0.978516V9.25498H11.1366V15.6265H13.4808V9.25498H23.6389V6.86569Z" fill="#FF4B55"/>
<path d="M8.89814 10.0513L0.989258 15.284C1.01692 15.4763 1.17249 15.6264 1.36886 15.6264H1.907L10.3334 10.0513H8.89814V10.0513Z" fill="#FF4B55"/>
<path d="M16.3092 10.0513H14.874L23.2881 15.6182C23.4842 15.5969 23.639 15.4337 23.639 15.2282V14.9007L16.3092 10.0513Z" fill="#FF4B55"/>
<path d="M0.978516 1.33172L8.13861 6.06897H9.57383L1.20614 0.532715C1.07248 0.596005 0.978516 0.732014 0.978516 0.892112V1.33172Z" fill="#FF4B55"/>
<path d="M15.6969 6.06926L23.6249 0.823859C23.5919 0.63791 23.4397 0.494141 23.2477 0.494141H22.688L14.2617 6.06926H15.6969Z" fill="#FF4B55"/>
</svg>
