<svg width="24" height="16" viewBox="0 0 24 16" fill="none" xmlns="http://www.w3.org/2000/svg">
<path d="M23.2487 15.6695H1.36972C1.15396 15.6695 0.979004 15.4912 0.979004 15.2713V0.935348C0.979004 0.715433 1.15396 0.537109 1.36972 0.537109H23.2487C23.4645 0.537109 23.6394 0.715433 23.6394 0.935348V15.2713C23.6394 15.4912 23.4644 15.6695 23.2487 15.6695Z" fill="#41479B"/>
<path d="M23.6394 0.935348C23.6394 0.715433 23.4645 0.537109 23.2487 0.537109H21.5007L14.2627 5.3706V0.537109H10.3557V5.3706L3.11767 0.537109H1.36972C1.15396 0.537109 0.979004 0.715433 0.979004 0.935348V1.96527L7.18889 6.11218H0.979004V10.0944H7.18889L0.979004 14.2413V15.2713C0.979004 15.4912 1.15396 15.6695 1.36972 15.6695H3.11772L10.3558 10.836V15.6695H14.2628V10.836L21.5008 15.6695H23.2488C23.4646 15.6695 23.6395 15.4912 23.6395 15.2713V14.2413L17.4296 10.0944H23.6394V6.11222H17.4296L23.6394 1.96527V0.935348Z" fill="#F5F5F5"/>
<path d="M23.6394 6.90817H13.4813V0.536621H11.1371V6.90817H0.979004V9.29746H11.1371V15.669H13.4813V9.29746H23.6394V6.90817Z" fill="#FF4B55"/>
<path d="M8.89912 10.0938L0.990234 15.3265C1.0179 15.5188 1.17346 15.6689 1.36984 15.6689H1.90798L10.3343 10.0938H8.89912V10.0938Z" fill="#FF4B55"/>
<path d="M16.3097 10.0938H14.8745L23.2886 15.6607C23.4847 15.6394 23.6395 15.4762 23.6395 15.2706V14.9432L16.3097 10.0938Z" fill="#FF4B55"/>
<path d="M0.979004 1.3742L8.1391 6.11145H9.57432L1.20663 0.575195C1.07296 0.638486 0.979004 0.774494 0.979004 0.934592V1.3742Z" fill="#FF4B55"/>
<path d="M15.6979 6.11174L23.6258 0.866339C23.5929 0.680391 23.4407 0.536621 23.2487 0.536621H22.689L14.2627 6.11174H15.6979Z" fill="#FF4B55"/>
</svg>
