<svg width="24" height="16" viewBox="0 0 24 16" fill="none" xmlns="http://www.w3.org/2000/svg">
<path d="M23.2482 15.7618H1.36923C1.15347 15.7618 0.978516 15.5835 0.978516 15.3635V1.02763C0.978516 0.807718 1.15347 0.629395 1.36923 0.629395H23.2482C23.464 0.629395 23.6389 0.807718 23.6389 1.02763V15.3635C23.6389 15.5835 23.4639 15.7618 23.2482 15.7618Z" fill="#41479B"/>
<path d="M23.639 1.02763C23.639 0.807718 23.464 0.629395 23.2482 0.629395H21.5002L14.2622 5.46289V0.629395H10.3552V5.46289L3.11718 0.629395H1.36923C1.15347 0.629395 0.978516 0.807718 0.978516 1.02763V2.05756L7.18841 6.20446H0.978516V10.1867H7.18841L0.978516 14.3336V15.3635C0.978516 15.5835 1.15347 15.7618 1.36923 15.7618H3.11723L10.3553 10.9283V15.7618H14.2623V10.9283L21.5003 15.7618H23.2483C23.4641 15.7618 23.639 15.5835 23.639 15.3635V14.3336L17.4292 10.1867H23.639V6.20451H17.4291L23.639 2.05756V1.02763Z" fill="#F5F5F5"/>
<path d="M23.6389 7.0007H13.4808V0.62915H11.1366V7.0007H0.978516V9.38999H11.1366V15.7615H13.4808V9.38999H23.6389V7.0007Z" fill="#FF4B55"/>
<path d="M8.89912 10.1865L0.990234 15.4192C1.0179 15.6116 1.17346 15.7616 1.36984 15.7616H1.90798L10.3343 10.1866H8.89912V10.1865Z" fill="#FF4B55"/>
<path d="M16.3102 10.1865H14.875L23.2891 15.7534C23.4852 15.7321 23.64 15.5689 23.64 15.3634V15.036L16.3102 10.1865Z" fill="#FF4B55"/>
<path d="M0.978516 1.46697L8.13861 6.20422H9.57383L1.20614 0.667969C1.07248 0.731259 0.978516 0.867268 0.978516 1.02737V1.46697Z" fill="#FF4B55"/>
<path d="M15.6969 6.20427L23.6249 0.958868C23.5919 0.77292 23.4397 0.62915 23.2477 0.62915H22.688L14.2617 6.20427H15.6969Z" fill="#FF4B55"/>
</svg>
