<svg width="26" height="18" viewBox="0 0 26 18" fill="none" xmlns="http://www.w3.org/2000/svg">
<path d="M25.074 17.2532H0.894686C0.65624 17.2532 0.462891 17.0562 0.462891 16.8131V0.969895C0.462891 0.726858 0.65624 0.529785 0.894686 0.529785H25.0741C25.3125 0.529785 25.5059 0.726858 25.5059 0.969895V16.8131C25.5058 17.0562 25.3125 17.2532 25.074 17.2532Z" fill="#41479B"/>
<path d="M25.5059 0.969895C25.5059 0.726858 25.3125 0.529785 25.0741 0.529785H23.1423L15.1432 5.87148V0.529785H10.8255V5.87148L2.82642 0.529785H0.894687C0.65624 0.529785 0.462891 0.726858 0.462891 0.969895V2.10811L7.3257 6.69103H0.462891V11.0919H7.3257L0.462891 15.6749V16.8131C0.462891 17.0562 0.65624 17.2532 0.894687 17.2532H2.82647L10.8256 11.9115V17.2532H15.1433V11.9115L23.1424 17.2532H25.0742C25.3126 17.2532 25.506 17.0562 25.506 16.8131V15.6749L18.6432 11.092H25.5059V6.69108H18.6431L25.5059 2.10811V0.969895Z" fill="#F5F5F5"/>
<path d="M25.5059 7.57076H14.2797V0.529297H11.689V7.57076H0.462891V10.2113H11.689V17.2527H14.2797V10.2113H25.5059V7.57076Z" fill="#FF4B55"/>
<path d="M9.21505 11.0913L0.474609 16.8742C0.505179 17.0867 0.677104 17.2526 0.894126 17.2526H1.48884L10.8012 11.0914H9.21505V11.0913Z" fill="#FF4B55"/>
<path d="M17.4054 11.0913H15.8193L25.1181 17.2435C25.3348 17.22 25.5059 17.0396 25.5059 16.8125V16.4507L17.4054 11.0913Z" fill="#FF4B55"/>
<path d="M0.462891 1.45527L8.37581 6.69061H9.96193L0.714445 0.572266C0.566731 0.64221 0.462891 0.792519 0.462891 0.96945V1.45527Z" fill="#FF4B55"/>
<path d="M16.7287 6.69059L25.4902 0.893682C25.4538 0.688183 25.2855 0.529297 25.0734 0.529297H24.4548L15.1426 6.69059H16.7287Z" fill="#FF4B55"/>
</svg>
