<svg width="24" height="16" viewBox="0 0 24 16" fill="none" xmlns="http://www.w3.org/2000/svg">
<path d="M23.2482 15.8731H1.36923C1.15347 15.8731 0.978516 15.6948 0.978516 15.4749V1.13896C0.978516 0.919046 1.15347 0.740723 1.36923 0.740723H23.2482C23.464 0.740723 23.6389 0.919046 23.6389 1.13896V15.4749C23.6389 15.6948 23.4639 15.8731 23.2482 15.8731Z" fill="#41479B"/>
<path d="M23.639 1.13896C23.639 0.919046 23.464 0.740723 23.2482 0.740723H21.5002L14.2622 5.57422V0.740723H10.3552V5.57422L3.11718 0.740723H1.36923C1.15347 0.740723 0.978516 0.919046 0.978516 1.13896V2.16889L7.18841 6.31579H0.978516V10.298H7.18841L0.978516 14.4449V15.4749C0.978516 15.6948 1.15347 15.8731 1.36923 15.8731H3.11723L10.3553 11.0396V15.8731H14.2623V11.0396L21.5003 15.8731H23.2483C23.4641 15.8731 23.639 15.6948 23.639 15.4749V14.4449L17.4292 10.298H23.639V6.31584H17.4291L23.639 2.16889V1.13896Z" fill="#F5F5F5"/>
<path d="M23.6389 7.11178H13.4808V0.740234H11.1366V7.11178H0.978516V9.50108H11.1366V15.8726H13.4808V9.50108H23.6389V7.11178Z" fill="#FF4B55"/>
<path d="M8.89814 10.2974L0.989258 15.5301C1.01692 15.7224 1.17249 15.8725 1.36886 15.8725H1.907L10.3334 10.2974H8.89814V10.2974Z" fill="#FF4B55"/>
<path d="M16.3092 10.2974H14.874L23.2881 15.8643C23.4842 15.843 23.639 15.6798 23.639 15.4742V15.1468L16.3092 10.2974Z" fill="#FF4B55"/>
<path d="M0.978516 1.57781L8.13861 6.31506H9.57383L1.20614 0.778809C1.07248 0.842099 0.978516 0.978108 0.978516 1.13821V1.57781Z" fill="#FF4B55"/>
<path d="M15.6969 6.31535L23.6249 1.06995C23.5919 0.884004 23.4397 0.740234 23.2477 0.740234H22.688L14.2617 6.31535H15.6969Z" fill="#FF4B55"/>
</svg>
