<svg width="24" height="17" viewBox="0 0 24 17" fill="none" xmlns="http://www.w3.org/2000/svg">
<path d="M23.2482 16.0699H1.36923C1.15347 16.0699 0.978516 15.8916 0.978516 15.6717V1.33574C0.978516 1.11582 1.15347 0.9375 1.36923 0.9375H23.2482C23.464 0.9375 23.6389 1.11582 23.6389 1.33574V15.6717C23.6389 15.8916 23.4639 16.0699 23.2482 16.0699Z" fill="#41479B"/>
<path d="M23.639 1.33574C23.639 1.11582 23.464 0.9375 23.2482 0.9375H21.5002L14.2622 5.77099V0.9375H10.3552V5.77099L3.11718 0.9375H1.36923C1.15347 0.9375 0.978516 1.11582 0.978516 1.33574V2.36566L7.18841 6.51257H0.978516V10.4948H7.18841L0.978516 14.6417V15.6717C0.978516 15.8916 1.15347 16.0699 1.36923 16.0699H3.11723L10.3553 11.2364V16.0699H14.2623V11.2364L21.5003 16.0699H23.2483C23.4641 16.0699 23.639 15.8916 23.639 15.6717V14.6417L17.4292 10.4948H23.639V6.51261H17.4291L23.639 2.36566V1.33574Z" fill="#F5F5F5"/>
<path d="M23.6389 7.30905H13.4808V0.9375H11.1366V7.30905H0.978516V9.69834H11.1366V16.0699H13.4808V9.69834H23.6389V7.30905Z" fill="#FF4B55"/>
<path d="M8.89912 10.4951L0.990234 15.7278C1.0179 15.9201 1.17346 16.0702 1.36984 16.0702H1.90798L10.3343 10.4952H8.89912V10.4951Z" fill="#FF4B55"/>
<path d="M16.3102 10.4951H14.875L23.2891 16.062C23.4852 16.0407 23.64 15.8775 23.64 15.672V15.3446L16.3102 10.4951Z" fill="#FF4B55"/>
<path d="M0.978516 1.77556L8.13861 6.51282H9.57383L1.20614 0.976562C1.07248 1.03985 0.978516 1.17586 0.978516 1.33596V1.77556Z" fill="#FF4B55"/>
<path d="M15.6969 6.51262L23.6249 1.26722C23.5919 1.08127 23.4397 0.9375 23.2477 0.9375H22.688L14.2617 6.51262H15.6969Z" fill="#FF4B55"/>
</svg>
