<svg width="24" height="16" viewBox="0 0 24 16" fill="none" xmlns="http://www.w3.org/2000/svg">
<path d="M23.2482 15.1617H1.36923C1.15347 15.1617 0.978516 14.9834 0.978516 14.7634V0.427535C0.978516 0.20762 1.15347 0.0292969 1.36923 0.0292969H23.2482C23.464 0.0292969 23.6389 0.20762 23.6389 0.427535V14.7634C23.6389 14.9834 23.4639 15.1617 23.2482 15.1617Z" fill="#41479B"/>
<path d="M23.639 0.427535C23.639 0.20762 23.464 0.0292969 23.2482 0.0292969H21.5002L14.2622 4.86279V0.0292969H10.3552V4.86279L3.11718 0.0292969H1.36923C1.15347 0.0292969 0.978516 0.20762 0.978516 0.427535V1.45746L7.18841 5.60437H0.978516V9.58657H7.18841L0.978516 13.7335V14.7634C0.978516 14.9834 1.15347 15.1617 1.36923 15.1617H3.11723L10.3553 10.3282V15.1617H14.2623V10.3282L21.5003 15.1617H23.2483C23.4641 15.1617 23.639 14.9834 23.639 14.7634V13.7335L17.4292 9.58662H23.639V5.60441H17.4291L23.639 1.45746V0.427535Z" fill="#F5F5F5"/>
<path d="M23.6389 6.40084H13.4808V0.0292969H11.1366V6.40084H0.978516V8.79014H11.1366V15.1617H13.4808V8.79014H23.6389V6.40084Z" fill="#FF4B55"/>
<path d="M8.89912 9.58691L0.990234 14.8196C1.0179 15.0119 1.17346 15.162 1.36984 15.162H1.90798L10.3343 9.58696H8.89912V9.58691Z" fill="#FF4B55"/>
<path d="M16.3102 9.58691H14.875L23.2891 15.1538C23.4852 15.1325 23.64 14.9693 23.64 14.7638V14.4364L16.3102 9.58691Z" fill="#FF4B55"/>
<path d="M0.978516 0.86736L8.13861 5.60462H9.57383L1.20614 0.0683594C1.07248 0.13165 0.978516 0.267658 0.978516 0.427756V0.86736Z" fill="#FF4B55"/>
<path d="M15.6969 5.60441L23.6249 0.359015C23.5919 0.173066 23.4397 0.0292969 23.2477 0.0292969H22.688L14.2617 5.60441H15.6969Z" fill="#FF4B55"/>
</svg>
