<svg width="24" height="16" viewBox="0 0 24 16" fill="none" xmlns="http://www.w3.org/2000/svg">
<path d="M23.2482 15.5274H1.36923C1.15347 15.5274 0.978516 15.3491 0.978516 15.1292V0.793258C0.978516 0.573343 1.15347 0.39502 1.36923 0.39502H23.2482C23.464 0.39502 23.6389 0.573343 23.6389 0.793258V15.1292C23.6389 15.3491 23.4639 15.5274 23.2482 15.5274Z" fill="#41479B"/>
<path d="M23.639 0.793258C23.639 0.573343 23.464 0.39502 23.2482 0.39502H21.5002L14.2622 5.22851V0.39502H10.3552V5.22851L3.11718 0.39502H1.36923C1.15347 0.39502 0.978516 0.573343 0.978516 0.793258V1.82318L7.18841 5.97009H0.978516V9.9523H7.18841L0.978516 14.0992V15.1292C0.978516 15.3491 1.15347 15.5274 1.36923 15.5274H3.11723L10.3553 10.6939V15.5274H14.2623V10.6939L21.5003 15.5274H23.2483C23.4641 15.5274 23.639 15.3491 23.639 15.1292V14.0992L17.4292 9.95234H23.639V5.97013H17.4291L23.639 1.82318V0.793258Z" fill="#F5F5F5"/>
<path d="M23.6389 6.76632H13.4808V0.394775H11.1366V6.76632H0.978516V9.15562H11.1366V15.5272H13.4808V9.15562H23.6389V6.76632Z" fill="#FF4B55"/>
<path d="M8.89814 9.95215L0.989258 15.1849C1.01692 15.3772 1.17249 15.5273 1.36886 15.5273H1.907L10.3334 9.95219H8.89814V9.95215Z" fill="#FF4B55"/>
<path d="M16.3092 9.95215H14.874L23.2881 15.5191C23.4842 15.4978 23.639 15.3346 23.639 15.129V14.8016L16.3092 9.95215Z" fill="#FF4B55"/>
<path d="M0.978516 1.23259L8.13861 5.96985H9.57383L1.20614 0.433594C1.07248 0.496884 0.978516 0.632893 0.978516 0.792991V1.23259Z" fill="#FF4B55"/>
<path d="M15.6969 5.96989L23.6249 0.724493C23.5919 0.538545 23.4397 0.394775 23.2477 0.394775H22.688L14.2617 5.96989H15.6969Z" fill="#FF4B55"/>
</svg>
