<svg width="24" height="16" viewBox="0 0 24 16" fill="none" xmlns="http://www.w3.org/2000/svg">
<path d="M23.2482 15.732H1.36923C1.15347 15.732 0.978516 15.5537 0.978516 15.3338V0.997848C0.978516 0.777933 1.15347 0.599609 1.36923 0.599609H23.2482C23.464 0.599609 23.6389 0.777933 23.6389 0.997848V15.3338C23.6389 15.5537 23.4639 15.732 23.2482 15.732Z" fill="#41479B"/>
<path d="M23.639 0.997848C23.639 0.777933 23.464 0.599609 23.2482 0.599609H21.5002L14.2622 5.4331V0.599609H10.3552V5.4331L3.11718 0.599609H1.36923C1.15347 0.599609 0.978516 0.777933 0.978516 0.997848V2.02777L7.18841 6.17468H0.978516V10.1569H7.18841L0.978516 14.3038V15.3338C0.978516 15.5537 1.15347 15.732 1.36923 15.732H3.11723L10.3553 10.8985V15.732H14.2623V10.8985L21.5003 15.732H23.2483C23.4641 15.732 23.639 15.5537 23.639 15.3338V14.3038L17.4292 10.1569H23.639V6.17472H17.4291L23.639 2.02777V0.997848Z" fill="#F5F5F5"/>
<path d="M23.6389 6.97116H13.4808V0.599609H11.1366V6.97116H0.978516V9.36045H11.1366V15.732H13.4808V9.36045H23.6389V6.97116Z" fill="#FF4B55"/>
<path d="M8.89912 10.1572L0.990234 15.39C1.0179 15.5823 1.17346 15.7323 1.36984 15.7323H1.90798L10.3343 10.1573H8.89912V10.1572Z" fill="#FF4B55"/>
<path d="M16.3102 10.1572H14.875L23.2891 15.7241C23.4852 15.7028 23.64 15.5396 23.64 15.3341V15.0067L16.3102 10.1572Z" fill="#FF4B55"/>
<path d="M0.978516 1.43767L8.13861 6.17493H9.57383L1.20614 0.638672C1.07248 0.701962 0.978516 0.837971 0.978516 0.998069V1.43767Z" fill="#FF4B55"/>
<path d="M15.6969 6.17472L23.6249 0.929327C23.5919 0.743379 23.4397 0.599609 23.2477 0.599609H22.688L14.2617 6.17472H15.6969Z" fill="#FF4B55"/>
</svg>
