<svg width="24" height="16" viewBox="0 0 24 16" fill="none" xmlns="http://www.w3.org/2000/svg">
<path d="M23.2482 15.4615H1.36923C1.15347 15.4615 0.978516 15.2832 0.978516 15.0633V0.72734C0.978516 0.507425 1.15347 0.329102 1.36923 0.329102H23.2482C23.464 0.329102 23.6389 0.507425 23.6389 0.72734V15.0633C23.6389 15.2832 23.4639 15.4615 23.2482 15.4615Z" fill="#41479B"/>
<path d="M23.639 0.72734C23.639 0.507425 23.464 0.329102 23.2482 0.329102H21.5002L14.2622 5.16259V0.329102H10.3552V5.16259L3.11718 0.329102H1.36923C1.15347 0.329102 0.978516 0.507425 0.978516 0.72734V1.75727L7.18841 5.90417H0.978516V9.88638H7.18841L0.978516 14.0333V15.0633C0.978516 15.2832 1.15347 15.4615 1.36923 15.4615H3.11723L10.3553 10.628V15.4615H14.2623V10.628L21.5003 15.4615H23.2483C23.4641 15.4615 23.639 15.2832 23.639 15.0633V14.0333L17.4292 9.88642H23.639V5.90422H17.4291L23.639 1.75727V0.72734Z" fill="#F5F5F5"/>
<path d="M23.6389 6.70016H13.4808V0.328613H11.1366V6.70016H0.978516V9.08946H11.1366V15.461H13.4808V9.08946H23.6389V6.70016Z" fill="#FF4B55"/>
<path d="M8.89814 9.88574L0.989258 15.1185C1.01692 15.3108 1.17249 15.4609 1.36886 15.4609H1.907L10.3334 9.88579H8.89814V9.88574Z" fill="#FF4B55"/>
<path d="M16.3092 9.88574H14.874L23.2881 15.4527C23.4842 15.4314 23.639 15.2682 23.639 15.0626V14.7352L16.3092 9.88574Z" fill="#FF4B55"/>
<path d="M0.978516 1.16619L8.13861 5.90344H9.57383L1.20614 0.367188C1.07248 0.430478 0.978516 0.566487 0.978516 0.726584V1.16619Z" fill="#FF4B55"/>
<path d="M15.6969 5.90373L23.6249 0.658331C23.5919 0.472383 23.4397 0.328613 23.2477 0.328613H22.688L14.2617 5.90373H15.6969Z" fill="#FF4B55"/>
</svg>
