<svg width="24" height="16" viewBox="0 0 24 16" fill="none" xmlns="http://www.w3.org/2000/svg">
<path d="M23.2482 15.3663H1.36923C1.15347 15.3663 0.978516 15.188 0.978516 14.968V0.632125C0.978516 0.41221 1.15347 0.233887 1.36923 0.233887H23.2482C23.464 0.233887 23.6389 0.41221 23.6389 0.632125V14.968C23.6389 15.188 23.4639 15.3663 23.2482 15.3663Z" fill="#41479B"/>
<path d="M23.639 0.632125C23.639 0.41221 23.464 0.233887 23.2482 0.233887H21.5002L14.2622 5.06738V0.233887H10.3552V5.06738L3.11718 0.233887H1.36923C1.15347 0.233887 0.978516 0.41221 0.978516 0.632125V1.66205L7.18841 5.80896H0.978516V9.79116H7.18841L0.978516 13.9381V14.968C0.978516 15.188 1.15347 15.3663 1.36923 15.3663H3.11723L10.3553 10.5328V15.3663H14.2623V10.5328L21.5003 15.3663H23.2483C23.4641 15.3663 23.639 15.188 23.639 14.968V13.9381L17.4292 9.79121H23.639V5.809H17.4291L23.639 1.66205V0.632125Z" fill="#F5F5F5"/>
<path d="M23.6389 6.60495H13.4808V0.233398H11.1366V6.60495H0.978516V8.99424H11.1366V15.3658H13.4808V8.99424H23.6389V6.60495Z" fill="#FF4B55"/>
<path d="M8.89814 9.79053L0.989258 15.0233C1.01692 15.2156 1.17249 15.3656 1.36886 15.3656H1.907L10.3334 9.79057H8.89814V9.79053Z" fill="#FF4B55"/>
<path d="M16.3092 9.79053H14.874L23.2881 15.3574C23.4842 15.3362 23.639 15.1729 23.639 14.9674V14.64L16.3092 9.79053Z" fill="#FF4B55"/>
<path d="M0.978516 1.07097L8.13861 5.80823H9.57383L1.20614 0.271973C1.07248 0.335263 0.978516 0.471272 0.978516 0.63137V1.07097Z" fill="#FF4B55"/>
<path d="M15.6969 5.80851L23.6249 0.563116C23.5919 0.377168 23.4397 0.233398 23.2477 0.233398H22.688L14.2617 5.80851H15.6969Z" fill="#FF4B55"/>
</svg>
