<svg width="24" height="16" viewBox="0 0 24 16" fill="none" xmlns="http://www.w3.org/2000/svg">
<path d="M23.2482 15.8013H1.36923C1.15347 15.8013 0.978516 15.623 0.978516 15.4031V1.06718C0.978516 0.847269 1.15347 0.668945 1.36923 0.668945H23.2482C23.464 0.668945 23.6389 0.847269 23.6389 1.06718V15.4031C23.6389 15.623 23.4639 15.8013 23.2482 15.8013Z" fill="#41479B"/>
<path d="M23.639 1.06718C23.639 0.847269 23.464 0.668945 23.2482 0.668945H21.5002L14.2622 5.50244V0.668945H10.3552V5.50244L3.11718 0.668945H1.36923C1.15347 0.668945 0.978516 0.847269 0.978516 1.06718V2.09711L7.18841 6.24402H0.978516V10.2262H7.18841L0.978516 14.3732V15.4031C0.978516 15.623 1.15347 15.8013 1.36923 15.8013H3.11723L10.3553 10.9678V15.8013H14.2623V10.9678L21.5003 15.8013H23.2483C23.4641 15.8013 23.639 15.623 23.639 15.4031V14.3732L17.4292 10.2263H23.639V6.24406H17.4291L23.639 2.09711V1.06718Z" fill="#F5F5F5"/>
<path d="M23.6389 7.04049H13.4808V0.668945H11.1366V7.04049H0.978516V9.42979H11.1366V15.8013H13.4808V9.42979H23.6389V7.04049Z" fill="#FF4B55"/>
<path d="M8.89912 10.2266L0.990234 15.4593C1.0179 15.6516 1.17346 15.8017 1.36984 15.8017H1.90798L10.3343 10.2266H8.89912V10.2266Z" fill="#FF4B55"/>
<path d="M16.3102 10.2266H14.875L23.2891 15.7935C23.4852 15.7722 23.64 15.609 23.64 15.4034V15.076L16.3102 10.2266Z" fill="#FF4B55"/>
<path d="M0.978516 1.50701L8.13861 6.24426H9.57383L1.20614 0.708008C1.07248 0.771298 0.978516 0.907307 0.978516 1.0674V1.50701Z" fill="#FF4B55"/>
<path d="M15.6969 6.24406L23.6249 0.998663C23.5919 0.812715 23.4397 0.668945 23.2477 0.668945H22.688L14.2617 6.24406H15.6969Z" fill="#FF4B55"/>
</svg>
