<svg width="24" height="16" viewBox="0 0 24 16" fill="none" xmlns="http://www.w3.org/2000/svg">
<path d="M23.2482 15.2496H1.36923C1.15347 15.2496 0.978516 15.0713 0.978516 14.8513V0.515426C0.978516 0.295511 1.15347 0.117188 1.36923 0.117188H23.2482C23.464 0.117188 23.6389 0.295511 23.6389 0.515426V14.8513C23.6389 15.0713 23.4639 15.2496 23.2482 15.2496Z" fill="#41479B"/>
<path d="M23.639 0.515426C23.639 0.295511 23.464 0.117188 23.2482 0.117188H21.5002L14.2622 4.95068V0.117188H10.3552V4.95068L3.11718 0.117188H1.36923C1.15347 0.117188 0.978516 0.295511 0.978516 0.515426V1.54535L7.18841 5.69226H0.978516V9.67446H7.18841L0.978516 13.8214V14.8513C0.978516 15.0713 1.15347 15.2496 1.36923 15.2496H3.11723L10.3553 10.4161V15.2496H14.2623V10.4161L21.5003 15.2496H23.2483C23.4641 15.2496 23.639 15.0713 23.639 14.8513V13.8214L17.4292 9.67451H23.639V5.6923H17.4291L23.639 1.54535V0.515426Z" fill="#F5F5F5"/>
<path d="M23.6389 6.48873H13.4808V0.117188H11.1366V6.48873H0.978516V8.87803H11.1366V15.2496H13.4808V8.87803H23.6389V6.48873Z" fill="#FF4B55"/>
<path d="M8.89814 9.6748L0.989258 14.9075C1.01692 15.0998 1.17249 15.2499 1.36886 15.2499H1.907L10.3334 9.67485H8.89814V9.6748Z" fill="#FF4B55"/>
<path d="M16.3092 9.6748H14.874L23.2881 15.2417C23.4842 15.2204 23.639 15.0572 23.639 14.8517V14.5243L16.3092 9.6748Z" fill="#FF4B55"/>
<path d="M0.978516 0.955251L8.13861 5.69251H9.57383L1.20614 0.15625C1.07248 0.21954 0.978516 0.355549 0.978516 0.515647V0.955251Z" fill="#FF4B55"/>
<path d="M15.6969 5.6923L23.6249 0.446905C23.5919 0.260957 23.4397 0.117188 23.2477 0.117188H22.688L14.2617 5.6923H15.6969Z" fill="#FF4B55"/>
</svg>
