<svg width="18" height="21" viewBox="0 0 18 21" fill="none" xmlns="http://www.w3.org/2000/svg">
<g clip-path="url(#clip0_950_12671)">
<path d="M16.7906 12.7052L15.2447 10.9229C14.9125 10.5573 14.471 10.3533 14.0117 10.3533C13.5525 10.3533 13.1109 10.5573 12.7788 10.9229L12.2344 11.5505C11.8651 11.9747 11.365 12.2129 10.8436 12.2129C10.3222 12.2129 9.82213 11.9747 9.4528 11.5505C9.03365 11.0672 8.76692 10.7409 8.50018 10.4208C8.23345 10.1008 7.95583 9.75559 7.52035 9.2598C7.15271 8.83507 6.94623 8.25953 6.94623 7.65949C6.94623 7.05944 7.15271 6.48391 7.52035 6.05917L8.0647 5.4316C8.22703 5.24587 8.35583 5.02491 8.44366 4.78147C8.53148 4.53803 8.5766 4.27694 8.57639 4.01328C8.57442 3.48128 8.39055 2.97165 8.0647 2.59496L6.51875 0.800094C6.08203 0.298757 5.49111 0.016779 4.87482 0.015625C4.57124 0.0161407 4.27073 0.0856963 3.99051 0.220308C3.71028 0.35492 3.45585 0.551943 3.24177 0.800094L1.76658 2.48827C0.703534 3.71555 0.106445 5.37907 0.106445 7.1135C0.106445 8.84793 0.703534 10.5114 1.76658 11.7387C2.61576 12.7177 3.58471 13.8223 4.54821 14.977C5.5117 16.1317 6.45887 17.2112 7.30262 18.2153C8.36691 19.439 9.80867 20.1261 11.3118 20.1261C12.8148 20.1261 14.2566 19.439 15.3209 18.2153L16.7906 16.5208C17.2228 16.0204 17.4672 15.3443 17.4711 14.6381C17.4764 14.2797 17.4189 13.9237 17.302 13.5916C17.1851 13.2594 17.0111 12.9579 16.7906 12.7052V12.7052ZM15.9687 15.5481L15.8108 15.705L14.2322 13.8788C14.1796 13.8097 14.1153 13.7538 14.0433 13.7146C13.9713 13.6753 13.893 13.6535 13.8134 13.6505C13.7337 13.6475 13.6544 13.6634 13.5803 13.6972C13.5062 13.7309 13.4389 13.7819 13.3825 13.8468C13.3262 13.9118 13.282 13.9894 13.2527 14.0748C13.2234 14.1603 13.2097 14.2517 13.2123 14.3435C13.2148 14.4354 13.2338 14.5256 13.2678 14.6086C13.3019 14.6917 13.3503 14.7658 13.4102 14.8264L15.0161 16.6777L14.5261 17.2426C13.6792 18.216 12.5321 18.7626 11.3362 18.7626C10.1404 18.7626 8.99326 18.216 8.14636 17.2426C7.30806 16.2761 6.35545 15.159 5.42461 14.0419C4.49377 12.9248 3.48672 11.7764 2.63754 10.7974C1.79322 9.82097 1.3191 8.49849 1.3191 7.11977C1.3191 5.74106 1.79322 4.41857 2.63754 3.44218L3.12745 2.87737L4.67885 4.72244C4.78713 4.85143 4.93542 4.92555 5.0911 4.92849C5.24678 4.93144 5.3971 4.86296 5.50898 4.73813C5.62087 4.61329 5.68516 4.44233 5.68771 4.26285C5.69027 4.08337 5.63087 3.91007 5.52259 3.78107L3.88954 1.89835L4.0474 1.71635C4.15468 1.59068 4.28265 1.49097 4.42379 1.42308C4.56494 1.35518 4.71643 1.32047 4.86937 1.32098C5.17797 1.32205 5.47359 1.46424 5.69134 1.71635L7.24274 3.53004C7.35041 3.6553 7.41103 3.82437 7.41149 4.00073C7.41155 4.08811 7.39668 4.17466 7.36773 4.25542C7.33877 4.33618 7.2963 4.40958 7.24274 4.47141L6.69839 5.09898C6.11335 5.77542 5.78482 6.69169 5.78482 7.64694C5.78482 8.60218 6.11335 9.51846 6.69839 10.1949C7.15564 10.6844 7.40604 10.9919 7.69999 11.312C7.99394 11.632 8.24434 11.9772 8.67438 12.4667C9.26111 13.1412 10.0559 13.52 10.8844 13.52C11.713 13.52 12.5078 13.1412 13.0945 12.4667L13.6388 11.8391C13.75 11.7182 13.897 11.6509 14.0498 11.6509C14.2026 11.6509 14.3497 11.7182 14.4608 11.8391L16.0068 13.6214C16.1155 13.7453 16.2019 13.8929 16.2607 14.0556C16.3196 14.2183 16.3498 14.3928 16.3497 14.5691C16.3469 14.7526 16.3117 14.9335 16.2462 15.1007C16.1806 15.268 16.0862 15.4181 15.9687 15.5418V15.5481Z" fill="white"/>
</g>
<defs>
<clipPath id="clip0_950_12671">
<rect width="17.4192" height="20.0824" fill="white" transform="translate(0.0791016 0.015625)"/>
</clipPath>
</defs>
</svg>
