<svg width="28" height="28" viewBox="0 0 28 28" fill="none" xmlns="http://www.w3.org/2000/svg">
<g clip-path="url(#clip0_953_27751)">
<path d="M26.8625 17.6925L24.3775 15.2075C23.8436 14.6978 23.1338 14.4133 22.3956 14.4133C21.6574 14.4133 20.9476 14.6978 20.4137 15.2075L19.5387 16.0825C18.9451 16.674 18.1412 17.0061 17.3031 17.0061C16.4651 17.0061 15.6612 16.674 15.0675 16.0825C14.3937 15.4087 13.965 14.9537 13.5362 14.5075C13.1075 14.0612 12.6612 13.58 11.9612 12.8887C11.3703 12.2966 11.0384 11.4941 11.0384 10.6575C11.0384 9.82089 11.3703 9.01844 11.9612 8.42625L12.8362 7.55125C13.0972 7.29231 13.3042 6.98423 13.4454 6.64481C13.5865 6.30539 13.6591 5.94136 13.6587 5.57375C13.6556 4.83201 13.36 4.12145 12.8362 3.59625L10.3512 1.09375C9.64923 0.394759 8.69938 0.00160903 7.70873 0C7.22076 0.000719084 6.73772 0.0976974 6.28728 0.285381C5.83684 0.473064 5.42785 0.747765 5.08373 1.09375L2.71248 3.4475C1.00372 5.15864 0.0439453 7.47801 0.0439453 9.89625C0.0439453 12.3145 1.00372 14.6339 2.71248 16.345C4.07748 17.71 5.63498 19.25 7.18373 20.86C8.73248 22.47 10.255 23.975 11.6112 25.375C13.322 27.0811 15.6395 28.0392 18.0556 28.0392C20.4717 28.0392 22.7892 27.0811 24.5 25.375L26.8625 23.0125C27.5572 22.3148 27.95 21.3721 27.9562 20.3875C27.9649 19.8878 27.8724 19.3915 27.6845 18.9284C27.4965 18.4652 27.2169 18.0449 26.8625 17.6925V17.6925ZM25.5412 21.6562L25.2875 21.875L22.75 19.3288C22.6655 19.2325 22.5622 19.1546 22.4464 19.0998C22.3306 19.0451 22.2048 19.0147 22.0768 19.0105C21.9487 19.0064 21.8212 19.0285 21.7021 19.0756C21.583 19.1227 21.4748 19.1937 21.3842 19.2843C21.2937 19.3748 21.2226 19.483 21.1756 19.6021C21.1285 19.7212 21.1063 19.8488 21.1105 19.9768C21.1147 20.1048 21.1451 20.2306 21.1998 20.3464C21.2545 20.4622 21.3325 20.5655 21.4287 20.65L24.01 23.2312L23.2225 24.0188C21.8611 25.3759 20.0173 26.138 18.095 26.138C16.1727 26.138 14.3288 25.3759 12.9675 24.0188C11.62 22.6713 10.0887 21.1138 8.59248 19.5563C7.09623 17.9988 5.47748 16.3975 4.11248 15.0325C2.7553 13.6712 1.9932 11.8273 1.9932 9.905C1.9932 7.98272 2.7553 6.13884 4.11248 4.7775L4.89998 3.99L7.39373 6.5625C7.56778 6.74235 7.80614 6.84569 8.05639 6.8498C8.30663 6.8539 8.54826 6.75842 8.72811 6.58438C8.90796 6.41033 9.0113 6.17196 9.0154 5.92172C9.0195 5.67147 8.92403 5.42985 8.74998 5.25L6.12498 2.625L6.37873 2.37125C6.55117 2.19603 6.75686 2.05701 6.98375 1.96235C7.21064 1.86768 7.45414 1.81929 7.69998 1.82C8.19603 1.82149 8.67122 2.01975 9.02123 2.37125L11.515 4.9C11.6881 5.07464 11.7855 5.31037 11.7862 5.55625C11.7863 5.67809 11.7624 5.79876 11.7159 5.91136C11.6694 6.02396 11.6011 6.12629 11.515 6.2125L10.64 7.0875C9.69957 8.03062 9.17149 9.30814 9.17149 10.64C9.17149 11.9719 9.69957 13.2494 10.64 14.1925C11.375 14.875 11.7775 15.3038 12.25 15.75C12.7225 16.1962 13.125 16.6775 13.8162 17.36C14.7594 18.3004 16.0369 18.8285 17.3687 18.8285C18.7006 18.8285 19.9781 18.3004 20.9212 17.36L21.7962 16.485C21.9749 16.3164 22.2112 16.2225 22.4569 16.2225C22.7025 16.2225 22.9388 16.3164 23.1175 16.485L25.6025 18.97C25.7773 19.1427 25.9161 19.3485 26.0107 19.5753C26.1053 19.8021 26.154 20.0455 26.1537 20.2913C26.1492 20.5471 26.0926 20.7993 25.9873 21.0325C25.882 21.2657 25.7302 21.475 25.5412 21.6475V21.6562Z" fill="white"/>
</g>
<defs>
<clipPath id="clip0_953_27751">
<rect width="28" height="28" fill="white"/>
</clipPath>
</defs>
</svg>
