<svg width="24" height="25" viewBox="0 0 24 25" fill="none" xmlns="http://www.w3.org/2000/svg">
<g clip-path="url(#clip0_953_27756)">
<path d="M11.8247 0.386719C9.48599 0.386719 7.19981 1.08022 5.25525 2.37954C3.31069 3.67885 1.7951 5.52561 0.900113 7.68629C0.00513104 9.84697 -0.229037 12.2245 0.227221 14.5183C0.683479 16.812 1.80967 18.919 3.46338 20.5727C5.11709 22.2264 7.22405 23.3526 9.51781 23.8089C11.8116 24.2651 14.1891 24.031 16.3498 23.136C18.5105 22.241 20.3572 20.7254 21.6566 18.7808C22.9559 16.8363 23.6494 14.5501 23.6494 12.2114C23.6494 9.0753 22.4036 6.06765 20.186 3.85009C17.9684 1.63253 14.9608 0.386719 11.8247 0.386719V0.386719ZM12.6155 22.4176V20.8804C12.5965 20.6848 12.5054 20.5033 12.3599 20.3712C12.2144 20.2391 12.0249 20.166 11.8284 20.166C11.6319 20.166 11.4424 20.2391 11.2969 20.3712C11.1514 20.5033 11.0603 20.6848 11.0413 20.8804V22.4176C8.60659 22.2279 6.31958 21.1752 4.59208 19.4491C2.86458 17.7229 1.8101 15.4367 1.61852 13.0022H3.15572C3.35131 12.9832 3.53283 12.8921 3.6649 12.7466C3.79698 12.6011 3.87014 12.4116 3.87014 12.2151C3.87014 12.0186 3.79698 11.8291 3.6649 11.6836C3.53283 11.5381 3.35131 11.447 3.15572 11.428H1.61852C1.80819 8.9933 2.86087 6.70628 4.58702 4.97878C6.31316 3.25128 8.59935 2.1968 11.0339 2.00522V3.54243C11.0529 3.73802 11.144 3.91954 11.2895 4.05161C11.435 4.18368 11.6245 4.25685 11.821 4.25685C12.0175 4.25685 12.207 4.18368 12.3525 4.05161C12.498 3.91954 12.5891 3.73802 12.6081 3.54243V2.00522C15.0428 2.19489 17.3298 3.24758 19.0573 4.97372C20.7848 6.69987 21.8393 8.98606 22.0309 11.4206H20.4937C20.2981 11.4396 20.1166 11.5307 19.9845 11.6762C19.8524 11.8217 19.7792 12.0112 19.7792 12.2077C19.7792 12.4042 19.8524 12.5937 19.9845 12.7392C20.1166 12.8847 20.2981 12.9758 20.4937 12.9948H22.0309C21.8412 15.4295 20.7885 17.7165 19.0624 19.444C17.3362 21.1715 15.05 22.226 12.6155 22.4176V22.4176Z" fill="white"/>
<path d="M11.8247 5.90723C11.615 5.90723 11.4138 5.99054 11.2655 6.13884C11.1172 6.28714 11.0339 6.48828 11.0339 6.698V11.4279H8.66898C8.4734 11.4468 8.29188 11.538 8.15981 11.6835C8.02773 11.829 7.95457 12.0184 7.95457 12.215C7.95457 12.4115 8.02773 12.6009 8.15981 12.7464C8.29188 12.8919 8.4734 12.9831 8.66898 13.002H11.8247C12.0344 13.002 12.2356 12.9187 12.3839 12.7704C12.5322 12.6221 12.6155 12.421 12.6155 12.2113V6.69061C12.6135 6.48217 12.5294 6.28293 12.3813 6.13622C12.2332 5.98952 12.0331 5.90722 11.8247 5.90723V5.90723Z" fill="white"/>
</g>
<defs>
<clipPath id="clip0_953_27756">
<rect width="23.6494" height="23.6494" fill="white" transform="translate(1.52588e-05 0.386719)"/>
</clipPath>
</defs>
</svg>
