<svg width="54" height="53" viewBox="0 0 54 53" fill="none" xmlns="http://www.w3.org/2000/svg">
<g clip-path="url(#clip0_1274_3716)">
<path d="M30.8876 39.7108L27.0322 37.4121L23.3389 39.614L25.0862 43.4724L23.5498 51.6664H30.7194L29.1837 43.4724L30.8876 39.7108Z" fill="#E95440"/>
<path d="M37.992 33.3051C36.4926 33.3051 33.1201 33.3051 31.623 33.3051V30.0303C34.6833 28.3948 36.7234 25.1788 36.7234 21.4868C36.7234 20.321 36.7234 11.4486 36.7234 10.0952L39.5152 7.32129C39.8589 6.97742 39.9212 6.43872 39.6515 6.03415L37.6073 2.96148C37.4593 2.73931 37.2321 2.58416 36.971 2.52917L27.2417 0.480453C27.1031 0.451177 26.9606 0.451177 26.8219 0.480453L17.0919 2.52897C16.8307 2.58395 16.6015 2.73921 16.4535 2.96128L14.4051 6.03405C14.1353 6.43861 14.2065 6.97732 14.5502 7.32118L17.3419 10.0951V21.4867C17.3419 25.1787 19.382 28.3948 22.4423 30.0302V33.305C20.9393 33.305 17.5701 33.305 16.0733 33.305C10.5408 33.3051 6.01904 37.8376 6.01904 43.3699V51.6663C6.01904 52.2296 6.49664 52.6864 7.05993 52.6864H47.0053C47.5686 52.6864 48.0462 52.2296 48.0462 51.6663V43.3699C48.0462 37.8376 43.5244 33.3051 37.992 33.3051ZM34.6957 35.3452L32.7834 39.6374L28.7778 37.2413L30.9931 35.3452H34.6957ZM26.0042 7.62415C26.0042 7.05698 26.4654 6.59571 27.0326 6.59571C27.5998 6.59571 28.061 7.05698 28.061 7.62415C28.061 8.19121 27.5998 8.65248 27.0326 8.65248C26.4655 8.65248 26.0042 8.1911 26.0042 7.62415ZM34.6832 10.6594V12.6995H19.382V10.6594H34.6832ZM34.5496 14.7397C34.1334 15.9638 32.9944 16.8818 31.6583 16.8818H22.407C21.0709 16.8818 19.932 15.9638 19.5157 14.7397H34.5496ZM17.9201 4.43957L27.0326 2.52101L36.1451 4.43957L37.4988 6.4532L35.3161 8.61913H29.9234C30.0382 8.31311 30.1012 7.96801 30.1012 7.60742C30.1012 5.91542 28.7246 4.54709 27.0326 4.54709C25.3406 4.54709 23.964 5.91123 23.964 7.60323C23.964 7.96383 24.0271 8.31311 24.1418 8.61913H18.7491L16.5665 6.4532L17.9201 4.43957ZM19.382 21.4867V17.8637C20.1981 18.5055 21.2596 18.9219 22.4069 18.9219H31.6582C32.8055 18.9219 33.867 18.5055 34.6831 17.8637V21.4867C34.6831 25.6728 31.3241 29.1227 27.0679 29.1227H26.9972C22.7513 29.1228 19.382 25.6761 19.382 21.4867ZM29.5828 30.8419V33.886L27.0326 36.072L24.4824 33.886V30.8419C26.0701 31.2666 27.9586 31.2764 29.5828 30.8419ZM23.0721 35.3452L25.2875 37.2493L21.2818 39.6294L19.3695 35.3451H23.0721V35.3452ZM46.006 50.6464H8.05919V43.37C8.05919 38.9626 11.6658 35.3452 16.0733 35.3452H17.1347L19.8877 41.5174C20.1437 42.09 20.8282 42.297 21.3413 41.991L27.0326 38.5988L32.7239 41.9924C33.2406 42.3006 33.9142 42.106 34.1775 41.5173L36.9305 35.3452H37.9919C42.3993 35.3452 46.006 38.9626 46.006 43.37V50.6464Z" fill="#024273"/>
<path d="M24.3481 25.1599C25.9887 26.3583 28.2805 26.3587 29.9217 25.1599C30.3766 24.8276 30.4761 24.1893 30.1437 23.7345C29.8115 23.2795 29.173 23.1802 28.7183 23.5124C27.8007 24.1827 26.469 24.1826 25.5517 23.5125C25.0967 23.1798 24.4585 23.2796 24.1262 23.7344C23.7938 24.1893 23.8932 24.8275 24.3481 25.1599Z" fill="#024273"/>
<path d="M40.8598 41.9756H37.7872C37.2239 41.9756 36.7671 42.4324 36.7671 42.9957C36.7671 43.559 37.2239 44.0157 37.7872 44.0157H40.8598C41.4231 44.0157 41.8799 43.559 41.8799 42.9957C41.8799 42.4324 41.4231 41.9756 40.8598 41.9756Z" fill="#024273"/>
</g>
<defs>
<clipPath id="clip0_1274_3716">
<rect width="52.228" height="52.228" fill="white" transform="translate(0.918457 0.458496)"/>
</clipPath>
</defs>
</svg>
