<svg width="17" height="16" viewBox="0 0 17 16" fill="none" xmlns="http://www.w3.org/2000/svg">
<path d="M8.50065 1.332C12.1833 1.332 15.1687 4.31733 15.1687 8C15.1687 11.682 12.1833 14.6667 8.50065 14.6667C4.81798 14.6673 1.83398 11.682 1.83398 8C1.83332 4.31733 4.81798 1.332 8.50065 1.332ZM10.4607 11H6.54132C6.97598 12.61 7.73198 13.668 8.50132 13.668C9.26998 13.668 10.026 12.6093 10.4607 11ZM5.50732 11H3.69065C4.3346 12.0298 5.29128 12.8265 6.42065 13.2733C6.07265 12.7267 5.78532 12.0427 5.57398 11.2633L5.50598 11H5.50732ZM13.3107 11H11.496C11.28 11.89 10.968 12.6667 10.5807 13.274C11.6385 12.8556 12.5466 12.1294 13.1873 11.1893L13.3107 11ZM5.22998 6.66667H2.99132L2.98798 6.678C2.88504 7.11111 2.83335 7.55482 2.83398 8C2.83305 8.6831 2.95592 9.36072 3.19665 10H5.31198C5.21437 9.33783 5.16602 8.66933 5.16732 8C5.16732 7.544 5.18865 7.09733 5.23065 6.666L5.22998 6.66667ZM10.7653 6.66667H6.23598C6.11871 7.77688 6.14897 8.89773 6.32598 10H10.6753C10.8523 8.89773 10.8825 7.77688 10.7653 6.66667ZM14.0107 6.66667H11.772C11.8133 7.098 11.8353 7.54467 11.8353 8C11.8364 8.66934 11.7878 9.33785 11.69 10H13.8053C14.0462 9.36075 14.1693 8.68314 14.1687 8C14.1687 7.54067 14.114 7.094 14.0107 6.66667ZM6.42065 2.72533L6.40532 2.73067C5.04069 3.2758 3.94002 4.32797 3.33398 5.66667H5.36598C5.57532 4.49867 5.93932 3.48133 6.42132 2.72667L6.42065 2.72533ZM8.50065 2.33133L8.42265 2.33467C7.58065 2.41333 6.76532 3.74733 6.38732 5.66667H10.6153C10.238 3.75333 9.42665 2.42067 8.58532 2.33667L8.50065 2.33133ZM10.5807 2.72467L10.6513 2.84133C11.098 3.58267 11.436 4.556 11.6347 5.666H13.6667C13.0879 4.38872 12.0578 3.37022 10.774 2.806L10.5807 2.72467Z" fill="white"/>
</svg>
