<svg width="18" height="19" viewBox="0 0 18 19" fill="none" xmlns="http://www.w3.org/2000/svg">
<path d="M8.86761 2.22656C12.9375 2.22656 16.2367 5.52578 16.2367 9.59565C16.2367 13.6648 12.9375 16.9633 8.86761 16.9633C4.79774 16.964 1.5 13.6648 1.5 9.59565C1.49926 5.52578 4.79774 2.22656 8.86761 2.22656ZM11.0337 12.9111H6.70227C7.18264 14.6904 8.01813 15.8596 8.86835 15.8596C9.71784 15.8596 10.5533 14.6896 11.0337 12.9111ZM5.55955 12.9111H3.55188C4.26353 14.0492 5.3208 14.9296 6.56892 15.4234C6.18433 14.8193 5.86678 14.0634 5.63323 13.2021L5.55808 12.9111H5.55955ZM14.1833 12.9111H12.1779C11.9392 13.8947 11.5944 14.753 11.1663 15.4242C12.3354 14.9617 13.3389 14.1592 14.047 13.1203L14.1833 12.9111ZM5.25306 8.12213H2.77902L2.77533 8.13465C2.66157 8.6133 2.60444 9.10366 2.60514 9.59565C2.60411 10.3506 2.7399 11.0994 3.00594 11.8059H5.34368C5.23581 11.0741 5.18237 10.3353 5.18381 9.59565C5.18381 9.0917 5.20738 8.59807 5.2538 8.12139L5.25306 8.12213ZM11.3704 8.12213H6.36483C6.23523 9.34907 6.26868 10.5878 6.4643 11.8059H11.2709C11.4665 10.5878 11.4999 9.34907 11.3704 8.12213ZM14.9569 8.12213H12.4829C12.5286 8.59881 12.5529 9.09244 12.5529 9.59565C12.5541 10.3354 12.5004 11.0742 12.3923 11.8059H14.73C14.9962 11.0995 15.1323 10.3506 15.1316 9.59565C15.1316 9.08802 15.0711 8.59439 14.9569 8.12213ZM6.56892 3.76639L6.55197 3.77229C5.04386 4.37474 3.82746 5.53753 3.15771 7.01698H5.40336C5.6347 5.72618 6.03698 4.60188 6.56965 3.76787L6.56892 3.76639ZM8.86761 3.33097L8.78141 3.33465C7.85088 3.42159 6.94982 4.89585 6.53208 7.01698H11.2046C10.7876 4.90248 9.89097 3.42969 8.96118 3.33686L8.86761 3.33097ZM11.1663 3.76566L11.2444 3.89459C11.738 4.71387 12.1116 5.78954 12.3311 7.01625H14.5768C13.9372 5.60468 12.7987 4.47908 11.38 3.85554L11.1663 3.76566Z" fill="white"/>
</svg>
