<svg width="17" height="16" viewBox="0 0 17 16" fill="none" xmlns="http://www.w3.org/2000/svg">
<path d="M8.50016 1.33203C12.1828 1.33203 15.1682 4.31736 15.1682 8.00003C15.1682 11.682 12.1828 14.6667 8.50016 14.6667C4.8175 14.6674 1.8335 11.682 1.8335 8.00003C1.83283 4.31736 4.8175 1.33203 8.50016 1.33203ZM10.4602 11H6.54083C6.9755 12.61 7.7315 13.668 8.50083 13.668C9.2695 13.668 10.0255 12.6094 10.4602 11ZM5.50683 11H3.69016C4.33411 12.0298 5.29079 12.8265 6.42016 13.2734C6.07216 12.7267 5.78483 12.0427 5.5735 11.2634L5.5055 11H5.50683ZM13.3102 11H11.4955C11.2795 11.89 10.9675 12.6667 10.5802 13.274C11.6381 12.8556 12.5461 12.1294 13.1868 11.1894L13.3102 11ZM5.2295 6.6667H2.99083L2.9875 6.67803C2.88455 7.11114 2.83286 7.55485 2.8335 8.00003C2.83256 8.68313 2.95544 9.36075 3.19616 10H5.3115C5.21388 9.33786 5.16553 8.66936 5.16683 8.00003C5.16683 7.54403 5.18816 7.09736 5.23016 6.66603L5.2295 6.6667ZM10.7648 6.6667H6.2355C6.11822 7.77691 6.14849 8.89776 6.3255 10H10.6748C10.8518 8.89776 10.8821 7.77691 10.7648 6.6667ZM14.0102 6.6667H11.7715C11.8128 7.09803 11.8348 7.5447 11.8348 8.00003C11.8359 8.66937 11.7873 9.33788 11.6895 10H13.8048C14.0457 9.36078 14.1688 8.68317 14.1682 8.00003C14.1682 7.5407 14.1135 7.09403 14.0102 6.6667ZM6.42016 2.72536L6.40483 2.7307C5.0402 3.27583 3.93953 4.328 3.3335 5.6667H5.3655C5.57483 4.4987 5.93883 3.48136 6.42083 2.7267L6.42016 2.72536ZM8.50016 2.33136L8.42216 2.3347C7.58016 2.41336 6.76483 3.74736 6.38683 5.6667H10.6148C10.2375 3.75336 9.42616 2.4207 8.58483 2.3367L8.50016 2.33136ZM10.5802 2.7247L10.6508 2.84136C11.0975 3.5827 11.4355 4.55603 11.6342 5.66603H13.6662C13.0874 4.38875 12.0573 3.37025 10.7735 2.80603L10.5802 2.7247Z" fill="white"/>
</svg>
