<svg width="16" height="16" viewBox="0 0 16 16" fill="none" xmlns="http://www.w3.org/2000/svg">
<path d="M8.27338 1.50244C11.7485 1.50244 14.5656 4.31953 14.5656 7.79466C14.5656 11.2692 11.7485 14.0856 8.27338 14.0856C4.79825 14.0862 1.98242 11.2692 1.98242 7.79466C1.98179 4.31953 4.79825 1.50244 8.27338 1.50244ZM10.1229 10.6256H6.42447C6.83464 12.1449 7.54803 13.1432 8.27401 13.1432C8.99936 13.1432 9.71275 12.1442 10.1229 10.6256ZM5.44874 10.6256H3.73445C4.34211 11.5974 5.24487 12.3491 6.3106 12.7708C5.98221 12.2549 5.71107 11.6095 5.51165 10.8741L5.44748 10.6256H5.44874ZM12.8123 10.6256H11.0999C10.8961 11.4654 10.6017 12.1983 10.2362 12.7714C11.2344 12.3766 12.0913 11.6913 12.6959 10.8043L12.8123 10.6256ZM5.18704 6.53646H3.07453L3.07139 6.54716C2.97424 6.95586 2.92547 7.37457 2.92607 7.79466C2.92518 8.43926 3.04113 9.07869 3.26829 9.68194H5.26441C5.1723 9.05709 5.12667 8.42626 5.1279 7.79466C5.1279 7.36435 5.14803 6.94286 5.18766 6.53584L5.18704 6.53646ZM10.4104 6.53646H6.13634C6.02568 7.58411 6.05423 8.6418 6.22127 9.68194H10.3255C10.4925 8.64179 10.521 7.58411 10.4104 6.53646ZM13.4729 6.53646H11.3604C11.3994 6.94349 11.4201 7.36498 11.4201 7.79466C11.4211 8.42628 11.3753 9.0571 11.283 9.68194H13.2791C13.5064 9.07872 13.6226 8.4393 13.622 7.79466C13.622 7.36121 13.5704 6.93972 13.4729 6.53646ZM6.3106 2.81725L6.29613 2.82228C5.0084 3.33669 3.96977 4.32957 3.39789 5.59282H5.31537C5.51291 4.49065 5.85639 3.53065 6.31123 2.81851L6.3106 2.81725ZM8.27338 2.44546L8.19977 2.4486C7.40523 2.52283 6.63584 3.78165 6.27915 5.59282H10.2689C9.9128 3.78732 9.14719 2.52975 8.35327 2.45049L8.27338 2.44546ZM10.2362 2.81662L10.3028 2.92671C10.7243 3.62627 11.0433 4.54475 11.2308 5.59219H13.1482C12.6021 4.3869 11.63 3.42579 10.4186 2.89337L10.2362 2.81662Z" fill="white"/>
</svg>
