<svg width="17" height="16" viewBox="0 0 17 16" fill="none" xmlns="http://www.w3.org/2000/svg">
<path d="M8.4987 1.33203C12.1814 1.33203 15.1667 4.31736 15.1667 8.00003C15.1667 11.682 12.1814 14.6667 8.4987 14.6667C4.81603 14.6674 1.83203 11.682 1.83203 8.00003C1.83136 4.31736 4.81603 1.33203 8.4987 1.33203ZM10.4587 11H6.53936C6.97403 12.61 7.73003 13.668 8.49936 13.668C9.26803 13.668 10.024 12.6094 10.4587 11ZM5.50536 11H3.6887C4.33264 12.0298 5.28932 12.8265 6.4187 13.2734C6.0707 12.7267 5.78336 12.0427 5.57203 11.2634L5.50403 11H5.50536ZM13.3087 11H11.494C11.278 11.89 10.966 12.6667 10.5787 13.274C11.6366 12.8556 12.5446 12.1294 13.1854 11.1894L13.3087 11ZM5.22803 6.6667H2.98936L2.98603 6.67803C2.88309 7.11114 2.8314 7.55485 2.83203 8.00003C2.8311 8.68313 2.95397 9.36075 3.1947 10H5.31003C5.21242 9.33786 5.16406 8.66936 5.16536 8.00003C5.16536 7.54403 5.1867 7.09736 5.2287 6.66603L5.22803 6.6667ZM10.7634 6.6667H6.23403C6.11676 7.77691 6.14702 8.89776 6.32403 10H10.6734C10.8503 8.89776 10.8806 7.77691 10.7634 6.6667ZM14.0087 6.6667H11.77C11.8114 7.09803 11.8334 7.5447 11.8334 8.00003C11.8344 8.66937 11.7859 9.33788 11.688 10H13.8034C14.0443 9.36078 14.1674 8.68317 14.1667 8.00003C14.1667 7.5407 14.112 7.09403 14.0087 6.6667ZM6.4187 2.72536L6.40337 2.7307C5.03873 3.27583 3.93806 4.328 3.33203 5.6667H5.36403C5.57336 4.4987 5.93736 3.48136 6.41936 2.7267L6.4187 2.72536ZM8.4987 2.33136L8.4207 2.3347C7.5787 2.41336 6.76336 3.74736 6.38536 5.6667H10.6134C10.236 3.75336 9.4247 2.4207 8.58336 2.3367L8.4987 2.33136ZM10.5787 2.7247L10.6494 2.84136C11.096 3.5827 11.434 4.55603 11.6327 5.66603H13.6647C13.0859 4.38875 12.0558 3.37025 10.772 2.80603L10.5787 2.7247Z" fill="white"/>
</svg>
