<svg width="17" height="16" viewBox="0 0 17 16" fill="none" xmlns="http://www.w3.org/2000/svg">
<path d="M8.50065 1.33203C12.1833 1.33203 15.1687 4.31736 15.1687 8.00003C15.1687 11.682 12.1833 14.6667 8.50065 14.6667C4.81798 14.6674 1.83398 11.682 1.83398 8.00003C1.83332 4.31736 4.81798 1.33203 8.50065 1.33203ZM10.4607 11H6.54132C6.97598 12.61 7.73198 13.668 8.50132 13.668C9.26998 13.668 10.026 12.6094 10.4607 11ZM5.50732 11H3.69065C4.3346 12.0298 5.29128 12.8265 6.42065 13.2734C6.07265 12.7267 5.78532 12.0427 5.57398 11.2634L5.50598 11H5.50732ZM13.3107 11H11.496C11.28 11.89 10.968 12.6667 10.5807 13.274C11.6385 12.8556 12.5466 12.1294 13.1873 11.1894L13.3107 11ZM5.22998 6.6667H2.99132L2.98798 6.67803C2.88504 7.11114 2.83335 7.55485 2.83398 8.00003C2.83305 8.68313 2.95592 9.36075 3.19665 10H5.31198C5.21437 9.33786 5.16602 8.66936 5.16732 8.00003C5.16732 7.54403 5.18865 7.09736 5.23065 6.66603L5.22998 6.6667ZM10.7653 6.6667H6.23598C6.11871 7.77691 6.14897 8.89776 6.32598 10H10.6753C10.8523 8.89776 10.8825 7.77691 10.7653 6.6667ZM14.0107 6.6667H11.772C11.8133 7.09803 11.8353 7.5447 11.8353 8.00003C11.8364 8.66937 11.7878 9.33788 11.69 10H13.8053C14.0462 9.36078 14.1693 8.68317 14.1687 8.00003C14.1687 7.5407 14.114 7.09403 14.0107 6.6667ZM6.42065 2.72536L6.40532 2.7307C5.04069 3.27583 3.94002 4.328 3.33398 5.6667H5.36598C5.57532 4.4987 5.93932 3.48136 6.42132 2.7267L6.42065 2.72536ZM8.50065 2.33136L8.42265 2.3347C7.58065 2.41336 6.76532 3.74736 6.38732 5.6667H10.6153C10.238 3.75336 9.42665 2.4207 8.58532 2.3367L8.50065 2.33136ZM10.5807 2.7247L10.6513 2.84136C11.098 3.5827 11.436 4.55603 11.6347 5.66603H13.6667C13.0879 4.38875 12.0578 3.37025 10.774 2.80603L10.5807 2.7247Z" fill="white"/>
</svg>
