<svg width="17" height="16" viewBox="0 0 17 16" fill="none" xmlns="http://www.w3.org/2000/svg">
<path d="M8.49967 1.33203C12.1823 1.33203 15.1677 4.31736 15.1677 8.00003C15.1677 11.682 12.1823 14.6667 8.49967 14.6667C4.81701 14.6674 1.83301 11.682 1.83301 8.00003C1.83234 4.31736 4.81701 1.33203 8.49967 1.33203ZM10.4597 11H6.54034C6.97501 12.61 7.73101 13.668 8.50034 13.668C9.26901 13.668 10.025 12.6094 10.4597 11ZM5.50634 11H3.68967C4.33362 12.0298 5.2903 12.8265 6.41967 13.2734C6.07167 12.7267 5.78434 12.0427 5.57301 11.2634L5.50501 11H5.50634ZM13.3097 11H11.495C11.279 11.89 10.967 12.6667 10.5797 13.274C11.6376 12.8556 12.5456 12.1294 13.1863 11.1894L13.3097 11ZM5.22901 6.6667H2.99034L2.98701 6.67803C2.88406 7.11114 2.83238 7.55485 2.83301 8.00003C2.83207 8.68313 2.95495 9.36075 3.19567 10H5.31101C5.21339 9.33786 5.16504 8.66936 5.16634 8.00003C5.16634 7.54403 5.18767 7.09736 5.22967 6.66603L5.22901 6.6667ZM10.7643 6.6667H6.23501C6.11773 7.77691 6.148 8.89776 6.32501 10H10.6743C10.8513 8.89776 10.8816 7.77691 10.7643 6.6667ZM14.0097 6.6667H11.771C11.8123 7.09803 11.8343 7.5447 11.8343 8.00003C11.8354 8.66937 11.7868 9.33788 11.689 10H13.8043C14.0452 9.36078 14.1683 8.68317 14.1677 8.00003C14.1677 7.5407 14.113 7.09403 14.0097 6.6667ZM6.41967 2.72536L6.40434 2.7307C5.03971 3.27583 3.93904 4.328 3.33301 5.6667H5.36501C5.57434 4.4987 5.93834 3.48136 6.42034 2.7267L6.41967 2.72536ZM8.49967 2.33136L8.42167 2.3347C7.57967 2.41336 6.76434 3.74736 6.38634 5.6667H10.6143C10.237 3.75336 9.42567 2.4207 8.58434 2.3367L8.49967 2.33136ZM10.5797 2.7247L10.6503 2.84136C11.097 3.5827 11.435 4.55603 11.6337 5.66603H13.6657C13.0869 4.38875 12.0568 3.37025 10.773 2.80603L10.5797 2.7247Z" fill="white"/>
</svg>
