<svg width="17" height="16" viewBox="0 0 17 16" fill="none" xmlns="http://www.w3.org/2000/svg">
<path d="M8.49967 1.332C12.1823 1.332 15.1677 4.31733 15.1677 8C15.1677 11.682 12.1823 14.6667 8.49967 14.6667C4.81701 14.6673 1.83301 11.682 1.83301 8C1.83234 4.31733 4.81701 1.332 8.49967 1.332ZM10.4597 11H6.54034C6.97501 12.61 7.73101 13.668 8.50034 13.668C9.26901 13.668 10.025 12.6093 10.4597 11ZM5.50634 11H3.68967C4.33362 12.0298 5.2903 12.8265 6.41967 13.2733C6.07167 12.7267 5.78434 12.0427 5.57301 11.2633L5.50501 11H5.50634ZM13.3097 11H11.495C11.279 11.89 10.967 12.6667 10.5797 13.274C11.6376 12.8556 12.5456 12.1294 13.1863 11.1893L13.3097 11ZM5.22901 6.66667H2.99034L2.98701 6.678C2.88406 7.11111 2.83238 7.55482 2.83301 8C2.83207 8.6831 2.95495 9.36072 3.19567 10H5.31101C5.21339 9.33783 5.16504 8.66933 5.16634 8C5.16634 7.544 5.18767 7.09733 5.22967 6.666L5.22901 6.66667ZM10.7643 6.66667H6.23501C6.11773 7.77688 6.148 8.89773 6.32501 10H10.6743C10.8513 8.89773 10.8816 7.77688 10.7643 6.66667ZM14.0097 6.66667H11.771C11.8123 7.098 11.8343 7.54467 11.8343 8C11.8354 8.66934 11.7868 9.33785 11.689 10H13.8043C14.0452 9.36075 14.1683 8.68314 14.1677 8C14.1677 7.54067 14.113 7.094 14.0097 6.66667ZM6.41967 2.72533L6.40434 2.73067C5.03971 3.2758 3.93904 4.32797 3.33301 5.66667H5.36501C5.57434 4.49867 5.93834 3.48133 6.42034 2.72667L6.41967 2.72533ZM8.49967 2.33133L8.42167 2.33467C7.57967 2.41333 6.76434 3.74733 6.38634 5.66667H10.6143C10.237 3.75333 9.42567 2.42067 8.58434 2.33667L8.49967 2.33133ZM10.5797 2.72467L10.6503 2.84133C11.097 3.58267 11.435 4.556 11.6337 5.666H13.6657C13.0869 4.38872 12.0568 3.37022 10.773 2.806L10.5797 2.72467Z" fill="white"/>
</svg>
