<svg width="21" height="22" viewBox="0 0 21 22" fill="none" xmlns="http://www.w3.org/2000/svg">
<path d="M10.8346 1.9502C9.04864 1.9502 7.30279 2.47625 5.81782 3.46184C4.33285 4.44743 3.17546 5.84829 2.49201 7.48727C1.80855 9.12625 1.62973 10.9297 1.97815 12.6697C2.32658 14.4096 3.18659 16.0078 4.44946 17.2622C5.71232 18.5167 7.3213 19.3709 9.07294 19.717C10.8246 20.0631 12.6402 19.8855 14.2902 19.2066C15.9402 18.5277 17.3505 17.3781 18.3427 15.903C19.3349 14.428 19.8645 12.6938 19.8645 10.9198C19.8645 8.5409 18.9132 6.25945 17.2197 4.57733C15.5263 2.8952 13.2295 1.9502 10.8346 1.9502V1.9502ZM7.65718 3.8226L8.67869 4.83728C8.79145 4.94795 8.88096 5.07977 8.94199 5.22509C9.00303 5.37041 9.03439 5.52633 9.03424 5.68379V7.18619C9.03513 7.34326 9.00466 7.49894 8.9446 7.64424C8.88454 7.78954 8.79608 7.92157 8.68433 8.0327L7.33549 9.37253C7.11233 9.593 6.93515 9.85503 6.81409 10.1436C6.69304 10.4322 6.63049 10.7417 6.63002 11.0543V11.9457C6.63161 12.2074 6.54699 12.4625 6.38905 12.672C6.23112 12.8815 6.00853 13.034 5.75525 13.1061L3.54855 13.7228C2.81723 11.8646 2.83629 9.7978 3.60177 7.95329C4.36726 6.10878 5.82005 4.62901 7.65718 3.8226V3.8226ZM4.06213 14.844L6.06001 14.2834C6.56134 14.1383 7.00202 13.8361 7.31631 13.4219C7.63059 13.0077 7.80163 12.5036 7.80391 11.9849V11.0655C7.80377 10.9081 7.83513 10.7522 7.89617 10.6068C7.9572 10.4615 8.04671 10.3297 8.15947 10.219L9.50832 8.8792C9.73148 8.65873 9.90866 8.3967 10.0297 8.10811C10.1508 7.81952 10.2133 7.51004 10.2138 7.1974V5.68379C10.2133 5.37115 10.1508 5.06167 10.0297 4.77308C9.90866 4.48449 9.73148 4.22246 9.50832 4.00199L8.92137 3.39094C9.936 3.13028 10.9932 3.07586 12.0295 3.23095C13.0658 3.38604 14.0599 3.74743 14.9522 4.29346C15.8445 4.83949 16.6166 5.55891 17.2221 6.40856C17.8277 7.25821 18.2542 8.22059 18.4762 9.23799L16.4783 9.57435C15.7143 9.69933 15.0287 10.1132 14.5651 10.7292L13.837 11.6878C13.6265 11.9663 13.4812 12.288 13.4119 12.6294C13.3426 12.9708 13.3509 13.3233 13.4363 13.6611C13.518 13.9794 13.4868 14.3159 13.348 14.614C13.2093 14.9121 12.9714 15.1537 12.6744 15.2981C12.3084 15.4696 11.9878 15.7237 11.7379 16.04C11.4881 16.3562 11.316 16.7261 11.2353 17.12L10.9192 18.6841C9.53809 18.6952 8.17813 18.3464 6.97497 17.6727C5.77181 16.9989 4.76749 16.0236 4.06213 14.844V14.844ZM12.1778 18.5888L12.4205 17.3779C12.4668 17.1617 12.5641 16.9595 12.7044 16.788C12.8447 16.6165 13.024 16.4805 13.2275 16.3912C13.7704 16.1256 14.2047 15.6825 14.4576 15.1364C14.7104 14.5902 14.7663 13.9743 14.6159 13.392C14.5728 13.227 14.5682 13.0543 14.6025 12.8872C14.6367 12.7201 14.7088 12.563 14.8134 12.4278L15.5414 11.4692C15.8148 11.103 16.2185 10.8544 16.6702 10.774L18.606 10.4545C18.7038 12.3477 18.1085 14.2121 16.93 15.7033C15.7515 17.1944 14.0694 18.2114 12.1947 18.5664L12.1778 18.5888Z" fill="white"/>
</svg>
