<svg width="48" height="56" viewBox="0 0 48 56" fill="none" xmlns="http://www.w3.org/2000/svg">
<ellipse cx="23.9996" cy="23.9751" rx="23.4273" ry="23.4273" fill="#FDEEEC"/>
<g clip-path="url(#clip0_1262_681)">
<path d="M24.6798 38.976H23.321C23.1113 38.976 22.9102 38.8927 22.7619 38.7444C22.6137 38.5961 22.5304 38.395 22.5304 38.1853C22.5304 37.9756 22.6137 37.7745 22.7619 37.6262C22.9102 37.4779 23.1113 37.3946 23.321 37.3946H26.4486C26.6226 37.4115 26.7981 37.3918 26.9641 37.3368C27.13 37.2818 27.2826 37.1927 27.412 37.0752C27.5414 36.9577 27.6448 36.8145 27.7156 36.6546C27.7864 36.4948 27.823 36.3219 27.823 36.1471C27.823 35.9723 27.7864 35.7995 27.7156 35.6396C27.6448 35.4798 27.5414 35.3366 27.412 35.2191C27.2826 35.1016 27.13 35.0125 26.9641 34.9575C26.7981 34.9025 26.6226 34.8828 26.4486 34.8996H25.2772V34.2554C25.2471 33.9454 25.1027 33.6577 24.8721 33.4483C24.6415 33.239 24.3412 33.123 24.0297 33.123C23.7182 33.123 23.4179 33.239 23.1873 33.4483C22.9567 33.6577 22.8123 33.9454 22.7822 34.2554V34.9582C21.9712 35.0968 21.2419 35.535 20.7389 36.1861C20.236 36.8372 19.9961 37.6536 20.0668 38.4733C20.1376 39.293 20.5139 40.0561 21.121 40.6114C21.7281 41.1667 22.5217 41.4735 23.3445 41.471H24.7032C24.9129 41.471 25.114 41.5543 25.2623 41.7026C25.4106 41.8509 25.4939 42.052 25.4939 42.2617C25.4939 42.4714 25.4106 42.6725 25.2623 42.8208C25.114 42.969 24.9129 43.0523 24.7032 43.0523H21.5523C21.3783 43.0355 21.2027 43.0552 21.0368 43.1102C20.8709 43.1652 20.7183 43.2543 20.5889 43.3718C20.4594 43.4893 20.356 43.6325 20.2852 43.7923C20.2144 43.9522 20.1779 44.125 20.1779 44.2998C20.1779 44.4746 20.2144 44.6475 20.2852 44.8073C20.356 44.9672 20.4594 45.1104 20.5889 45.2279C20.7183 45.3454 20.8709 45.4345 21.0368 45.4895C21.2027 45.5445 21.3783 45.5642 21.5523 45.5473H22.7236V46.1916C22.7537 46.5016 22.8981 46.7893 23.1287 46.9986C23.3594 47.208 23.6597 47.3239 23.9711 47.3239C24.2826 47.3239 24.5829 47.208 24.8135 46.9986C25.0441 46.7893 25.1886 46.5016 25.2186 46.1916V45.4888C26.0296 45.3502 26.7589 44.9119 27.2619 44.2608C27.7649 43.6097 28.0048 42.7934 27.934 41.9737C27.8632 41.154 27.487 40.3908 26.8799 39.8356C26.2727 39.2803 25.4791 38.9735 24.6564 38.976H24.6798Z" fill="#181A1F"/>
<path d="M28.7551 26.0326L27.9586 23.2916C27.8077 22.7836 27.4997 22.3364 27.0788 22.0144C26.6578 21.6924 26.1457 21.5121 25.6159 21.4994H25.2996C25.2986 21.3344 25.3301 21.1708 25.3924 21.0181C25.4547 20.8653 25.5466 20.7263 25.6627 20.6092C25.7705 20.4841 25.9062 20.386 26.0587 20.3229C26.2113 20.2599 26.3766 20.2335 26.5413 20.246H29.0246C29.6905 20.2491 30.328 20.5158 30.7978 20.9878C31.2676 21.4598 31.5313 22.0986 31.5313 22.7645C31.5614 23.0745 31.7058 23.3622 31.9364 23.5715C32.167 23.7808 32.4673 23.8968 32.7788 23.8968C33.0902 23.8968 33.3905 23.7808 33.6212 23.5715C33.8518 23.3622 33.9962 23.0745 34.0263 22.7645C34.0278 22.1036 33.899 21.4489 33.6471 20.8378C33.3953 20.2268 33.0254 19.6714 32.5586 19.2036C32.0918 18.7357 31.5373 18.3645 30.9269 18.1112C30.3164 17.858 29.662 17.7276 29.0011 17.7276H26.4944C26.003 17.725 25.516 17.8199 25.0616 18.0069C24.6071 18.1939 24.1943 18.4692 23.8471 18.817C23.1431 19.5229 22.7472 20.4789 22.746 21.476H22.4298C21.9 21.4887 21.3878 21.669 20.9669 21.991C20.546 22.313 20.2379 22.7601 20.087 23.2682L19.2905 26.0091C15.9196 27.1391 13.0604 29.431 11.2239 32.4752C9.38742 35.5194 8.69338 39.1175 9.26583 42.6264C9.83827 46.1352 11.6399 49.3262 14.3487 51.6289C17.0575 53.9315 20.4969 55.1959 24.0521 55.1959C27.6074 55.1959 31.0468 53.9315 33.7555 51.6289C36.4643 49.3262 38.266 46.1352 38.8384 42.6264C39.4108 39.1175 38.7168 35.5194 36.8803 32.4752C35.0438 29.431 32.1846 27.1391 28.8137 26.0091L28.7551 26.0326ZM22.4298 23.9944H25.5573L26.0727 25.7632H21.9261L22.4298 23.9944ZM23.9994 52.7163C21.0085 52.6983 18.1233 51.6074 15.8688 49.6419C13.6143 47.6764 12.1401 44.967 11.7146 42.0064C11.289 39.0459 11.9402 36.0309 13.5499 33.5099C15.1595 30.989 17.6205 29.1296 20.4853 28.2699H27.5135C30.3783 29.1296 32.8393 30.989 34.4489 33.5099C36.0586 36.0309 36.7098 39.0459 36.2842 42.0064C35.8587 44.967 34.3845 47.6764 32.13 49.6419C29.8755 51.6074 26.9903 52.6983 23.9994 52.7163Z" fill="#181A1F"/>
<path d="M34.3543 26.126L35.5959 27.3793C35.8323 27.6104 36.1497 27.7398 36.4803 27.7398C36.8109 27.7398 37.1283 27.6104 37.3647 27.3793C37.5986 27.1444 37.7299 26.8264 37.7299 26.4949C37.7299 26.1635 37.5986 25.8455 37.3647 25.6106L36.123 24.3689C35.8838 24.159 35.5736 24.0479 35.2555 24.0583C34.9374 24.0686 34.6351 24.1997 34.4101 24.4247C34.185 24.6498 34.054 24.952 34.0436 25.2702C34.0333 25.5883 34.1443 25.8984 34.3543 26.1377V26.126Z" fill="#181A1F"/>
<path d="M35.865 23.3734C36.0281 23.3736 36.1896 23.3416 36.3404 23.2793C36.4911 23.217 36.6281 23.1256 36.7435 23.0103L37.9969 21.7569C38.1258 21.6439 38.2301 21.5055 38.3033 21.3505C38.3766 21.1955 38.4173 21.0271 38.4229 20.8557C38.4285 20.6843 38.3988 20.5136 38.3358 20.3542C38.2728 20.1947 38.1777 20.0499 38.0564 19.9286C37.9352 19.8074 37.7904 19.7123 37.6309 19.6493C37.4714 19.5862 37.3007 19.5566 37.1294 19.5622C36.958 19.5678 36.7896 19.6085 36.6346 19.6817C36.4796 19.755 36.3412 19.8593 36.2281 19.9882L34.9748 21.2415C34.8025 21.4167 34.6856 21.6387 34.6385 21.8798C34.5914 22.1209 34.6162 22.3706 34.7098 22.5977C34.8034 22.8248 34.9617 23.0195 35.165 23.1574C35.3683 23.2953 35.6076 23.3704 35.8533 23.3734H35.865Z" fill="#181A1F"/>
</g>
<defs>
<clipPath id="clip0_1262_681">
<rect width="37.4837" height="37.4837" fill="white" transform="translate(5.25781 17.7275)"/>
</clipPath>
</defs>
</svg>
