<svg width="46" height="46" viewBox="0 0 46 46" fill="none" xmlns="http://www.w3.org/2000/svg">
<circle opacity="0.2" cx="23.1719" cy="23.2498" r="22.5" fill="white"/>
<g clip-path="url(#clip0_1274_3527)">
<path d="M23.9215 38.9996C18.8422 38.911 12.3748 27.7285 12.3748 19.0463C12.3412 17.5207 12.6169 16.0042 13.1853 14.5881C13.7537 13.172 14.603 11.8857 15.6819 10.8067C16.7609 9.72772 18.0472 8.87844 19.4633 8.31005C20.8794 7.74167 22.396 7.46597 23.9215 7.49957C25.4471 7.46597 26.9636 7.74167 28.3797 8.31005C29.7958 8.87844 31.0821 9.72772 32.1611 10.8067C33.2401 11.8857 34.0894 13.172 34.6578 14.5881C35.2261 16.0042 35.5018 17.5207 35.4682 19.0463C35.4682 25.7007 31.8064 33.2803 28.2626 36.765C26.7565 38.2514 25.3095 38.9996 23.9215 38.9996ZM23.9215 9.59629C22.6691 9.55374 21.4212 9.76908 20.2554 10.2289C19.0897 10.6888 18.0309 11.3833 17.1447 12.2695C16.2586 13.1556 15.564 14.2144 15.1042 15.3802C14.6443 16.546 14.429 17.7938 14.4715 19.0463C14.4715 27.3643 20.6436 36.8438 23.9412 36.893C25.0555 36.7079 26.0675 36.1321 26.7959 35.2688C29.9557 32.1582 33.3715 25.0707 33.3715 19.0463C33.4141 17.7938 33.1987 16.546 32.7389 15.3802C32.279 14.2144 31.5845 13.1556 30.6983 12.2695C29.8122 11.3833 28.7534 10.6888 27.5876 10.2289C26.4218 9.76908 25.174 9.55374 23.9215 9.59629Z" fill="white"/>
<path d="M23.9215 24.303C22.8838 24.303 21.8694 23.9953 21.0066 23.4188C20.1438 22.8423 19.4713 22.0228 19.0742 21.0641C18.6771 20.1054 18.5732 19.0505 18.7756 18.0327C18.9781 17.0149 19.4778 16.0801 20.2115 15.3463C20.9453 14.6125 21.8802 14.1128 22.8979 13.9104C23.9157 13.7079 24.9706 13.8118 25.9294 14.209C26.8881 14.6061 27.7075 15.2786 28.284 16.1414C28.8605 17.0042 29.1682 18.0186 29.1682 19.0563C29.1656 20.447 28.612 21.78 27.6286 22.7634C26.6453 23.7468 25.3122 24.3004 23.9215 24.303ZM23.9215 15.9063C23.2985 15.9063 22.6895 16.091 22.1715 16.4372C21.6535 16.7833 21.2497 17.2753 21.0113 17.8508C20.7729 18.4264 20.7105 19.0598 20.8321 19.6708C20.9536 20.2819 21.2536 20.8431 21.6941 21.2837C22.1347 21.7242 22.696 22.0242 23.307 22.1458C23.918 22.2673 24.5514 22.2049 25.127 21.9665C25.7026 21.7281 26.1945 21.3244 26.5407 20.8063C26.8868 20.2883 27.0715 19.6793 27.0715 19.0563C27.0728 18.6418 26.9923 18.2311 26.8346 17.8478C26.6769 17.4645 26.445 17.1161 26.1524 16.8225C25.8598 16.529 25.5121 16.2961 25.1293 16.1372C24.7464 15.9782 24.336 15.8964 23.9215 15.8964V15.9063Z" fill="white"/>
</g>
<defs>
<clipPath id="clip0_1274_3527">
<rect width="31.5" height="31.5" fill="white" transform="translate(8.17188 7.49976)"/>
</clipPath>
</defs>
</svg>
