<svg width="42" height="42" viewBox="0 0 42 42" fill="none" xmlns="http://www.w3.org/2000/svg">
<ellipse cx="20.6486" cy="20.7" rx="20.6486" ry="20.7" fill="#F6F6F6"/>
<path d="M30.176 21.0002C30.176 15.9731 26.0914 11.8242 21 11.8242C15.9359 11.8242 11.824 15.9457 11.824 21.0002C11.824 25.5893 15.2268 29.4581 19.7229 30.087C19.7277 30.0878 19.7319 30.0898 19.765 30.0929C25.2896 30.8392 30.176 26.5293 30.176 21.0002ZM29.2128 21.6517L25.2053 21.0002L29.2128 20.3487C29.2458 20.7688 29.2484 21.1996 29.2128 21.6517ZM21.6515 12.7875L21 16.7948L20.3485 12.7875C20.7686 12.7545 21.1993 12.7519 21.6515 12.7875ZM12.7872 20.3487L16.7947 21.0002L12.7872 21.6517C12.7542 21.2317 12.7517 20.8008 12.7872 20.3487ZM20.3485 29.213L21 25.2057L21.6515 29.213C21.2151 29.2473 20.7851 29.2473 20.3485 29.213ZM24.3939 28.5068C24.1901 27.2535 23.7275 24.4094 23.7014 24.2491C23.6687 24.0222 23.4735 23.8478 23.2375 23.8478C22.9786 23.8478 22.7688 24.0577 22.7688 24.3165C22.7688 24.3538 22.7689 24.3555 23.5 28.8505C23.2006 28.9461 22.8938 29.0249 22.5807 29.086L21.9004 24.9016C21.8588 24.6461 21.6182 24.4726 21.3625 24.5142C21.1915 24.542 21.0576 24.6592 21 24.8101C20.9423 24.6592 20.8085 24.5419 20.6375 24.5142C20.3818 24.4723 20.1411 24.646 20.0996 24.9016L19.4193 29.086C19.1062 29.0249 18.7993 28.9461 18.5 28.8505C19.2311 24.3555 19.2312 24.3538 19.2312 24.3165C19.2312 24.0577 19.0213 23.8478 18.7625 23.8478C18.5265 23.8478 18.3313 24.0222 18.2985 24.2491C18.2725 24.4094 17.8099 27.2535 17.6061 28.5068C15.7871 27.6811 14.3191 26.2132 13.4935 24.3942C14.7471 24.1903 17.5921 23.7276 17.7513 23.7017C17.9781 23.669 18.1525 23.4738 18.1525 23.2379C18.1525 22.979 17.9426 22.7691 17.6837 22.7691C17.6464 22.7691 17.6448 22.7692 13.1497 23.5004C13.0542 23.2009 12.9754 22.8941 12.9143 22.581L17.0986 21.9007C17.3542 21.8592 17.5276 21.6184 17.4861 21.3628C17.4583 21.192 17.3413 21.0582 17.1906 21.0004C17.3414 20.9427 17.4584 20.8087 17.4861 20.6378C17.5276 20.3823 17.3542 20.1415 17.0986 20.1L12.9143 19.4197C12.9754 19.1065 13.0542 18.7997 13.1497 18.5003C17.6448 19.2315 17.6465 19.2315 17.6837 19.2315C17.9426 19.2315 18.1525 19.0217 18.1525 18.7628C18.1525 18.5269 17.9781 18.3316 17.7513 18.2989C17.5921 18.273 14.7471 17.8103 13.4935 17.6064C14.3192 15.7875 15.7871 14.3195 17.6061 13.4939C17.8099 14.7472 18.2725 17.5913 18.2985 17.7516C18.3313 17.9785 18.5265 18.1529 18.7625 18.1529C19.0213 18.1529 19.2312 17.943 19.2312 17.6841C19.2312 17.6468 19.2311 17.6452 18.5 13.1501C18.7994 13.0545 19.1062 12.9758 19.4193 12.9147L20.0996 17.099C20.137 17.3291 20.3359 17.4927 20.5617 17.4927C20.7592 17.4927 20.9312 17.3705 20.9999 17.1906C21.0576 17.3415 21.1914 17.4587 21.3624 17.4865C21.6186 17.5284 21.8589 17.3538 21.9004 17.0991L22.5807 12.9147C22.8937 12.9758 23.2006 13.0546 23.5 13.1502C22.7688 17.6452 22.7687 17.6469 22.7687 17.6842C22.7687 17.943 22.9786 18.1529 23.2375 18.1529C23.4734 18.1529 23.6687 17.9785 23.7014 17.7516C23.7274 17.5913 24.19 14.7472 24.3939 13.494C26.2129 14.3196 27.6808 15.7875 28.5065 17.6065C27.2529 17.8104 24.4078 18.2731 24.2487 18.299C24.0218 18.3317 23.8475 18.5269 23.8475 18.7628C23.8475 19.0217 24.0573 19.2316 24.3162 19.2316C24.3535 19.2316 24.3552 19.2315 28.8502 18.5003C28.9458 18.7998 29.0246 19.1066 29.0856 19.4197L24.9013 20.1C24.6457 20.1415 24.4723 20.3823 24.5138 20.6379C24.5416 20.8087 24.6585 20.9427 24.8092 21.0004C24.6586 21.0582 24.5416 21.1921 24.5138 21.3629C24.4723 21.6184 24.6457 21.8592 24.9013 21.9008L29.0856 22.581C29.0245 22.8942 28.9458 23.201 28.8502 23.5004C24.3552 22.7693 24.3535 22.7692 24.3162 22.7692C24.0573 22.7692 23.8475 22.9791 23.8475 23.2379C23.8475 23.4738 24.0218 23.6691 24.2487 23.7018C24.4078 23.7277 27.2529 24.1904 28.5065 24.3943C27.6808 26.2132 26.2129 27.6811 24.3939 28.5068Z" fill="#024273"/>
<path d="M29.4853 12.5147C27.2188 10.2482 24.2053 9 21 9C17.7947 9 14.7812 10.2482 12.5147 12.5147C10.2482 14.7812 9 17.7947 9 21C9 24.2053 10.2482 27.2188 12.5147 29.4853C14.7812 31.7518 17.7947 33 21 33C24.2053 33 27.2188 31.7518 29.4853 29.4853C31.7518 27.2188 33 24.2053 33 21C33 17.7947 31.7518 14.7812 29.4853 12.5147ZM21 32.0625C14.9001 32.0625 9.9375 27.0999 9.9375 21C9.9375 14.9001 14.9001 9.9375 21 9.9375C27.0999 9.9375 32.0625 14.9001 32.0625 21C32.0625 27.0999 27.0999 32.0625 21 32.0625Z" fill="#024273"/>
<path d="M21.0215 25.4702C23.4899 25.4579 25.4809 23.4469 25.4686 20.9785C25.4562 18.5101 23.4452 16.519 20.9768 16.5314C18.5085 16.5437 16.5175 18.5547 16.5298 21.0231C16.5421 23.4916 18.5532 25.4826 21.0215 25.4702Z" fill="#E95440"/>
<path d="M22.1649 19.3662C21.9025 19.3662 21.6962 19.5802 21.6962 19.8349C21.6962 20.0931 21.9065 20.3036 22.1649 20.3036C22.4236 20.3036 22.6336 20.0928 22.6336 19.8349C22.6336 19.58 22.4269 19.3662 22.1649 19.3662Z" fill="#024273"/>
<path d="M22.1649 21.6963C21.9025 21.6963 21.6962 21.9103 21.6962 22.165C21.6962 22.4232 21.9065 22.6337 22.1649 22.6337C22.4236 22.6337 22.6336 22.4229 22.6336 22.165C22.6336 21.91 22.4269 21.6963 22.1649 21.6963Z" fill="#024273"/>
<path d="M19.8352 21.6963C19.5728 21.6963 19.3665 21.9103 19.3665 22.165C19.3665 22.4232 19.5768 22.6337 19.8352 22.6337C20.0939 22.6337 20.3039 22.4229 20.3039 22.165C20.3039 21.91 20.0973 21.6963 19.8352 21.6963Z" fill="#024273"/>
<path d="M19.8352 19.3662C19.5728 19.3662 19.3665 19.5802 19.3665 19.8349C19.3665 20.0931 19.5768 20.3036 19.8352 20.3036C20.0938 20.3036 20.3039 20.0928 20.3039 19.8349C20.3039 19.58 20.0972 19.3662 19.8352 19.3662Z" fill="#024273"/>
</svg>
