<svg width="48" height="55" viewBox="0 0 48 55" fill="none" xmlns="http://www.w3.org/2000/svg">
<ellipse cx="24.1676" cy="23.565" rx="23.4273" ry="23.4273" fill="#FDEEEC"/>
<g clip-path="url(#clip0_1258_738)">
<path d="M39.8325 32.2673L40.8957 30.4952H41.8113C42.4178 30.4952 42.9095 30.0035 42.9095 29.397C42.9095 28.7906 42.4178 28.2989 41.8113 28.2989H40.2739C39.8882 28.2989 39.5308 28.5013 39.3323 28.8321L38.4382 30.3222L36.9636 25.1613C36.383 23.1292 34.5014 21.71 32.3881 21.71H15.9472C13.8338 21.71 11.9523 23.1292 11.3716 25.1614L9.8971 30.3223L9.00299 28.8322C8.80451 28.5013 8.4471 28.2989 8.06135 28.2989H6.52394C5.91746 28.2989 5.42578 28.7906 5.42578 29.397C5.42578 30.0035 5.91746 30.4952 6.52394 30.4952H7.43958L8.50281 32.2673C6.70652 32.9482 5.42578 34.686 5.42578 36.7181V44.9176C5.42578 45.5241 5.91746 46.0158 6.52394 46.0158H8.42741V47.8461C8.42741 49.2589 9.57688 50.4084 10.9898 50.4084H13.9182C15.3311 50.4084 16.4805 49.2589 16.4805 47.8461V46.0158H31.8547V47.8461C31.8547 49.2589 33.0042 50.4084 34.4171 50.4084H37.3455C38.7584 50.4084 39.9079 49.2589 39.9079 47.8461V46.0158H41.8113C42.4178 46.0158 42.9095 45.5241 42.9095 44.9176V36.7181C42.9095 34.686 41.6287 32.9482 39.8325 32.2673ZM13.4835 25.7647C13.7961 24.6705 14.8092 23.9063 15.9472 23.9063H32.3881C33.526 23.9063 34.5392 24.6705 34.8518 25.7647L36.6217 31.9594H34.6727C34.1625 29.4562 31.944 27.5668 29.2924 27.5668C26.6407 27.5668 24.4223 29.4562 23.9121 31.9594H11.7135L13.4835 25.7647ZM26.186 31.9594C26.6393 30.6811 27.8607 29.7631 29.2924 29.7631C30.7241 29.7631 31.9454 30.6811 32.3987 31.9594H26.186ZM14.2842 47.8461C14.2842 48.0479 14.12 48.2121 13.9182 48.2121H10.9898C10.7879 48.2121 10.6237 48.0479 10.6237 47.8461V46.0158H14.2842V47.8461ZM20.8732 43.8195V40.7447H27.4621V43.8195H20.8732ZM37.7115 47.8461C37.7115 48.0479 37.5473 48.2121 37.3455 48.2121H34.4171C34.2152 48.2121 34.051 48.0479 34.051 47.8461V46.0158H37.7115V47.8461ZM40.7132 43.8195H29.6584V39.6465C29.6584 39.04 29.1667 38.5483 28.5603 38.5483H19.775C19.1685 38.5483 18.6769 39.04 18.6769 39.6465V43.8195H7.62209V36.7181C7.62209 35.3052 8.77157 34.1557 10.1845 34.1557H10.2531C10.255 34.1557 10.2568 34.1559 10.2587 34.1559C10.2605 34.1559 10.2623 34.1557 10.2641 34.1557H38.0712C38.073 34.1557 38.0747 34.1559 38.0766 34.1559C38.0785 34.1559 38.0803 34.1557 38.0822 34.1557H38.1508C39.5637 34.1557 40.7132 35.3052 40.7132 36.7181V43.8195Z" fill="#181A1F"/>
<path d="M35.1499 35.6934C33.3334 35.6934 31.8555 37.1713 31.8555 38.9878C31.8555 40.8044 33.3334 42.2823 35.1499 42.2823C36.9665 42.2823 38.4444 40.8044 38.4444 38.9878C38.4444 37.1713 36.9665 35.6934 35.1499 35.6934ZM35.1499 40.086C34.5444 40.086 34.0518 39.5933 34.0518 38.9878C34.0518 38.3823 34.5444 37.8897 35.1499 37.8897C35.7555 37.8897 36.2481 38.3823 36.2481 38.9878C36.2481 39.5933 35.7555 40.086 35.1499 40.086Z" fill="#181A1F"/>
<path d="M13.187 35.6934C11.3705 35.6934 9.89258 37.1713 9.89258 38.9878C9.89258 40.8044 11.3705 42.2823 13.187 42.2823C15.0036 42.2823 16.4815 40.8044 16.4815 38.9878C16.4815 37.1713 15.0036 35.6934 13.187 35.6934ZM13.187 40.086C12.5815 40.086 12.0889 39.5933 12.0889 38.9878C12.0889 38.3823 12.5815 37.8897 13.187 37.8897C13.7926 37.8897 14.2852 38.3823 14.2852 38.9878C14.2852 39.5933 13.7926 40.086 13.187 40.086Z" fill="#181A1F"/>
</g>
<defs>
<clipPath id="clip0_1258_738">
<rect width="37.4837" height="37.4837" fill="white" transform="translate(5.42578 17.3174)"/>
</clipPath>
</defs>
</svg>
