<svg width="48" height="56" viewBox="0 0 48 56" fill="none" xmlns="http://www.w3.org/2000/svg">
<ellipse cx="23.8297" cy="23.9751" rx="23.4273" ry="23.4273" fill="#FDEEEC"/>
<g clip-path="url(#clip0_1262_674)">
<path d="M23.8294 55.2108C23.1725 55.2128 22.5264 55.0433 21.9552 54.7189L15.7001 51.1228C13.596 49.9107 11.8476 48.1665 10.6305 46.0653C9.41331 43.9641 8.77019 41.5797 8.76562 39.1514V26.6529C8.77338 25.9408 8.98195 25.2453 9.36738 24.6465C9.7528 24.0476 10.2994 23.5697 10.9444 23.2677L21.1118 18.348C21.9607 17.9364 22.8919 17.7227 23.8352 17.7227C24.7786 17.7227 25.7098 17.9364 26.5587 18.348L36.7144 23.2677C37.3524 23.5772 37.8905 24.0598 38.2675 24.6605C38.6444 25.2611 38.845 25.9556 38.8463 26.6647V39.1514C38.8417 41.5797 38.1986 43.9641 36.9815 46.0653C35.7643 48.1665 34.016 49.9107 31.9118 51.1228L25.7036 54.7071C25.1333 55.0351 24.4873 55.2087 23.8294 55.2108ZM23.8294 20.2339C23.2654 20.2347 22.7088 20.3628 22.2012 20.6087L11.9869 25.5284C11.7677 25.6343 11.5838 25.8011 11.457 26.0088C11.3303 26.2166 11.2662 26.4565 11.2723 26.6998V39.1514C11.2759 41.1374 11.8016 43.0876 12.7967 44.8064C13.7917 46.5251 15.2212 47.952 16.9418 48.944L23.1968 52.5284C23.3878 52.6373 23.6038 52.6945 23.8235 52.6945C24.0433 52.6945 24.2593 52.6373 24.4502 52.5284L30.7053 48.944C32.4258 47.952 33.8553 46.5251 34.8504 44.8064C35.8455 43.0876 36.3711 41.1374 36.3747 39.1514V26.6529C36.3809 26.4097 36.3168 26.1697 36.19 25.962C36.0633 25.7542 35.8793 25.5874 35.6602 25.4816L25.4576 20.6087C24.95 20.3628 24.3934 20.2347 23.8294 20.2339Z" fill="#181A1F"/>
<path d="M22.5757 41.3888C22.4107 41.3899 22.2472 41.3583 22.0944 41.296C21.9416 41.2337 21.8027 41.1418 21.6855 41.0257L17.9723 37.2656C17.7362 37.0295 17.6035 36.7093 17.6035 36.3754C17.6035 36.0415 17.7362 35.7212 17.9723 35.4851C18.2084 35.249 18.5286 35.1164 18.8625 35.1164C19.1964 35.1164 19.5166 35.249 19.7527 35.4851L22.6577 38.437L29.2994 32.955C29.5519 32.8307 29.8388 32.795 30.1141 32.8537C30.3893 32.9124 30.6368 33.0619 30.8167 33.2783C30.9965 33.4947 31.0984 33.7654 31.1057 34.0467C31.1131 34.328 31.0256 34.6036 30.8573 34.8292L23.3723 41.1545C23.1411 41.3209 22.8601 41.4035 22.5757 41.3888Z" fill="#181A1F"/>
</g>
<defs>
<clipPath id="clip0_1262_674">
<rect width="37.4837" height="37.4837" fill="white" transform="translate(5.08789 17.7275)"/>
</clipPath>
</defs>
</svg>
