<svg width="48" height="55" viewBox="0 0 48 55" fill="none" xmlns="http://www.w3.org/2000/svg">
<ellipse cx="23.8297" cy="23.565" rx="23.4273" ry="23.4273" fill="#FDEEEC"/>
<g clip-path="url(#clip0_1258_718)">
<path d="M23.8294 54.8007C23.1725 54.8027 22.5264 54.6331 21.9552 54.3087L15.7001 50.7126C13.596 49.5005 11.8476 47.7564 10.6305 45.6551C9.41331 43.5539 8.77019 41.1695 8.76562 38.7413V26.2428C8.77338 25.5307 8.98195 24.8352 9.36738 24.2363C9.7528 23.6375 10.2994 23.1596 10.9444 22.8575L21.1118 17.9378C21.9607 17.5263 22.8919 17.3125 23.8352 17.3125C24.7786 17.3125 25.7098 17.5263 26.5587 17.9378L36.7144 22.8575C37.3524 23.1671 37.8905 23.6497 38.2675 24.2503C38.6444 24.8509 38.845 25.5454 38.8463 26.2545V38.7413C38.8417 41.1695 38.1986 43.5539 36.9815 45.6551C35.7643 47.7564 34.016 49.5005 31.9118 50.7126L25.7036 54.297C25.1333 54.625 24.4873 54.7986 23.8294 54.8007ZM23.8294 19.8237C23.2654 19.8246 22.7088 19.9527 22.2012 20.1985L11.9869 25.1183C11.7677 25.2241 11.5838 25.3909 11.457 25.5987C11.3303 25.8064 11.2662 26.0464 11.2723 26.2896V38.7413C11.2759 40.7273 11.8016 42.6775 12.7967 44.3962C13.7917 46.115 15.2212 47.5419 16.9418 48.5339L23.1968 52.1182C23.3878 52.2271 23.6038 52.2844 23.8235 52.2844C24.0433 52.2844 24.2593 52.2271 24.4502 52.1182L30.7053 48.5339C32.4258 47.5419 33.8553 46.115 34.8504 44.3962C35.8455 42.6775 36.3711 40.7273 36.3747 38.7413V26.2428C36.3809 25.9995 36.3168 25.7596 36.19 25.5518C36.0633 25.3441 35.8793 25.1773 35.6602 25.0714L25.4576 20.1985C24.95 19.9527 24.3934 19.8246 23.8294 19.8237Z" fill="#181A1F"/>
<path d="M22.5757 40.9796C22.4107 40.9807 22.2472 40.9491 22.0944 40.8868C21.9416 40.8245 21.8027 40.7327 21.6855 40.6165L17.9723 36.8564C17.7362 36.6203 17.6035 36.3001 17.6035 35.9662C17.6035 35.6323 17.7362 35.3121 17.9723 35.076C18.2084 34.8398 18.5286 34.7072 18.8625 34.7072C19.1964 34.7072 19.5166 34.8398 19.7527 35.076L22.6577 38.0278L29.2994 32.5458C29.5519 32.4215 29.8388 32.3859 30.1141 32.4445C30.3893 32.5032 30.6368 32.6527 30.8167 32.8692C30.9965 33.0856 31.0984 33.3562 31.1057 33.6375C31.1131 33.9188 31.0256 34.1945 30.8573 34.42L23.3723 40.7454C23.1411 40.9117 22.8601 40.9943 22.5757 40.9796Z" fill="#181A1F"/>
</g>
<defs>
<clipPath id="clip0_1258_718">
<rect width="37.4837" height="37.4837" fill="white" transform="translate(5.08789 17.3174)"/>
</clipPath>
</defs>
</svg>
