<svg width="40" height="37" viewBox="0 0 40 37" fill="none" xmlns="http://www.w3.org/2000/svg">
<ellipse cx="20" cy="18.5" rx="20" ry="18.5" fill="#F6F6F6"/>
<g clip-path="url(#clip0_954_6713)">
<path d="M22.2748 13.1049C22.0248 12.8746 21.6864 12.7452 21.3337 12.7451H18.6659C18.4904 12.7442 18.3165 12.7754 18.1542 12.8371C17.9919 12.8988 17.8444 12.9896 17.7204 13.1044C17.5963 13.2192 17.4981 13.3556 17.4314 13.5057C17.3648 13.6558 17.331 13.8167 17.332 13.979V15.6229H18.2225V13.979C18.222 13.925 18.2331 13.8715 18.2552 13.8215C18.2773 13.7715 18.31 13.7261 18.3512 13.6879C18.3925 13.6498 18.4416 13.6196 18.4956 13.5991C18.5496 13.5787 18.6075 13.5684 18.6659 13.5689H21.3337C21.3915 13.5684 21.4488 13.5787 21.5022 13.5991C21.5557 13.6194 21.6041 13.6496 21.6448 13.6876C21.6869 13.7254 21.7203 13.7707 21.7431 13.8208C21.7658 13.8709 21.7773 13.9247 21.777 13.979V15.6229H22.6675V13.979C22.6666 13.6511 22.5254 13.3368 22.2748 13.1049Z" fill="black"/>
<path fill-rule="evenodd" clip-rule="evenodd" d="M23.6086 16.8021C23.3587 16.5718 23.0203 16.4425 22.6675 16.4424H17.332C17.1565 16.4414 16.9826 16.4727 16.8203 16.5344C16.658 16.596 16.5105 16.6869 16.3865 16.8017C16.2624 16.9164 16.1642 17.0528 16.0975 17.203C16.0308 17.3531 15.997 17.514 15.9981 17.6763V23.0217C15.9981 23.349 16.1386 23.6628 16.3888 23.8942C16.6389 24.1256 16.9782 24.2556 17.332 24.2556H22.6675C23.0213 24.2556 23.3606 24.1256 23.6107 23.8942C23.8609 23.6628 24.0014 23.349 24.0014 23.0217V17.6763C24.0005 17.3483 23.8593 17.0341 23.6086 16.8021ZM18.6658 22.6116H17.7792V18.0899H18.6697L18.6658 22.6116ZM20.4431 22.6116H19.5564V18.0899H20.447L20.4431 22.6116ZM22.2203 22.6116H21.3336V18.0899H22.2242L22.2203 22.6116Z" fill="black"/>
</g>
<defs>
<clipPath id="clip0_954_6713">
<rect width="14" height="12.95" fill="white" transform="translate(12.9998 12.0254)"/>
</clipPath>
</defs>
</svg>
