<svg width="46" height="54" viewBox="0 0 46 54" fill="none" xmlns="http://www.w3.org/2000/svg">
<circle cx="23.168" cy="23.0479" r="22.5" fill="#FDEEEC"/>
<g clip-path="url(#clip0_1262_728)">
<path d="M23.821 37.4552H22.516C22.3146 37.4552 22.1214 37.3752 21.979 37.2328C21.8366 37.0904 21.7566 36.8973 21.7566 36.6959C21.7566 36.4945 21.8366 36.3013 21.979 36.1589C22.1214 36.0165 22.3146 35.9365 22.516 35.9365H25.5197C25.6868 35.9527 25.8554 35.9338 26.0148 35.881C26.1741 35.8281 26.3207 35.7425 26.445 35.6297C26.5693 35.5169 26.6686 35.3793 26.7366 35.2258C26.8046 35.0723 26.8397 34.9063 26.8397 34.7384C26.8397 34.5705 26.8046 34.4045 26.7366 34.251C26.6686 34.0975 26.5693 33.9599 26.445 33.847C26.3207 33.7342 26.1741 33.6486 26.0148 33.5958C25.8554 33.543 25.6868 33.524 25.5197 33.5402H24.3947V32.9215C24.3658 32.6238 24.2271 32.3475 24.0056 32.1464C23.7841 31.9454 23.4957 31.834 23.1966 31.834C22.8974 31.834 22.609 31.9454 22.3875 32.1464C22.166 32.3475 22.0273 32.6238 21.9985 32.9215V33.5965C21.2196 33.7296 20.5191 34.1505 20.0361 34.7758C19.553 35.4012 19.3226 36.1852 19.3906 36.9724C19.4585 37.7597 19.8199 38.4926 20.403 39.0259C20.9861 39.5592 21.7483 39.8539 22.5385 39.8515H23.8435C24.0449 39.8515 24.238 39.9315 24.3804 40.0739C24.5228 40.2163 24.6028 40.4095 24.6028 40.6109C24.6028 40.8123 24.5228 41.0054 24.3804 41.1478C24.238 41.2902 24.0449 41.3703 23.8435 41.3703H20.8172C20.6501 41.354 20.4815 41.373 20.3221 41.4258C20.1628 41.4786 20.0162 41.5642 19.8919 41.677C19.7676 41.7899 19.6683 41.9275 19.6003 42.081C19.5323 42.2345 19.4972 42.4005 19.4972 42.5684C19.4972 42.7363 19.5323 42.9023 19.6003 43.0558C19.6683 43.2093 19.7676 43.3469 19.8919 43.4597C20.0162 43.5725 20.1628 43.6581 20.3221 43.711C20.4815 43.7638 20.6501 43.7827 20.8172 43.7665H21.9422V44.3852C21.9711 44.683 22.1098 44.9593 22.3313 45.1603C22.5528 45.3614 22.8412 45.4728 23.1403 45.4728C23.4395 45.4728 23.7279 45.3614 23.9494 45.1603C24.1709 44.9593 24.3096 44.683 24.3385 44.3852V43.7102C25.1173 43.5772 25.8178 43.1562 26.3008 42.5309C26.7839 41.9056 27.0143 41.1215 26.9463 40.3343C26.8784 39.5471 26.517 38.8141 25.9339 38.2808C25.3508 37.7475 24.5886 37.4529 23.7985 37.4552H23.821Z" fill="#181A1F"/>
<path d="M27.7357 25.0242L26.9707 22.3917C26.8258 21.9037 26.53 21.4743 26.1257 21.1651C25.7214 20.8558 25.2296 20.6826 24.7207 20.6704H24.417C24.416 20.5119 24.4463 20.3549 24.5061 20.2081C24.566 20.0614 24.6542 19.9279 24.7657 19.8154C24.8692 19.6953 24.9995 19.6011 25.1461 19.5405C25.2926 19.48 25.4514 19.4546 25.6095 19.4667H27.9945C28.634 19.4696 29.2464 19.7258 29.6975 20.1791C30.1487 20.6323 30.402 21.2459 30.402 21.8854C30.4309 22.1831 30.5696 22.4594 30.7911 22.6605C31.0126 22.8615 31.301 22.9729 31.6001 22.9729C31.8992 22.9729 32.1877 22.8615 32.4091 22.6605C32.6306 22.4594 32.7694 22.1831 32.7982 21.8854C32.7997 21.2507 32.676 20.6219 32.4341 20.035C32.1922 19.4482 31.8369 18.9148 31.3886 18.4655C30.9403 18.0161 30.4078 17.6596 29.8215 17.4164C29.2352 17.1731 28.6067 17.0479 27.972 17.0479H25.5645C25.0925 17.0454 24.6248 17.1366 24.1884 17.3162C23.7519 17.4958 23.3555 17.7602 23.022 18.0942C22.3458 18.7722 21.9656 19.6903 21.9645 20.6479H21.6607C21.1519 20.6601 20.66 20.8333 20.2558 21.1426C19.8515 21.4518 19.5557 21.8812 19.4107 22.3692L18.6457 25.0017C15.4083 26.0869 12.6622 28.2881 10.8984 31.2118C9.13464 34.1355 8.46807 37.5911 9.01785 40.9611C9.56764 44.3311 11.298 47.3957 13.8995 49.6073C16.5011 51.8188 19.8043 53.0331 23.2189 53.0331C26.6334 53.0331 29.9366 51.8188 32.5382 49.6073C35.1398 47.3957 36.8701 44.3311 37.4199 40.9611C37.9697 37.5911 37.3031 34.1355 35.5393 31.2118C33.7755 28.2881 31.0295 26.0869 27.792 25.0017L27.7357 25.0242ZM21.6607 23.0667H24.6645L25.1595 24.7654H21.177L21.6607 23.0667ZM23.1682 50.6517C20.2957 50.6344 17.5247 49.5867 15.3594 47.699C13.1942 45.8113 11.7784 43.2091 11.3697 40.3657C10.9609 37.5223 11.5864 34.6267 13.1323 32.2055C14.6782 29.7844 17.0418 27.9986 19.7932 27.1729H26.5432C29.2946 27.9986 31.6583 29.7844 33.2042 32.2055C34.7501 34.6267 35.3755 37.5223 34.9668 40.3657C34.5581 43.2091 33.1423 45.8113 30.977 47.699C28.8117 49.5867 26.0408 50.6344 23.1682 50.6517Z" fill="#181A1F"/>
<path d="M33.1134 25.1144L34.3059 26.3182C34.5329 26.5401 34.8378 26.6644 35.1553 26.6644C35.4728 26.6644 35.7777 26.5401 36.0047 26.3182C36.2293 26.0926 36.3554 25.7872 36.3554 25.4688C36.3554 25.1504 36.2293 24.845 36.0047 24.6194L34.8122 23.4269C34.5824 23.2253 34.2845 23.1186 33.979 23.1286C33.6735 23.1385 33.3832 23.2643 33.167 23.4805C32.9509 23.6967 32.825 23.987 32.8151 24.2925C32.8051 24.598 32.9118 24.8959 33.1134 25.1257V25.1144Z" fill="#181A1F"/>
<path d="M34.5636 22.4706C34.7202 22.4707 34.8754 22.44 35.0201 22.3802C35.1649 22.3203 35.2965 22.2325 35.4073 22.1218L36.6111 20.9181C36.7349 20.8095 36.835 20.6766 36.9054 20.5277C36.9758 20.3788 37.0148 20.2171 37.0202 20.0525C37.0256 19.8879 36.9971 19.724 36.9366 19.5708C36.876 19.4177 36.7847 19.2786 36.6683 19.1621C36.5518 19.0457 36.4127 18.9544 36.2596 18.8938C36.1064 18.8333 35.9425 18.8048 35.7779 18.8102C35.6133 18.8156 35.4516 18.8546 35.3027 18.925C35.1538 18.9954 35.0209 19.0956 34.9123 19.2193L33.7086 20.4231C33.5432 20.5914 33.4309 20.8045 33.3856 21.0361C33.3404 21.2677 33.3642 21.5074 33.4541 21.7256C33.544 21.9437 33.696 22.1306 33.8913 22.2631C34.0865 22.3956 34.3164 22.4677 34.5523 22.4706H34.5636Z" fill="#181A1F"/>
</g>
<defs>
<clipPath id="clip0_1262_728">
<rect width="36" height="36" fill="white" transform="translate(5.16797 17.0479)"/>
</clipPath>
</defs>
</svg>
