<svg width="46" height="45" viewBox="0 0 46 45" fill="none" xmlns="http://www.w3.org/2000/svg">
<circle opacity="0.2" cx="23.4219" cy="22.4998" r="22.5" fill="white"/>
<g clip-path="url(#clip0_1274_3539)">
<path d="M32.5686 38.8499H15.7752C14.8092 38.8512 13.8524 38.6619 12.9597 38.2928C12.0669 37.9237 11.2558 37.3821 10.5727 36.6991C9.88964 36.016 9.34806 35.2049 8.97898 34.3121C8.6099 33.4194 8.42059 32.4626 8.42188 31.4966V21.0032C8.42059 20.0372 8.6099 19.0804 8.97898 18.1877C9.34806 17.295 9.88964 16.4838 10.5727 15.8007C11.2558 15.1177 12.0669 14.5761 12.9597 14.207C13.8524 13.8379 14.8092 13.6486 15.7752 13.6499H32.5686C33.5346 13.6486 34.4914 13.8379 35.3841 14.207C36.2768 14.5761 37.088 15.1177 37.771 15.8007C38.4541 16.4838 38.9957 17.295 39.3648 18.1877C39.7339 19.0804 39.9232 20.0372 39.9219 21.0032V31.4966C39.9232 32.4626 39.7339 33.4194 39.3648 34.3121C38.9957 35.2049 38.4541 36.016 37.771 36.6991C37.088 37.3821 36.2768 37.9237 35.3841 38.2928C34.4914 38.6619 33.5346 38.8512 32.5686 38.8499ZM15.7752 15.7466C14.3836 15.7466 13.0491 16.2994 12.0652 17.2834C11.0812 18.2673 10.5284 19.6018 10.5284 20.9933V31.4966C10.5284 32.8881 11.0812 34.2227 12.0652 35.2066C13.0491 36.1906 14.3836 36.7433 15.7752 36.7433H32.5686C33.9601 36.7433 35.2946 36.1906 36.2786 35.2066C37.2625 34.2227 37.8153 32.8881 37.8153 31.4966V21.0032C37.8153 19.6117 37.2625 18.2771 36.2786 17.2932C35.2946 16.3092 33.9601 15.7565 32.5686 15.7565L15.7752 15.7466Z" fill="white"/>
<path d="M24.1722 25.7968C22.2074 25.7941 20.276 25.2892 18.5612 24.3301L14.2103 21.9184C14.0658 21.8688 13.9339 21.7884 13.8236 21.6827C13.7133 21.577 13.6273 21.4486 13.5716 21.3064C13.5159 21.1642 13.4918 21.0115 13.5009 20.8591C13.5101 20.7066 13.5523 20.5579 13.6246 20.4234C13.6969 20.2889 13.7977 20.1717 13.9198 20.08C14.0419 19.9882 14.1825 19.9242 14.3319 19.8922C14.4813 19.8603 14.6358 19.8612 14.7848 19.8949C14.9338 19.9286 15.0736 19.9943 15.1947 20.0874L19.5456 22.509C20.9472 23.2936 22.5266 23.7056 24.1328 23.7056C25.739 23.7056 27.3184 23.2936 28.72 22.509L33.0709 20.0874C33.192 19.9943 33.3318 19.9286 33.4808 19.8949C33.6298 19.8612 33.7843 19.8603 33.9337 19.8922C34.083 19.9242 34.2237 19.9882 34.3458 20.08C34.4679 20.1717 34.5686 20.2889 34.641 20.4234C34.7133 20.5579 34.7555 20.7066 34.7647 20.8591C34.7738 21.0115 34.7497 21.1642 34.694 21.3064C34.6383 21.4486 34.5523 21.577 34.442 21.6827C34.3317 21.7884 34.1998 21.8688 34.0553 21.9184L29.7831 24.3301C28.0684 25.2892 26.1369 25.7941 24.1722 25.7968Z" fill="white"/>
</g>
<defs>
<clipPath id="clip0_1274_3539">
<rect width="31.5" height="31.5" fill="white" transform="translate(8.42188 10.4998)"/>
</clipPath>
</defs>
</svg>
