<svg width="42" height="42" viewBox="0 0 42 42" fill="none" xmlns="http://www.w3.org/2000/svg">
<ellipse cx="20.6486" cy="20.7" rx="20.6486" ry="20.7" fill="#F6F6F6"/>
<path d="M26.3029 24.5605C26.6968 24.5605 27.0162 24.2411 27.0162 23.8471C27.0162 23.4532 26.6968 23.1338 26.3029 23.1338C25.9089 23.1338 25.5895 23.4532 25.5895 23.8471C25.5895 24.2411 25.9089 24.5605 26.3029 24.5605Z" fill="#181A1F"/>
<path d="M29.1496 18.8663H27.0162V13.8863C27.0138 13.3211 26.7886 12.7798 26.3896 12.3796C26.1923 12.1808 25.9575 12.0231 25.6989 11.9155C25.4403 11.8079 25.163 11.7527 24.8829 11.7529H16.3496C15.7838 11.7529 15.2411 11.9777 14.8411 12.3778C14.441 12.7778 14.2162 13.3205 14.2162 13.8863V18.8663H12.0829C11.5171 18.8663 10.9745 19.091 10.5744 19.4911C10.1743 19.8912 9.94955 20.4338 9.94955 20.9996V28.1129C9.94955 28.6787 10.1743 29.2213 10.5744 29.6214C10.9745 30.0215 11.5171 30.2463 12.0829 30.2463H29.1496C29.7153 30.2463 30.258 30.0215 30.658 29.6214C31.0581 29.2213 31.2829 28.6787 31.2829 28.1129V20.9996C31.2829 20.4338 31.0581 19.8912 30.658 19.4911C30.258 19.091 29.7153 18.8663 29.1496 18.8663ZM15.6362 13.8863C15.638 13.6982 15.7139 13.5185 15.8475 13.3862C15.9811 13.2538 16.1615 13.1796 16.3496 13.1796H24.8829C25.0721 13.1796 25.2535 13.2548 25.3873 13.3885C25.5211 13.5223 25.5962 13.7037 25.5962 13.8929V18.8663H15.6362V13.8863ZM29.8629 28.1129C29.8629 28.3021 29.7877 28.4836 29.654 28.6173C29.5202 28.7511 29.3387 28.8263 29.1496 28.8263H12.0829C11.8937 28.8263 11.7123 28.7511 11.5785 28.6173C11.4447 28.4836 11.3696 28.3021 11.3696 28.1129V20.9996C11.3696 20.8104 11.4447 20.629 11.5785 20.4952C11.7123 20.3614 11.8937 20.2863 12.0829 20.2863H29.1496C29.3387 20.2863 29.5202 20.3614 29.654 20.4952C29.7877 20.629 29.8629 20.8104 29.8629 20.9996V28.1129Z" fill="#181A1F"/>
<path d="M14.9295 25.9805H26.3095V27.4005H14.9295V25.9805Z" fill="#181A1F"/>
</svg>
