<svg width="48" height="55" viewBox="0 0 48 55" fill="none" xmlns="http://www.w3.org/2000/svg">
<ellipse cx="23.9996" cy="23.565" rx="23.4273" ry="23.4273" fill="#FDEEEC"/>
<g clip-path="url(#clip0_1258_727)">
<path d="M24.6798 38.5658H23.321C23.1113 38.5658 22.9102 38.4825 22.7619 38.3342C22.6137 38.186 22.5304 37.9849 22.5304 37.7752C22.5304 37.5655 22.6137 37.3643 22.7619 37.2161C22.9102 37.0678 23.1113 36.9845 23.321 36.9845H26.4486C26.6226 37.0014 26.7981 36.9817 26.9641 36.9267C27.13 36.8716 27.2826 36.7825 27.412 36.665C27.5414 36.5476 27.6448 36.4043 27.7156 36.2445C27.7864 36.0846 27.823 35.9118 27.823 35.737C27.823 35.5622 27.7864 35.3893 27.7156 35.2295C27.6448 35.0697 27.5414 34.9264 27.412 34.8089C27.2826 34.6914 27.13 34.6023 26.9641 34.5473C26.7981 34.4923 26.6226 34.4726 26.4486 34.4895H25.2772V33.8452C25.2471 33.5352 25.1027 33.2475 24.8721 33.0382C24.6415 32.8289 24.3412 32.7129 24.0297 32.7129C23.7182 32.7129 23.4179 32.8289 23.1873 33.0382C22.9567 33.2475 22.8123 33.5352 22.7822 33.8452V34.548C21.9712 34.6866 21.2419 35.1249 20.7389 35.776C20.236 36.4271 19.9961 37.2434 20.0668 38.0631C20.1376 38.8828 20.5139 39.646 21.121 40.2013C21.7281 40.7565 22.5217 41.0633 23.3445 41.0608H24.7032C24.9129 41.0608 25.114 41.1441 25.2623 41.2924C25.4106 41.4407 25.4939 41.6418 25.4939 41.8515C25.4939 42.0612 25.4106 42.2623 25.2623 42.4106C25.114 42.5589 24.9129 42.6422 24.7032 42.6422H21.5523C21.3783 42.6253 21.2027 42.645 21.0368 42.7C20.8709 42.755 20.7183 42.8441 20.5889 42.9616C20.4594 43.0791 20.356 43.2224 20.2852 43.3822C20.2144 43.542 20.1779 43.7149 20.1779 43.8897C20.1779 44.0645 20.2144 44.2374 20.2852 44.3972C20.356 44.557 20.4594 44.7003 20.5889 44.8177C20.7183 44.9352 20.8709 45.0243 21.0368 45.0794C21.2027 45.1344 21.3783 45.1541 21.5523 45.1372H22.7236V45.7814C22.7537 46.0914 22.8981 46.3791 23.1287 46.5885C23.3594 46.7978 23.6597 46.9138 23.9711 46.9138C24.2826 46.9138 24.5829 46.7978 24.8135 46.5885C25.0441 46.3791 25.1886 46.0914 25.2186 45.7814V45.0786C26.0296 44.9401 26.7589 44.5018 27.2619 43.8507C27.7649 43.1996 28.0048 42.3832 27.934 41.5635C27.8632 40.7438 27.487 39.9807 26.8799 39.4254C26.2727 38.8701 25.4791 38.5633 24.6564 38.5658H24.6798Z" fill="#181A1F"/>
<path d="M28.7551 25.6224L27.9586 22.8814C27.8077 22.3734 27.4997 21.9263 27.0788 21.6043C26.6578 21.2823 26.1457 21.102 25.6159 21.0892H25.2996C25.2986 20.9242 25.3301 20.7607 25.3924 20.6079C25.4547 20.4551 25.5466 20.3162 25.6627 20.199C25.7705 20.0739 25.9062 19.9759 26.0587 19.9128C26.2113 19.8497 26.3766 19.8234 26.5413 19.8359H29.0246C29.6905 19.839 30.328 20.1057 30.7978 20.5776C31.2676 21.0496 31.5313 21.6884 31.5313 22.3543C31.5614 22.6643 31.7058 22.952 31.9364 23.1613C32.167 23.3707 32.4673 23.4866 32.7788 23.4866C33.0902 23.4866 33.3905 23.3707 33.6212 23.1613C33.8518 22.952 33.9962 22.6643 34.0263 22.3543C34.0278 21.6934 33.899 21.0387 33.6471 20.4277C33.3953 19.8166 33.0254 19.2613 32.5586 18.7934C32.0918 18.3255 31.5373 17.9543 30.9269 17.7011C30.3164 17.4478 29.662 17.3174 29.0011 17.3174H26.4944C26.003 17.3148 25.516 17.4098 25.0616 17.5968C24.6071 17.7838 24.1943 18.0591 23.8471 18.4068C23.1431 19.1128 22.7472 20.0688 22.746 21.0658H22.4298C21.9 21.0785 21.3878 21.2589 20.9669 21.5809C20.546 21.9029 20.2379 22.35 20.087 22.858L19.2905 25.599C15.9196 26.7289 13.0604 29.0208 11.2239 32.0651C9.38742 35.1093 8.69338 38.7073 9.26583 42.2162C9.83827 45.7251 11.6399 48.916 14.3487 51.2187C17.0575 53.5214 20.4969 54.7857 24.0521 54.7857C27.6074 54.7857 31.0468 53.5214 33.7555 51.2187C36.4643 48.916 38.266 45.7251 38.8384 42.2162C39.4108 38.7073 38.7168 35.1093 36.8803 32.0651C35.0438 29.0208 32.1846 26.7289 28.8137 25.599L28.7551 25.6224ZM22.4298 23.5842H25.5573L26.0727 25.353H21.9261L22.4298 23.5842ZM23.9994 52.3061C21.0085 52.2882 18.1233 51.1973 15.8688 49.2318C13.6143 47.2663 12.1401 44.5568 11.7146 41.5963C11.289 38.6357 11.9402 35.6207 13.5499 33.0998C15.1595 30.5788 17.6205 28.7194 20.4853 27.8597H27.5135C30.3783 28.7194 32.8393 30.5788 34.4489 33.0998C36.0586 35.6207 36.7098 38.6357 36.2842 41.5963C35.8587 44.5568 34.3845 47.2663 32.13 49.2318C29.8755 51.1973 26.9903 52.2882 23.9994 52.3061Z" fill="#181A1F"/>
<path d="M34.3543 25.7158L35.5959 26.9692C35.8323 27.2003 36.1497 27.3297 36.4803 27.3297C36.8109 27.3297 37.1283 27.2003 37.3647 26.9692C37.5986 26.7343 37.7299 26.4163 37.7299 26.0848C37.7299 25.7533 37.5986 25.4353 37.3647 25.2004L36.123 23.9588C35.8838 23.7488 35.5736 23.6378 35.2555 23.6481C34.9374 23.6585 34.6351 23.7895 34.4101 24.0146C34.185 24.2396 34.054 24.5419 34.0436 24.86C34.0333 25.1781 34.1443 25.4883 34.3543 25.7275V25.7158Z" fill="#181A1F"/>
<path d="M35.865 22.9643C36.0281 22.9644 36.1896 22.9324 36.3404 22.8701C36.4911 22.8078 36.6281 22.7164 36.7435 22.6011L37.9969 21.3478C38.1258 21.2347 38.2301 21.0963 38.3033 20.9413C38.3766 20.7863 38.4173 20.6179 38.4229 20.4465C38.4285 20.2751 38.3988 20.1044 38.3358 19.945C38.2728 19.7855 38.1777 19.6407 38.0564 19.5194C37.9352 19.3982 37.7904 19.3031 37.6309 19.2401C37.4714 19.1771 37.3007 19.1474 37.1294 19.153C36.958 19.1586 36.7896 19.1993 36.6346 19.2726C36.4796 19.3458 36.3412 19.4501 36.2281 19.579L34.9748 20.8324C34.8025 21.0076 34.6856 21.2295 34.6385 21.4706C34.5914 21.7117 34.6162 21.9614 34.7098 22.1885C34.8034 22.4157 34.9617 22.6103 35.165 22.7482C35.3683 22.8861 35.6076 22.9613 35.8533 22.9643H35.865Z" fill="#181A1F"/>
</g>
<defs>
<clipPath id="clip0_1258_727">
<rect width="37.4837" height="37.4837" fill="white" transform="translate(5.25781 17.3174)"/>
</clipPath>
</defs>
</svg>
