<svg width="45" height="54" viewBox="0 0 45 54" fill="none" xmlns="http://www.w3.org/2000/svg">
<circle cx="22.5" cy="23.458" r="22.5" fill="#FDEEEC"/>
<g clip-path="url(#clip0_1262_776)">
<path d="M23.153 37.8654H21.848C21.6466 37.8654 21.4534 37.7854 21.311 37.643C21.1686 37.5006 21.0886 37.3074 21.0886 37.106C21.0886 36.9046 21.1686 36.7115 21.311 36.5691C21.4534 36.4267 21.6466 36.3467 21.848 36.3467H24.8517C25.0188 36.3629 25.1875 36.3439 25.3468 36.2911C25.5062 36.2383 25.6527 36.1527 25.777 36.0399C25.9013 35.927 26.0007 35.7894 26.0686 35.6359C26.1366 35.4824 26.1717 35.3164 26.1717 35.1485C26.1717 34.9807 26.1366 34.8146 26.0686 34.6611C26.0007 34.5076 25.9013 34.37 25.777 34.2572C25.6527 34.1444 25.5062 34.0588 25.3468 34.006C25.1875 33.9531 25.0188 33.9342 24.8517 33.9504H23.7267V33.3317C23.6979 33.0339 23.5591 32.7576 23.3377 32.5566C23.1162 32.3555 22.8277 32.2441 22.5286 32.2441C22.2295 32.2441 21.9411 32.3555 21.7196 32.5566C21.4981 32.7576 21.3594 33.0339 21.3305 33.3317V34.0067C20.5516 34.1397 19.8512 34.5607 19.3681 35.186C18.885 35.8113 18.6547 36.5954 18.7226 37.3826C18.7906 38.1699 19.1519 38.9028 19.735 39.4361C20.3181 39.9694 21.0803 40.264 21.8705 40.2617H23.1755C23.3769 40.2617 23.57 40.3417 23.7124 40.4841C23.8549 40.6265 23.9349 40.8196 23.9349 41.021C23.9349 41.2224 23.8549 41.4156 23.7124 41.558C23.57 41.7004 23.3769 41.7804 23.1755 41.7804H20.1492C19.9821 41.7642 19.8135 41.7831 19.6542 41.836C19.4948 41.8888 19.3483 41.9744 19.224 42.0872C19.0997 42.2 19.0003 42.3376 18.9323 42.4911C18.8644 42.6446 18.8293 42.8106 18.8293 42.9785C18.8293 43.1464 18.8644 43.3124 18.9323 43.4659C19.0003 43.6194 19.0997 43.757 19.224 43.8699C19.3483 43.9827 19.4948 44.0683 19.6542 44.1211C19.8135 44.1739 19.9821 44.1929 20.1492 44.1767H21.2742V44.7954C21.3031 45.0931 21.4418 45.3695 21.6633 45.5705C21.8848 45.7715 22.1732 45.8829 22.4724 45.8829C22.7715 45.8829 23.0599 45.7715 23.2814 45.5705C23.5029 45.3695 23.6416 45.0931 23.6705 44.7954V44.1204C24.4494 43.9873 25.1498 43.5664 25.6329 42.9411C26.1159 42.3157 26.3463 41.5317 26.2784 40.7445C26.2104 39.9572 25.849 39.2243 25.266 38.691C24.6829 38.1577 23.9207 37.863 23.1305 37.8654H23.153Z" fill="#181A1F"/>
<path d="M27.0678 25.4343L26.3028 22.8018C26.1578 22.3139 25.862 21.8845 25.4577 21.5752C25.0535 21.266 24.5616 21.0928 24.0528 21.0806H23.749C23.748 20.9221 23.7783 20.765 23.8381 20.6183C23.898 20.4716 23.9862 20.3381 24.0978 20.2256C24.2013 20.1054 24.3315 20.0113 24.4781 19.9507C24.6247 19.8901 24.7834 19.8648 24.9415 19.8768H27.3265C27.9661 19.8798 28.5784 20.1359 29.0296 20.5892C29.4807 21.0425 29.734 21.656 29.734 22.2956C29.7629 22.5933 29.9016 22.8696 30.1231 23.0707C30.3446 23.2717 30.633 23.3831 30.9321 23.3831C31.2313 23.3831 31.5197 23.2717 31.7412 23.0707C31.9627 22.8696 32.1014 22.5933 32.1303 22.2956C32.1317 21.6608 32.008 21.032 31.7661 20.4452C31.5242 19.8583 31.169 19.325 30.7207 18.8756C30.2724 18.4263 29.7398 18.0698 29.1535 17.8265C28.5673 17.5833 27.9388 17.4581 27.304 17.4581H24.8965C24.4246 17.4555 23.9568 17.5467 23.5204 17.7263C23.0839 17.9059 22.6875 18.1704 22.354 18.5043C21.6778 19.1823 21.2976 20.1005 21.2965 21.0581H20.9928C20.4839 21.0703 19.9921 21.2435 19.5878 21.5527C19.1835 21.862 18.8877 22.2914 18.7428 22.7793L17.9778 25.4118C14.7403 26.497 11.9942 28.6982 10.2305 31.6219C8.46667 34.5456 7.8001 38.0013 8.34988 41.3713C8.89967 44.7413 10.63 47.8059 13.2315 50.0174C15.8331 52.229 19.1364 53.4432 22.5509 53.4432C25.9654 53.4432 29.2687 52.229 31.8702 50.0174C34.4718 47.8059 36.2021 44.7413 36.7519 41.3713C37.3017 38.0013 36.6351 34.5456 34.8713 31.6219C33.1075 28.6982 30.3615 26.497 27.124 25.4118L27.0678 25.4343ZM20.9928 23.4768H23.9965L24.4915 25.1756H20.509L20.9928 23.4768ZM22.5003 51.0618C19.6277 51.0446 16.8568 49.9968 14.6915 48.1091C12.5262 46.2215 11.1104 43.6192 10.7017 40.7759C10.293 37.9325 10.9184 35.0369 12.4643 32.6157C14.0103 30.1945 16.3739 28.4087 19.1253 27.5831H25.8753C28.6267 28.4087 30.9903 30.1945 32.5362 32.6157C34.0821 35.0369 34.7076 37.9325 34.2988 40.7759C33.8901 43.6192 32.4743 46.2215 30.3091 48.1091C28.1438 49.9968 25.3728 51.0446 22.5003 51.0618Z" fill="#181A1F"/>
<path d="M32.4455 25.5246L33.638 26.7283C33.865 26.9503 34.1699 27.0745 34.4873 27.0745C34.8048 27.0745 35.1097 26.9503 35.3367 26.7283C35.5614 26.5027 35.6875 26.1973 35.6875 25.8789C35.6875 25.5606 35.5614 25.2552 35.3367 25.0296L34.1442 23.8371C33.9144 23.6354 33.6166 23.5288 33.311 23.5387C33.0055 23.5487 32.7152 23.6745 32.4991 23.8907C32.2829 24.1068 32.1571 24.3971 32.1471 24.7026C32.1372 25.0082 32.2438 25.306 32.4455 25.5358V25.5246Z" fill="#181A1F"/>
<path d="M33.8956 22.8808C34.0523 22.8809 34.2074 22.8502 34.3522 22.7903C34.497 22.7305 34.6285 22.6427 34.7394 22.532L35.9431 21.3283C36.0669 21.2196 36.1671 21.0868 36.2374 20.9379C36.3078 20.789 36.3469 20.6273 36.3522 20.4627C36.3576 20.2981 36.3291 20.1341 36.2686 19.981C36.2081 19.8278 36.1168 19.6887 36.0003 19.5723C35.8839 19.4559 35.7448 19.3645 35.5916 19.304C35.4385 19.2435 35.2745 19.215 35.1099 19.2204C34.9453 19.2257 34.7836 19.2648 34.6347 19.3352C34.4858 19.4056 34.353 19.5057 34.2444 19.6295L33.0406 20.8333C32.8752 21.0015 32.7629 21.2147 32.7177 21.4462C32.6724 21.6778 32.6962 21.9176 32.7861 22.1357C32.876 22.3539 33.028 22.5408 33.2233 22.6733C33.4185 22.8057 33.6484 22.8779 33.8844 22.8808H33.8956Z" fill="#181A1F"/>
</g>
<defs>
<clipPath id="clip0_1262_776">
<rect width="36" height="36" fill="white" transform="translate(4.5 17.458)"/>
</clipPath>
</defs>
</svg>
