<svg width="46" height="45" viewBox="0 0 46 45" fill="none" xmlns="http://www.w3.org/2000/svg">
<circle opacity="0.2" cx="23.1719" cy="22.4998" r="22.5" fill="white"/>
<g clip-path="url(#clip0_1274_3532)">
<path d="M42.8925 26.6538L40.0969 23.8582C39.4963 23.2847 38.6977 22.9648 37.8673 22.9648C37.0369 22.9648 36.2383 23.2847 35.6377 23.8582L34.6533 24.8426C33.9854 25.508 33.081 25.8816 32.1382 25.8816C31.1954 25.8816 30.291 25.508 29.6232 24.8426C28.8652 24.0846 28.3828 23.5727 27.9005 23.0707C27.4182 22.5687 26.9161 22.0273 26.1286 21.2496C25.4638 20.5834 25.0904 19.6806 25.0904 18.7394C25.0904 17.7983 25.4638 16.8955 26.1286 16.2293L27.113 15.2449C27.4065 14.9536 27.6395 14.607 27.7983 14.2252C27.9571 13.8433 28.0387 13.4338 28.0383 13.0202C28.0347 12.1858 27.7023 11.3864 27.113 10.7955L24.3174 7.98022C23.5276 7.19386 22.459 6.75157 21.3446 6.74976C20.7956 6.75056 20.2522 6.85967 19.7454 7.07081C19.2387 7.28195 18.7786 7.59099 18.3914 7.98022L15.7238 10.6282C13.8014 12.5532 12.7217 15.1625 12.7217 17.883C12.7217 20.6036 13.8014 23.2129 15.7238 25.1379C17.2594 26.6735 19.0116 28.406 20.7539 30.2173C22.4963 32.0285 24.2091 33.7216 25.7349 35.2966C27.6595 37.216 30.2667 38.2938 32.9848 38.2938C35.7029 38.2938 38.3101 37.216 40.2347 35.2966L42.8925 32.6388C43.6741 31.8539 44.116 30.7933 44.123 29.6857C44.1327 29.1235 44.0287 28.5652 43.8173 28.0441C43.6058 27.5231 43.2913 27.0502 42.8925 26.6538ZM41.4061 31.113L41.1207 31.3591L38.266 28.4946C38.1709 28.3863 38.0547 28.2986 37.9244 28.2371C37.7941 28.1755 37.6526 28.1413 37.5086 28.1366C37.3646 28.1319 37.2211 28.1568 37.0871 28.2098C36.9531 28.2628 36.8314 28.3427 36.7295 28.4445C36.6276 28.5464 36.5477 28.6681 36.4948 28.8022C36.4418 28.9362 36.4169 29.0796 36.4216 29.2236C36.4263 29.3676 36.4605 29.5092 36.522 29.6394C36.5836 29.7697 36.6713 29.886 36.7796 29.981L39.6835 32.8849L38.7975 33.7709C37.266 35.2977 35.1917 36.155 33.0291 36.155C30.8665 36.155 28.7922 35.2977 27.2607 33.7709C25.7447 32.2549 24.0221 30.5027 22.3388 28.7505C20.6555 26.9984 18.8344 25.1969 17.2988 23.6613C15.772 22.1298 14.9146 20.0555 14.9146 17.8929C14.9146 15.7303 15.772 13.6559 17.2988 12.1244L18.1847 11.2385L20.9902 14.1326C21.186 14.3349 21.4542 14.4512 21.7357 14.4558C22.0172 14.4604 22.289 14.353 22.4914 14.1572C22.6937 13.9614 22.81 13.6932 22.8146 13.4117C22.8192 13.1302 22.7118 12.8583 22.516 12.656L19.5628 9.70288L19.8483 9.41741C20.0423 9.22029 20.2737 9.06389 20.529 8.95739C20.7842 8.8509 21.0582 8.79646 21.3347 8.79726C21.8928 8.79893 22.4274 9.02197 22.8211 9.41741L25.6266 12.2623C25.8213 12.4587 25.9309 12.7239 25.9318 13.0005C25.9319 13.1376 25.905 13.2734 25.8526 13.4C25.8003 13.5267 25.7235 13.6418 25.6266 13.7388L24.6422 14.7232C23.5843 15.7842 22.9902 17.2214 22.9902 18.7198C22.9902 20.2181 23.5843 21.6553 24.6422 22.7163C25.4691 23.4841 25.9219 23.9665 26.4535 24.4685C26.985 24.9705 27.4378 25.5119 28.2155 26.2798C29.2765 27.3377 30.7137 27.9318 32.2121 27.9318C33.7104 27.9318 35.1476 27.3377 36.2086 26.2798L37.193 25.2954C37.394 25.1057 37.6599 25.0001 37.9362 25.0001C38.2125 25.0001 38.4784 25.1057 38.6794 25.2954L41.475 28.091C41.6717 28.2853 41.8278 28.5168 41.9343 28.772C42.0407 29.0271 42.0954 29.3009 42.0952 29.5774C42.0901 29.8652 42.0264 30.149 41.9079 30.4113C41.7895 30.6737 41.6187 30.9091 41.4061 31.1032V31.113Z" fill="white"/>
</g>
<defs>
<clipPath id="clip0_1274_3532">
<rect width="31.5" height="31.5" fill="white" transform="translate(12.6719 6.74976)"/>
</clipPath>
</defs>
</svg>
