<svg width="42" height="42" viewBox="0 0 42 42" fill="none" xmlns="http://www.w3.org/2000/svg">
<ellipse cx="20.6486" cy="20.7" rx="20.6486" ry="20.7" fill="#F6F6F6"/>
<g clip-path="url(#clip0_954_6969)">
<path d="M31.0298 18.5721L31.7106 17.4375H32.2969C32.6852 17.4375 33 17.1227 33 16.7344C33 16.3461 32.6852 16.0312 32.2969 16.0312H31.3125C31.0655 16.0312 30.8367 16.1609 30.7096 16.3726L30.1371 17.3267L29.193 14.0223C28.8212 12.7212 27.6165 11.8125 26.2634 11.8125H15.7366C14.3835 11.8125 13.1788 12.7212 12.807 14.0224L11.8629 17.3268L11.2904 16.3727C11.1633 16.1609 10.9345 16.0312 10.6875 16.0312H9.70312C9.31481 16.0312 9 16.3461 9 16.7344C9 17.1227 9.31481 17.4375 9.70312 17.4375H10.2894L10.9702 18.5721C9.82003 19.0081 9 20.1208 9 21.4219V26.6719C9 27.0602 9.31481 27.375 9.70312 27.375H10.9219V28.5469C10.9219 29.4515 11.6579 30.1875 12.5625 30.1875H14.4375C15.3421 30.1875 16.0781 29.4515 16.0781 28.5469V27.375H25.9219V28.5469C25.9219 29.4515 26.6579 30.1875 27.5625 30.1875H29.4375C30.3421 30.1875 31.0781 29.4515 31.0781 28.5469V27.375H32.2969C32.6852 27.375 33 27.0602 33 26.6719V21.4219C33 20.1208 32.18 19.0081 31.0298 18.5721ZM14.1592 14.4087C14.3593 13.7081 15.008 13.2188 15.7366 13.2188H26.2634C26.992 13.2188 27.6407 13.7081 27.8408 14.4087L28.9741 18.375H27.7261C27.3995 16.7723 25.979 15.5625 24.2812 15.5625C22.5835 15.5625 21.163 16.7723 20.8364 18.375H13.0259L14.1592 14.4087ZM22.2923 18.375C22.5825 17.5565 23.3646 16.9688 24.2812 16.9688C25.1979 16.9688 25.98 17.5565 26.2702 18.375H22.2923ZM14.6719 28.5469C14.6719 28.6761 14.5667 28.7812 14.4375 28.7812H12.5625C12.4333 28.7812 12.3281 28.6761 12.3281 28.5469V27.375H14.6719V28.5469ZM18.8906 25.9688V24H23.1094V25.9688H18.8906ZM29.6719 28.5469C29.6719 28.6761 29.5667 28.7812 29.4375 28.7812H27.5625C27.4333 28.7812 27.3281 28.6761 27.3281 28.5469V27.375H29.6719V28.5469ZM31.5938 25.9688H24.5156V23.2969C24.5156 22.9086 24.2008 22.5938 23.8125 22.5938H18.1875C17.7992 22.5938 17.4844 22.9086 17.4844 23.2969V25.9688H10.4062V21.4219C10.4062 20.5172 11.1422 19.7812 12.0469 19.7812H12.0908C12.092 19.7812 12.0932 19.7813 12.0944 19.7813C12.0956 19.7813 12.0967 19.7812 12.0979 19.7812H29.9021C29.9033 19.7812 29.9044 19.7813 29.9056 19.7813C29.9068 19.7813 29.908 19.7812 29.9092 19.7812H29.9531C30.8578 19.7812 31.5938 20.5172 31.5938 21.4219V25.9688Z" fill="#181A1F"/>
<path d="M28.0312 20.7656C26.8681 20.7656 25.9219 21.7119 25.9219 22.875C25.9219 24.0381 26.8681 24.9844 28.0312 24.9844C29.1944 24.9844 30.1406 24.0381 30.1406 22.875C30.1406 21.7119 29.1944 20.7656 28.0312 20.7656ZM28.0312 23.5781C27.6435 23.5781 27.3281 23.2627 27.3281 22.875C27.3281 22.4873 27.6435 22.1719 28.0312 22.1719C28.419 22.1719 28.7344 22.4873 28.7344 22.875C28.7344 23.2627 28.419 23.5781 28.0312 23.5781Z" fill="#181A1F"/>
<path d="M13.9688 20.7656C12.8056 20.7656 11.8594 21.7119 11.8594 22.875C11.8594 24.0381 12.8056 24.9844 13.9688 24.9844C15.1319 24.9844 16.0781 24.0381 16.0781 22.875C16.0781 21.7119 15.1319 20.7656 13.9688 20.7656ZM13.9688 23.5781C13.581 23.5781 13.2656 23.2627 13.2656 22.875C13.2656 22.4873 13.581 22.1719 13.9688 22.1719C14.3565 22.1719 14.6719 22.4873 14.6719 22.875C14.6719 23.2627 14.3565 23.5781 13.9688 23.5781Z" fill="#181A1F"/>
</g>
<defs>
<clipPath id="clip0_954_6969">
<rect width="24" height="24" fill="white" transform="translate(9 9)"/>
</clipPath>
</defs>
</svg>
