<svg width="40" height="37" viewBox="0 0 40 37" fill="none" xmlns="http://www.w3.org/2000/svg">
<ellipse cx="20" cy="18.5" rx="20" ry="18.5" fill="#F6F6F6"/>
<path fill-rule="evenodd" clip-rule="evenodd" d="M18.2858 12.4542C18.9328 12.4542 19.5652 12.6317 20.1031 12.9642C20.641 13.2966 21.0601 13.7691 21.3075 14.3219C21.5549 14.8747 21.6194 15.4829 21.4928 16.0696C21.3663 16.6563 21.0544 17.1952 20.5966 17.6179C20.1389 18.0406 19.5558 18.3283 18.9211 18.4446C18.2865 18.5608 17.6288 18.5003 17.0314 18.2708C16.4339 18.0413 15.9235 17.6531 15.5647 17.1553C15.2059 16.6575 15.0148 16.0724 15.0157 15.4742C15.0157 14.6722 15.3602 13.903 15.9735 13.3359C16.5868 12.7688 17.4186 12.4502 18.2858 12.4502V12.4542Z" fill="#E8EDED"/>
<path fill-rule="evenodd" clip-rule="evenodd" d="M23.0707 23.4327C23.1127 23.5603 23.1221 23.6953 23.0982 23.8268C23.0742 23.9584 23.0176 24.0831 22.9328 24.191C22.8479 24.2989 22.7371 24.3871 22.6091 24.4487C22.4811 24.5103 22.3394 24.5436 22.1951 24.5459H14.4028C14.2586 24.5436 14.1169 24.5103 13.9889 24.4487C13.8609 24.3871 13.7501 24.2989 13.6652 24.191C13.5803 24.0831 13.5237 23.9584 13.4998 23.8268C13.4758 23.6953 13.4853 23.5603 13.5273 23.4327L13.9651 22.0725C14.1383 21.5389 14.4929 21.0712 14.9763 20.7386C15.4597 20.4061 16.0461 20.2265 16.6486 20.2266H19.9494C20.5519 20.2265 21.1383 20.4061 21.6217 20.7386C22.1051 21.0712 22.4597 21.5389 22.6329 22.0725L23.0707 23.4327Z" fill="#E8EDED"/>
<path fill-rule="evenodd" clip-rule="evenodd" d="M21.7267 12.4541C22.3735 12.4541 23.0057 12.6315 23.5435 12.9637C24.0813 13.296 24.5004 13.7683 24.7479 14.3208C24.9954 14.8734 25.0602 15.4814 24.934 16.068C24.8078 16.6546 24.4964 17.1934 24.0391 17.6163C23.5817 18.0392 22.999 18.3272 22.3647 18.4439C21.7303 18.5606 21.0728 18.5007 20.4753 18.2718C19.8777 18.043 19.367 17.6554 19.0077 17.1581C18.6484 16.6608 18.4566 16.0761 18.4566 15.4781C18.4566 14.6761 18.8011 13.9069 19.4144 13.3398C20.0276 12.7727 20.8594 12.4541 21.7267 12.4541Z" fill="#181A1F"/>
<path fill-rule="evenodd" clip-rule="evenodd" d="M26.5028 23.4327C26.5448 23.5603 26.5542 23.6953 26.5303 23.8268C26.5064 23.9584 26.4497 24.0831 26.3649 24.191C26.28 24.2989 26.1692 24.3871 26.0412 24.4487C25.9132 24.5103 25.7715 24.5436 25.6273 24.5459H17.8481C17.7038 24.5436 17.5621 24.5103 17.4341 24.4487C17.3061 24.3871 17.1953 24.2989 17.1105 24.191C17.0256 24.0831 16.969 23.9584 16.945 23.8268C16.9211 23.6953 16.9305 23.5603 16.9725 23.4327L17.4103 22.0725C17.5835 21.5389 17.9381 21.0712 18.4215 20.7386C18.9049 20.4061 19.4914 20.2265 20.0938 20.2266H23.3946C23.9971 20.2265 24.5835 20.4061 25.0669 20.7386C25.5503 21.0712 25.9049 21.5389 26.0782 22.0725L26.5159 23.4327H26.5028Z" fill="#181A1F"/>
<path d="M25.6098 24.9754H17.8481C17.6295 24.9757 17.4139 24.9287 17.2185 24.8382C17.023 24.7477 16.8532 24.6161 16.7226 24.454C16.592 24.2919 16.5042 24.1038 16.4663 23.9047C16.4284 23.7057 16.4413 23.5012 16.5042 23.3076L16.942 21.9474C17.1411 21.3234 17.5539 20.776 18.1184 20.3876C18.6829 19.9992 19.3684 19.7908 20.072 19.7938H23.3728C24.0764 19.7908 24.762 19.9992 25.3264 20.3876C25.8909 20.776 26.3037 21.3234 26.5029 21.9474L26.9406 23.3076C27.0032 23.5002 27.0163 23.7036 26.9791 23.9018C26.9419 24.0999 26.8553 24.2873 26.7261 24.4491C26.597 24.611 26.4289 24.7428 26.2352 24.8341C26.0414 24.9255 25.8273 24.9738 25.6098 24.9754ZM20.0764 20.656C19.5736 20.6537 19.0836 20.8024 18.6802 21.0799C18.2767 21.3573 17.9817 21.7484 17.8394 22.1943L17.4016 23.5545C17.3815 23.6182 17.3774 23.6853 17.3898 23.7506C17.4021 23.816 17.4305 23.8779 17.4729 23.9314C17.5152 23.985 17.5702 24.0289 17.6338 24.0597C17.6973 24.0905 17.7677 24.1074 17.8394 24.1091H25.6098C25.6815 24.1074 25.7519 24.0905 25.8154 24.0597C25.879 24.0289 25.934 23.985 25.9763 23.9314C26.0186 23.8779 26.0471 23.816 26.0594 23.7506C26.0718 23.6853 26.0677 23.6182 26.0476 23.5545L25.6098 22.1943C25.4675 21.7484 25.1724 21.3573 24.769 21.0799C24.3656 20.8024 23.8756 20.6537 23.3728 20.656H20.0764ZM15.3353 24.9754H14.4029C14.1843 24.9757 13.9687 24.9287 13.7732 24.8382C13.5778 24.7477 13.408 24.6161 13.2773 24.454C13.1467 24.2919 13.059 24.1038 13.021 23.9047C12.9831 23.7057 12.9961 23.5012 13.0589 23.3076L13.4967 21.9474C13.696 21.3227 14.1095 20.7749 14.6749 20.3864C15.2402 19.998 15.9268 19.79 16.6311 19.7938C16.6962 19.7879 16.7618 19.7947 16.8238 19.8138C16.8858 19.8328 16.9428 19.8636 16.9912 19.9042C17.0396 19.9448 17.0782 19.9943 17.1047 20.0495C17.1311 20.1047 17.1448 20.1645 17.1448 20.2249C17.1448 20.2853 17.1311 20.345 17.1047 20.4003C17.0782 20.4555 17.0396 20.505 16.9912 20.5456C16.9428 20.5862 16.8858 20.617 16.8238 20.636C16.7618 20.655 16.6962 20.6619 16.6311 20.656C16.1284 20.6537 15.6384 20.8024 15.2349 21.0799C14.8315 21.3573 14.5364 21.7484 14.3941 22.1943L13.9564 23.5545C13.9362 23.6182 13.9322 23.6853 13.9445 23.7506C13.9569 23.816 13.9853 23.8779 14.0276 23.9314C14.0699 23.985 14.1249 24.0289 14.1885 24.0597C14.2521 24.0905 14.3224 24.1074 14.3941 24.1091H15.3353C15.4004 24.1033 15.466 24.1101 15.528 24.1291C15.59 24.1481 15.647 24.1789 15.6954 24.2195C15.7438 24.2601 15.7824 24.3096 15.8089 24.3648C15.8353 24.4201 15.849 24.4798 15.849 24.5402C15.849 24.6006 15.8353 24.6604 15.8089 24.7156C15.7824 24.7708 15.7438 24.8203 15.6954 24.8609C15.647 24.9015 15.59 24.9323 15.528 24.9514C15.466 24.9704 15.4004 24.9772 15.3353 24.9713V24.9754ZM21.7268 18.9315C20.9882 18.9315 20.2663 18.729 19.6522 18.3496C19.0381 17.9701 18.5595 17.4308 18.2769 16.7999C17.9942 16.1689 17.9203 15.4746 18.0644 14.8048C18.2084 14.135 18.5641 13.5197 19.0863 13.0368C19.6086 12.5539 20.2739 12.225 20.9983 12.0917C21.7226 11.9585 22.4735 12.0269 23.1558 12.2882C23.8381 12.5496 24.4213 12.9922 24.8316 13.56C25.242 14.1279 25.461 14.7955 25.461 15.4785C25.4598 16.3939 25.066 17.2716 24.366 17.919C23.6659 18.5663 22.7168 18.9304 21.7268 18.9315ZM21.7268 12.8876C21.1727 12.8876 20.631 13.0396 20.1702 13.3243C19.7095 13.609 19.3504 14.0136 19.1383 14.487C18.9263 14.9604 18.8708 15.4813 18.9789 15.9839C19.087 16.4865 19.3538 16.9481 19.7457 17.3104C20.1375 17.6728 20.6367 17.9195 21.1802 18.0195C21.7237 18.1194 22.287 18.0681 22.799 17.8721C23.3109 17.676 23.7485 17.3439 24.0563 16.9178C24.3642 16.4918 24.5285 15.9909 24.5285 15.4785C24.5285 14.791 24.2335 14.1316 23.7082 13.645C23.1829 13.1585 22.4703 12.8847 21.7268 12.8836V12.8876ZM17.6687 18.8789H17.5811C16.7284 18.7266 15.9596 18.3045 15.4068 17.6851C14.854 17.0657 14.5516 16.2876 14.5516 15.4845C14.5516 14.6814 14.854 13.9034 15.4068 13.284C15.9596 12.6646 16.7284 12.2425 17.5811 12.0902C17.7004 12.0743 17.8217 12.1017 17.9198 12.1664C18.0179 12.2312 18.0852 12.3284 18.1077 12.4379C18.1303 12.5474 18.1063 12.6607 18.0409 12.7542C17.9754 12.8478 17.8734 12.9144 17.7562 12.9403C17.1141 13.0518 16.5343 13.3673 16.1172 13.8323C15.7 14.2973 15.4717 14.8824 15.4717 15.4866C15.4717 16.0907 15.7 16.6759 16.1172 17.1408C16.5343 17.6058 17.1141 17.9213 17.7562 18.0328C17.8601 18.0612 17.9501 18.1221 18.0109 18.205C18.0717 18.2878 18.0996 18.3876 18.0898 18.4874C18.08 18.5872 18.0331 18.6807 17.9571 18.7521C17.8811 18.8234 17.7807 18.8683 17.673 18.8789H17.6687Z" fill="#181A1F"/>
</svg>
