<svg width="12" height="12" viewBox="0 0 12 12" fill="none" xmlns="http://www.w3.org/2000/svg">
<path d="M11.0001 6.00012C11.0001 6.27662 10.7766 6.50012 10.5001 6.50012H2.70711L5.35361 9.14662C5.54911 9.34212 5.54911 9.65817 5.35361 9.85367C5.25611 9.95117 5.12811 10.0001 5.00011 10.0001C4.87211 10.0001 4.74413 9.95117 4.64663 9.85367L1.14662 6.35367C0.951125 6.15817 0.951125 5.84212 1.14662 5.64662L4.64663 2.14662C4.84212 1.95112 5.15811 1.95112 5.35361 2.14662C5.54911 2.34212 5.54911 2.65815 5.35361 2.85365L2.70711 5.50012H10.5001C10.7766 5.50012 11.0001 5.72362 11.0001 6.00012Z" fill="#181A1F"/>
</svg>
