<svg width="64" height="64" viewBox="0 0 64 64" fill="none" xmlns="http://www.w3.org/2000/svg">
<g clip-path="url(#clip0_950_7522)">
<path fill-rule="evenodd" clip-rule="evenodd" d="M14.0163 21.1013L16.1848 24.85L18.3533 21.1013L22.102 18.9327L18.3533 16.7644L16.1848 13.0156L14.0163 16.7644L10.264 18.9327L14.0163 21.1013Z" fill="#E95440"/>
<path fill-rule="evenodd" clip-rule="evenodd" d="M27.6826 15.4036L30.0707 19.5314L32.4552 15.4036L36.5831 13.0189L32.4552 10.6308L30.0707 6.50293L27.6826 10.6308L23.5547 13.0189L27.6826 15.4036Z" fill="#E95440"/>
<path fill-rule="evenodd" clip-rule="evenodd" d="M6.23175 40.0817H18.5375V31.3193H14.1155C11.7274 31.3193 10.2924 32.0208 9.14437 34.2957L6.23175 40.0817Z" fill="#E95440"/>
<path fill-rule="evenodd" clip-rule="evenodd" d="M28.9156 31.3193H39.2974V40.0817H28.9156V31.3193Z" fill="#E95440"/>
<path d="M60.0775 40.0481C58.3009 39.2751 55.9288 38.8317 53.5695 38.8317H52.4721L46.9786 32.3597C45.1674 30.2272 43.9869 30.1166 41.4893 30.0696C41.4814 30.0695 41.4736 30.0693 41.4658 30.0693H14.1155C11.1051 30.0693 9.34163 31.1306 8.02788 33.7336L5.46163 38.8317H2.398C1.07575 38.8317 0 39.9075 0 41.2297V50.2613C0 51.5836 1.07575 52.6593 2.398 52.6593H9.125C9.57913 55.3995 11.9644 57.4958 14.8313 57.4958C17.6981 57.4958 20.0833 55.3993 20.5375 52.6593H42.5698C43.0239 55.3995 45.4091 57.4958 48.276 57.4958C51.1429 57.4958 53.528 55.3993 53.9823 52.6593H59.9261C62.1725 52.6593 64.0001 50.8335 64.0001 48.589V45.145C64 43.5983 63.3195 41.4587 60.0775 40.0481ZM10.2603 34.8587C11.135 33.1256 12.0718 32.5692 14.1155 32.5692H41.4538C43.5398 32.6085 43.9181 32.6181 45.073 33.9777L49.193 38.8317H8.26038L10.2603 34.8587ZM14.8313 54.996C13.0198 54.996 11.5459 53.5221 11.5459 51.7106C11.5459 49.8991 13.0198 48.4252 14.8313 48.4252C16.6428 48.4252 18.1166 49.8991 18.1166 51.7106C18.1166 53.5221 16.6428 54.996 14.8313 54.996ZM48.2759 54.996C46.4644 54.996 44.9905 53.5221 44.9905 51.7106C44.9905 49.8991 46.4644 48.4252 48.2759 48.4252C50.0874 48.4252 51.5613 49.8991 51.5613 51.7106C51.5613 53.5221 50.0874 54.996 48.2759 54.996ZM59.926 50.1595H53.8483C53.1684 47.7206 50.9285 45.9253 48.2759 45.9253C45.6233 45.9253 43.3833 47.7206 42.7035 50.1595H20.4036C19.7238 47.7206 17.4839 45.9253 14.8313 45.9253C12.1786 45.9253 9.93863 47.7206 9.25888 50.1595H2.5V46.8592H4.63738C5.32775 46.8592 5.88738 46.2996 5.88738 45.6092C5.88738 44.9188 5.32775 44.3592 4.63738 44.3592H2.5V41.3317H53.5695C56.7574 41.3317 61.5 42.3473 61.5 45.145V45.2838H59.182C58.4916 45.2838 57.932 45.8435 57.932 46.5338C57.932 47.2242 58.4916 47.7838 59.182 47.7838H61.5V48.589C61.5 49.455 60.794 50.1595 59.926 50.1595Z" fill="#024273"/>
<path d="M31.403 44.4971H25.8898C25.1994 44.4971 24.6398 45.0567 24.6398 45.7471C24.6398 46.4374 25.1994 46.9971 25.8898 46.9971H31.403C32.0934 46.9971 32.653 46.4374 32.653 45.7471C32.653 45.0567 32.0934 44.4971 31.403 44.4971Z" fill="#024273"/>
</g>
<defs>
<clipPath id="clip0_950_7522">
<rect width="64" height="64" fill="white"/>
</clipPath>
</defs>
</svg>
