<svg width="49" height="49" viewBox="0 0 49 49" fill="none" xmlns="http://www.w3.org/2000/svg">
<g clip-path="url(#clip0_1274_3674)">
<path fill-rule="evenodd" clip-rule="evenodd" d="M10.7692 16.4819L12.4096 19.3177L14.05 16.4819L16.8859 14.8414L14.05 13.2011L12.4096 10.3652L10.7692 13.2011L7.93066 14.8414L10.7692 16.4819Z" fill="#E95440"/>
<path fill-rule="evenodd" clip-rule="evenodd" d="M21.107 12.1716L22.9136 15.2943L24.7174 12.1716L27.8401 10.3677L24.7174 8.56114L22.9136 5.43848L21.107 8.56114L17.9844 10.3677L21.107 12.1716Z" fill="#E95440"/>
<path fill-rule="evenodd" clip-rule="evenodd" d="M4.88037 30.8407H14.1895V24.2122H10.8443C9.03771 24.2122 7.95216 24.7428 7.08372 26.4637L4.88037 30.8407Z" fill="#E95440"/>
<path fill-rule="evenodd" clip-rule="evenodd" d="M22.04 24.2122H29.8936V30.8407H22.04V24.2122Z" fill="#E95440"/>
<path d="M45.6136 30.8153C44.2696 30.2306 42.4751 29.8952 40.6904 29.8952H39.8602L35.7045 24.9992C34.3343 23.386 33.4413 23.3023 31.5519 23.2668C31.5459 23.2667 31.5401 23.2666 31.5341 23.2666H10.8441C8.56685 23.2666 7.23279 24.0694 6.23896 26.0385L4.29764 29.8952H1.98006C0.979801 29.8952 0.166016 30.709 0.166016 31.7092V38.5415C0.166016 39.5417 0.979801 40.3555 1.98006 40.3555H7.06892C7.41245 42.4284 9.21685 44.0143 11.3856 44.0143C13.5543 44.0143 15.3586 42.4283 15.7023 40.3555H32.3693C32.7128 42.4284 34.5172 44.0143 36.686 44.0143C38.8547 44.0143 40.659 42.4283 41.0026 40.3555H45.4991C47.1984 40.3555 48.581 38.9743 48.581 37.2764V34.671C48.5809 33.501 48.0661 31.8825 45.6136 30.8153ZM7.92771 26.8897C8.58945 25.5786 9.29808 25.1577 10.8441 25.1577H31.525C33.1031 25.1874 33.3893 25.1947 34.2629 26.2232L37.3796 29.8952H6.41484L7.92771 26.8897ZM11.3856 42.1231C10.0152 42.1231 8.90026 41.0082 8.90026 39.6378C8.90026 38.2675 10.0152 37.1525 11.3856 37.1525C12.756 37.1525 13.8709 38.2675 13.8709 39.6378C13.8709 41.0082 12.756 42.1231 11.3856 42.1231ZM36.6859 42.1231C35.3155 42.1231 34.2005 41.0082 34.2005 39.6378C34.2005 38.2675 35.3155 37.1525 36.6859 37.1525C38.0562 37.1525 39.1712 38.2675 39.1712 39.6378C39.1712 41.0082 38.0562 42.1231 36.6859 42.1231ZM45.499 38.4644H40.9013C40.3869 36.6195 38.6925 35.2614 36.6859 35.2614C34.6792 35.2614 32.9847 36.6195 32.4705 38.4644H15.601C15.0867 36.6195 13.3923 35.2614 11.3856 35.2614C9.37893 35.2614 7.68441 36.6195 7.17019 38.4644H2.05722V35.9678H3.67411C4.19636 35.9678 4.61971 35.5445 4.61971 35.0222C4.61971 34.5 4.19636 34.0766 3.67411 34.0766H2.05722V31.7864H40.6904C43.102 31.7864 46.6897 32.5547 46.6897 34.671V34.7761H44.9361C44.4139 34.7761 43.9905 35.1994 43.9905 35.7217C43.9905 36.244 44.4139 36.6673 44.9361 36.6673H46.6897V37.2764C46.6897 37.9315 46.1556 38.4644 45.499 38.4644Z" fill="#024273"/>
<path d="M23.9219 34.1809H19.7513C19.229 34.1809 18.8057 34.6043 18.8057 35.1265C18.8057 35.6488 19.229 36.0721 19.7513 36.0721H23.9219C24.4442 36.0721 24.8675 35.6488 24.8675 35.1265C24.8675 34.6043 24.4442 34.1809 23.9219 34.1809Z" fill="#024273"/>
</g>
<defs>
<clipPath id="clip0_1274_3674">
<rect width="48.4149" height="48.4149" fill="white" transform="translate(0.166016 0.519043)"/>
</clipPath>
</defs>
</svg>
