<svg width="24" height="24" viewBox="0 0 24 24" fill="none" xmlns="http://www.w3.org/2000/svg">
<g clip-path="url(#clip0_953_27731)">
<path d="M11.8247 23.6495C8.01122 23.583 3.15571 15.1874 3.15571 8.66907C3.13049 7.52374 3.33748 6.38516 3.7642 5.32199C4.19093 4.25882 4.82855 3.29308 5.63862 2.48301C6.44869 1.67294 7.41443 1.03532 8.4776 0.608596C9.54077 0.181869 10.6793 -0.0251217 11.8247 0.000104088C12.97 -0.0251217 14.1086 0.181869 15.1718 0.608596C16.2349 1.03532 17.2007 1.67294 18.0107 2.48301C18.8208 3.29308 19.4584 4.25882 19.8852 5.32199C20.3119 6.38516 20.5189 7.52374 20.4937 8.66907C20.4937 13.665 17.7444 19.3556 15.0839 21.9718C13.9531 23.0878 12.8667 23.6495 11.8247 23.6495ZM11.8247 1.57426C10.8844 1.54233 9.94751 1.704 9.07228 2.04924C8.19705 2.39449 7.40213 2.91594 6.73684 3.58123C6.07155 4.24652 5.5501 5.04145 5.20485 5.91668C4.85961 6.79191 4.69794 7.72875 4.72987 8.66907C4.72987 14.914 9.36367 22.031 11.8395 22.0679C12.676 21.9289 13.4358 21.4967 13.9827 20.8485C16.355 18.5131 18.9195 13.192 18.9195 8.66907C18.9514 7.72875 18.7898 6.79191 18.4445 5.91668C18.0993 5.04145 17.5778 4.24652 16.9125 3.58123C16.2472 2.91594 15.4523 2.39449 14.5771 2.04924C13.7019 1.704 12.765 1.54233 11.8247 1.57426V1.57426Z" fill="white"/>
<path d="M11.8247 12.6155C11.0456 12.6155 10.284 12.3845 9.63624 11.9516C8.98846 11.5188 8.48358 10.9036 8.18544 10.1838C7.8873 9.46406 7.80929 8.67203 7.96128 7.90792C8.11327 7.14381 8.48843 6.44193 9.03933 5.89104C9.59022 5.34015 10.2921 4.96499 11.0562 4.813C11.8203 4.661 12.6123 4.73901 13.3321 5.03715C14.0519 5.33529 14.6671 5.84018 15.0999 6.48796C15.5328 7.13574 15.7638 7.89732 15.7638 8.6764C15.7618 9.72052 15.3462 10.7213 14.6079 11.4596C13.8696 12.1979 12.8688 12.6135 11.8247 12.6155ZM11.8247 6.31147C11.3569 6.31147 10.8997 6.45017 10.5108 6.71003C10.1219 6.96989 9.81877 7.33925 9.63977 7.77138C9.46078 8.20352 9.41394 8.67903 9.50519 9.13778C9.59645 9.59653 9.82168 10.0179 10.1524 10.3487C10.4832 10.6794 10.9046 10.9046 11.3633 10.9959C11.8221 11.0872 12.2976 11.0403 12.7297 10.8613C13.1618 10.6823 13.5312 10.3792 13.7911 9.99029C14.0509 9.60138 14.1896 9.14414 14.1896 8.6764C14.1906 8.36521 14.1301 8.05689 14.0117 7.76911C13.8933 7.48133 13.7193 7.21975 13.4996 6.99936C13.2799 6.77897 13.0188 6.60411 12.7314 6.4848C12.444 6.36549 12.1359 6.30408 11.8247 6.30408V6.31147Z" fill="white"/>
</g>
<defs>
<clipPath id="clip0_953_27731">
<rect width="23.6494" height="23.6494" fill="white"/>
</clipPath>
</defs>
</svg>
