<svg width="16" height="16" viewBox="0 0 16 16" fill="none" xmlns="http://www.w3.org/2000/svg">
<g clip-path="url(#clip0_953_27744)">
<path d="M8 15.9999C5.42 15.9549 2.135 10.2749 2.135 5.86493C2.11793 5.09005 2.25797 4.31974 2.54667 3.60045C2.83538 2.88117 3.26676 2.2278 3.81481 1.67974C4.36287 1.13169 5.01624 0.700305 5.73553 0.411603C6.45481 0.1229 7.22512 -0.0171395 8 -7.30343e-05C8.77487 -0.0171395 9.54518 0.1229 10.2645 0.411603C10.9838 0.700305 11.6371 1.13169 12.1852 1.67974C12.7332 2.2278 13.1646 2.88117 13.4533 3.60045C13.742 4.31974 13.8821 5.09005 13.865 5.86493C13.865 9.24493 12.005 13.0949 10.205 14.8649C9.44 15.6199 8.705 15.9999 8 15.9999ZM8 1.06493C7.36382 1.04332 6.73 1.1527 6.13786 1.38627C5.54572 1.61985 5.00791 1.97264 4.55781 2.42274C4.10771 2.87284 3.75492 3.41065 3.52134 4.00279C3.28777 4.59493 3.17839 5.22875 3.2 5.86493C3.2 10.0899 6.335 14.9049 8.01 14.9299C8.57599 14.8359 9.09001 14.5434 9.46 14.1049C11.065 12.5249 12.8 8.92493 12.8 5.86493C12.8216 5.22875 12.7122 4.59493 12.4787 4.00279C12.2451 3.41065 11.8923 2.87284 11.4422 2.42274C10.9921 1.97264 10.4543 1.61985 9.86214 1.38627C9.27 1.1527 8.63617 1.04332 8 1.06493V1.06493Z" fill="#181A1F"/>
<path d="M7.99999 8.53508C7.47291 8.53508 6.95766 8.37878 6.5194 8.08595C6.08114 7.79311 5.73956 7.3769 5.53785 6.88993C5.33615 6.40297 5.28337 5.86712 5.3862 5.35016C5.48903 4.8332 5.74285 4.35835 6.11555 3.98564C6.48826 3.61293 6.96312 3.35912 7.48008 3.25629C7.99704 3.15346 8.53288 3.20623 9.01984 3.40794C9.50681 3.60965 9.92302 3.95123 10.2159 4.38948C10.5087 4.82774 10.665 5.34299 10.665 5.87008C10.6637 6.57648 10.3825 7.25356 9.88297 7.75306C9.38347 8.25256 8.70639 8.53376 7.99999 8.53508ZM7.99999 4.27008C7.68354 4.27008 7.3742 4.36392 7.11108 4.53973C6.84796 4.71554 6.64289 4.96542 6.52179 5.25779C6.40069 5.55015 6.369 5.87185 6.43074 6.18222C6.49247 6.49259 6.64486 6.77769 6.86862 7.00145C7.09239 7.22521 7.37748 7.3776 7.68785 7.43934C7.99822 7.50107 8.31992 7.46939 8.61229 7.34829C8.90465 7.22719 9.15453 7.02211 9.33034 6.75899C9.50615 6.49587 9.59999 6.18653 9.59999 5.87008C9.60065 5.65954 9.55975 5.45095 9.47964 5.25625C9.39953 5.06155 9.28177 4.88458 9.13314 4.73547C8.9845 4.58637 8.80789 4.46807 8.61344 4.38735C8.419 4.30663 8.21053 4.26508 7.99999 4.26508V4.27008Z" fill="white"/>
</g>
<defs>
<clipPath id="clip0_953_27744">
<rect width="16" height="16" fill="white"/>
</clipPath>
</defs>
</svg>
