<svg width="24" height="25" viewBox="0 0 24 25" fill="none" xmlns="http://www.w3.org/2000/svg">
<g clip-path="url(#clip0_953_27765)">
<path d="M11.8247 24.4346C8.01125 24.3681 3.15574 15.9726 3.15574 9.45423C3.13052 8.3089 3.33751 7.17032 3.76424 6.10715C4.19096 5.04398 4.82858 4.07824 5.63865 3.26817C6.44872 2.4581 7.41446 1.82048 8.47763 1.39375C9.5408 0.967026 10.6794 0.760035 11.8247 0.78526C12.97 0.760035 14.1086 0.967026 15.1718 1.39375C16.235 1.82048 17.2007 2.4581 18.0108 3.26817C18.8208 4.07824 19.4585 5.04398 19.8852 6.10715C20.3119 7.17032 20.5189 8.3089 20.4937 9.45423C20.4937 14.4502 17.7444 20.1408 15.0839 22.757C13.9532 23.8729 12.8668 24.4346 11.8247 24.4346ZM11.8247 2.35942C10.8844 2.32748 9.94754 2.48915 9.07231 2.8344C8.19709 3.17964 7.40216 3.70109 6.73687 4.36638C6.07158 5.03167 5.55013 5.8266 5.20488 6.70183C4.85964 7.57706 4.69797 8.51391 4.7299 9.45423C4.7299 15.6991 9.3637 22.8161 11.8395 22.8531C12.6761 22.7141 13.4358 22.2818 13.9827 21.6337C16.355 19.2983 18.9195 13.9772 18.9195 9.45423C18.9515 8.51391 18.7898 7.57706 18.4445 6.70183C18.0993 5.8266 17.5779 5.03167 16.9126 4.36638C16.2473 3.70109 15.4523 3.17964 14.5771 2.8344C13.7019 2.48915 12.765 2.32748 11.8247 2.35942V2.35942Z" fill="white"/>
<path d="M11.8247 13.4007C11.0456 13.4007 10.2841 13.1696 9.63627 12.7368C8.98849 12.304 8.48361 11.6888 8.18547 10.969C7.88733 10.2492 7.80932 9.45719 7.96131 8.69308C8.1133 7.92897 8.48846 7.22709 9.03936 6.6762C9.59025 6.1253 10.2921 5.75014 11.0562 5.59815C11.8203 5.44616 12.6124 5.52417 13.3321 5.82231C14.0519 6.12045 14.6671 6.62533 15.1 7.27311C15.5328 7.9209 15.7638 8.68248 15.7638 9.46156C15.7619 10.5057 15.3462 11.5065 14.6079 12.2448C13.8696 12.9831 12.8688 13.3987 11.8247 13.4007ZM11.8247 7.09662C11.357 7.09662 10.8997 7.23532 10.5108 7.49519C10.1219 7.75505 9.8188 8.1244 9.6398 8.55654C9.46081 8.98867 9.41397 9.46418 9.50522 9.92294C9.59648 10.3817 9.82171 10.8031 10.1525 11.1338C10.4832 11.4646 10.9046 11.6898 11.3633 11.7811C11.8221 11.8723 12.2976 11.8255 12.7297 11.6465C13.1619 11.4675 13.5312 11.1644 13.7911 10.7754C14.051 10.3865 14.1897 9.9293 14.1897 9.46156C14.1906 9.15037 14.1302 8.84205 14.0118 8.55427C13.8933 8.26649 13.7193 8.00491 13.4996 7.78452C13.2799 7.56413 13.0189 7.38927 12.7315 7.26996C12.444 7.15065 12.1359 7.08923 11.8247 7.08923V7.09662Z" fill="white"/>
</g>
<defs>
<clipPath id="clip0_953_27765">
<rect width="23.6494" height="23.6494" fill="white" transform="translate(0 0.785156)"/>
</clipPath>
</defs>
</svg>
