<svg width="13" height="12" viewBox="0 0 13 12" fill="none" xmlns="http://www.w3.org/2000/svg">
<g clip-path="url(#clip0_1281_673)">
<path d="M2.16691 1.04882H4.60891L5.3959 2.81983L4.13139 3.57856C4.05692 3.62327 3.99587 3.68384 3.95365 3.75488C3.91143 3.82593 3.88935 3.90525 3.88936 3.98582C3.89099 4.03183 3.88936 3.98631 3.88936 3.98631V3.99659C3.88968 4.01848 3.89077 4.04035 3.89263 4.06218C3.89589 4.10232 3.90133 4.15665 3.91166 4.22372C3.93287 4.35588 3.97366 4.53797 4.05307 4.75238C4.21297 5.18313 4.52624 5.74067 5.13647 6.28989C5.7467 6.83911 6.36618 7.12106 6.84425 7.26498C7.08301 7.33644 7.28479 7.37266 7.43272 7.39224C7.51622 7.40274 7.60027 7.40927 7.68453 7.41183L7.69161 7.41231H7.69596C7.69596 7.41231 7.75687 7.40938 7.6965 7.41231C7.79748 7.41227 7.89645 7.38692 7.98232 7.33911C8.0682 7.2913 8.13759 7.22292 8.18273 7.14162L8.54712 6.48569L10.9598 6.84792V8.96256C9.81164 9.11186 6.71045 9.2592 4.27388 7.06624C1.83732 4.87328 2.00048 2.08167 2.16691 1.04882ZM5.01682 4.22372L5.9996 3.63436C6.20723 3.50972 6.36091 3.32461 6.43488 3.11009C6.50886 2.89556 6.49862 2.66467 6.40588 2.45613L5.61889 0.685125C5.53813 0.503474 5.39875 0.347769 5.21873 0.238095C5.0387 0.128422 4.8263 0.0698111 4.60891 0.0698242H2.13862C1.64424 0.0698242 1.17922 0.378698 1.09819 0.861345C0.913269 1.9588 0.662542 5.20027 3.50484 7.75839C6.34714 10.3165 9.94869 10.0904 11.1681 9.92443C11.7043 9.851 12.0475 9.43297 12.0475 8.98801V6.84792C12.0475 6.61617 11.9562 6.39193 11.7898 6.21509C11.6234 6.03824 11.3927 5.92026 11.1387 5.88214L8.72606 5.5204C8.49659 5.48593 8.2609 5.51857 8.05357 5.61355C7.84624 5.70852 7.6782 5.86082 7.57413 6.04808L7.38595 6.3873C7.3194 6.37255 7.25354 6.35541 7.18852 6.33591C6.85132 6.23507 6.38304 6.02752 5.90551 5.59774C5.42799 5.16796 5.19739 4.7465 5.08535 4.44252C5.05859 4.37067 5.0359 4.29764 5.01736 4.22372H5.01682Z" fill="white"/>
</g>
<defs>
<clipPath id="clip0_1281_673">
<rect width="11.0514" height="11.0514" fill="white" transform="translate(0.996094 0.0698242)"/>
</clipPath>
</defs>
</svg>
