<svg width="11" height="10" viewBox="0 0 11 10" fill="none" xmlns="http://www.w3.org/2000/svg">
<g clip-path="url(#clip0_1281_787)">
<path d="M1.9255 0.912106H4.01064L4.68263 2.42431L3.6029 3.07216C3.53932 3.11034 3.48719 3.16206 3.45114 3.22272C3.41509 3.28338 3.39623 3.35111 3.39625 3.41991C3.39764 3.4592 3.39625 3.42033 3.39625 3.42033V3.4291C3.39652 3.44779 3.39745 3.46647 3.39903 3.48511C3.40182 3.51938 3.40646 3.56578 3.41529 3.62304C3.4334 3.73589 3.46823 3.89137 3.53603 4.07444C3.67256 4.44226 3.94006 4.91832 4.46111 5.38728C4.98217 5.85624 5.51111 6.09699 5.91932 6.21987C6.12319 6.28089 6.29548 6.31182 6.4218 6.32854C6.4931 6.3375 6.56487 6.34308 6.63682 6.34526L6.64285 6.34568H6.64657C6.64657 6.34568 6.69858 6.34317 6.64703 6.34568C6.73325 6.34564 6.81776 6.32399 6.89109 6.28317C6.96441 6.24235 7.02366 6.18396 7.0622 6.11454L7.37335 5.55447L9.43342 5.86376V7.66938C8.45308 7.79686 5.80508 7.92267 3.72458 6.05017C1.64407 4.17768 1.78339 1.79402 1.9255 0.912106ZM4.35894 3.62304L5.19811 3.11981C5.37539 3.01338 5.50662 2.85533 5.56978 2.67215C5.63294 2.48897 5.6242 2.29182 5.54502 2.11376L4.87303 0.601556C4.80407 0.446451 4.68506 0.3135 4.53135 0.219853C4.37763 0.126206 4.19626 0.0761607 4.01064 0.0761719H1.90135C1.47921 0.0761719 1.08215 0.339909 1.01296 0.752025C0.85506 1.68911 0.640973 4.45688 3.06792 6.64118C5.49486 8.82548 8.5701 8.63237 9.61128 8.49068C10.0692 8.42799 10.3622 8.07104 10.3622 7.69111V5.86376C10.3622 5.66588 10.2843 5.47441 10.1422 5.3234C10.0001 5.1724 9.80308 5.07166 9.58621 5.03911L7.52614 4.73023C7.33021 4.7008 7.12895 4.72868 6.95192 4.80977C6.77489 4.89087 6.63141 5.02091 6.54254 5.1808L6.38186 5.47045C6.32504 5.45786 6.2688 5.44322 6.21328 5.42657C5.92536 5.34047 5.52551 5.16325 5.11777 4.79627C4.71003 4.4293 4.51312 4.06943 4.41746 3.80987C4.39461 3.74852 4.37524 3.68616 4.35941 3.62304H4.35894Z" fill="white"/>
</g>
<defs>
<clipPath id="clip0_1281_787">
<rect width="9.43643" height="9.43643" fill="white" transform="translate(0.925781 0.0761719)"/>
</clipPath>
</defs>
</svg>
