<svg width="11" height="10" viewBox="0 0 11 10" fill="none" xmlns="http://www.w3.org/2000/svg">
<g clip-path="url(#clip0_1281_825)">
<path d="M1.55942 0.885858H3.7691L4.48122 2.48837L3.33701 3.17491C3.26962 3.21538 3.21438 3.27018 3.17618 3.33447C3.13798 3.39875 3.11799 3.47053 3.11801 3.54343C3.11948 3.58507 3.11801 3.54387 3.11801 3.54387V3.55318C3.1183 3.57298 3.11928 3.59278 3.12096 3.61253C3.12391 3.64885 3.12883 3.69801 3.13818 3.7587C3.15738 3.87829 3.19429 4.04306 3.26614 4.23706C3.41083 4.62684 3.69429 5.13133 4.24647 5.6283C4.79864 6.12526 5.35918 6.38039 5.79176 6.51061C6.00781 6.57528 6.19039 6.60806 6.32425 6.62577C6.39981 6.63527 6.47587 6.64118 6.55211 6.64349L6.55851 6.64393H6.56244C6.56244 6.64393 6.61756 6.64128 6.56294 6.64393C6.65431 6.64389 6.74386 6.62095 6.82157 6.57769C6.89927 6.53443 6.96206 6.47256 7.0029 6.39899L7.33263 5.80547L9.51573 6.13324V8.04669C8.47684 8.18178 5.6707 8.3151 3.46594 6.33078C1.26119 4.34646 1.40883 1.82044 1.55942 0.885858ZM4.1382 3.7587L5.02748 3.22541C5.21535 3.11263 5.35442 2.94513 5.42135 2.75102C5.48829 2.5569 5.47902 2.34797 5.39511 2.15928L4.68299 0.556762C4.60991 0.392393 4.48379 0.251502 4.3209 0.152262C4.158 0.0530227 3.9658 -1.18676e-05 3.7691 1.99195e-09H1.53383C1.08648 1.99195e-09 0.665708 0.279488 0.59238 0.716216C0.425055 1.70926 0.198182 4.64234 2.77007 6.95709C5.34196 9.27183 8.60086 9.0672 9.70422 8.91705C10.1895 8.85061 10.5 8.47234 10.5 8.06972V6.13324C10.5 5.92354 10.4174 5.72063 10.2668 5.56061C10.1162 5.40059 9.90747 5.29383 9.67765 5.25934L7.49454 4.93201C7.28691 4.90082 7.07364 4.93036 6.88603 5.0163C6.69843 5.10224 6.54638 5.24005 6.45221 5.40949L6.28193 5.71644C6.22171 5.7031 6.16212 5.68758 6.10329 5.66993C5.79816 5.57869 5.37444 5.39089 4.94234 5.002C4.51025 4.6131 4.30159 4.23174 4.20021 3.95668C4.176 3.89167 4.15547 3.82558 4.13869 3.7587H4.1382Z" fill="white"/>
</g>
<defs>
<clipPath id="clip0_1281_825">
<rect width="10" height="10" fill="white" transform="translate(0.5)"/>
</clipPath>
</defs>
</svg>
