<svg width="54" height="53" viewBox="0 0 54 53" fill="none" xmlns="http://www.w3.org/2000/svg">
<g clip-path="url(#clip0_1274_3719)">
<path d="M39.149 17.064C39.7123 17.064 40.1691 16.6073 40.1691 16.044V6.04291C40.1691 2.9636 37.664 0.458496 34.5847 0.458496H14.4271C11.3479 0.458496 8.84271 2.9636 8.84271 6.04291V27.0452H7.84253C6.15797 27.0452 4.7876 28.4157 4.7876 30.1001V38.6645C4.7876 40.3489 6.15807 41.7194 7.84253 41.7194H8.50038L8.84271 42.3995V47.1022C8.84271 50.1815 11.3479 52.6866 14.4271 52.6866H34.5847C37.6639 52.6866 40.1691 50.1815 40.1691 47.1022V26.3577C40.1691 25.7943 39.7123 25.3376 39.149 25.3376C38.5857 25.3376 38.1289 25.7943 38.1289 26.3577V47.1022C38.1289 49.0564 36.5389 50.6464 34.5847 50.6464H14.4271C12.4729 50.6464 10.8829 49.0565 10.8829 47.1022V42.6279L11.9576 41.7194H19.9114C21.5959 41.7194 22.9663 40.3489 22.9663 38.6645V30.1001C22.9663 28.4156 21.5959 27.0452 19.9114 27.0452H10.883V6.04291C10.883 4.08855 12.4729 2.49865 14.4271 2.49865H34.5847C36.5389 2.49865 38.1289 4.08855 38.1289 6.04291V16.044C38.1289 16.6073 38.5857 17.064 39.149 17.064ZM20.9263 30.1001V38.6645C20.9263 39.224 20.471 39.6793 19.9115 39.6793H11.5844C11.3433 39.6793 11.11 39.7646 10.9258 39.9203L10.1914 40.5411L10.0402 40.2407C9.86687 39.8965 9.51443 39.6793 9.12905 39.6793H7.84253C7.28301 39.6793 6.82775 39.2241 6.82775 38.6645V30.1001C6.82775 29.5406 7.28301 29.0854 7.84253 29.0854H19.9114C20.471 29.0852 20.9263 29.5405 20.9263 30.1001Z" fill="#024273"/>
<path d="M22.8648 46.2651C22.3014 46.2651 21.8447 46.7218 21.8447 47.2852C21.8447 47.8486 22.3014 48.3053 22.8648 48.3053H26.1464C26.7098 48.3053 27.1665 47.8486 27.1665 47.2852C27.1665 46.7218 26.7098 46.2651 26.1464 46.2651H22.8648Z" fill="#024273"/>
<path d="M32.4016 6.04303C32.4016 5.47964 31.9449 5.02295 31.3815 5.02295H17.6299C17.0666 5.02295 16.6099 5.47964 16.6099 6.04303C16.6099 6.60642 17.0666 7.06311 17.6299 7.06311H31.3815C31.9448 7.06311 32.4016 6.60642 32.4016 6.04303Z" fill="#024273"/>
<path d="M28.5814 11.4009H46.284C47.9324 11.4009 49.2687 12.7372 49.2687 14.3856V26.9477C49.2687 28.5961 47.9324 29.9324 46.284 29.9324H44.3971L43.3222 32.0681L40.7956 29.9324H28.5814C26.933 29.9324 25.5967 28.5961 25.5967 26.9477V14.3856C25.5968 12.7372 26.9331 11.4009 28.5814 11.4009Z" fill="#E95440"/>
<path d="M42.5572 19.3297H32.3087C31.7453 19.3297 31.2886 18.873 31.2886 18.3096C31.2886 17.7462 31.7453 17.2896 32.3087 17.2896H42.5572C43.1205 17.2896 43.5772 17.7462 43.5772 18.3096C43.5772 18.873 43.1205 19.3297 42.5572 19.3297Z" fill="#024273"/>
<path d="M42.5572 24.1222H32.3087C31.7453 24.1222 31.2886 23.6655 31.2886 23.1021C31.2886 22.5387 31.7453 22.082 32.3087 22.082H42.5572C43.1205 22.082 43.5772 22.5387 43.5772 23.1021C43.5772 23.6655 43.1205 24.1222 42.5572 24.1222Z" fill="#024273"/>
</g>
<defs>
<clipPath id="clip0_1274_3719">
<rect width="52.228" height="52.228" fill="white" transform="translate(0.914062 0.458496)"/>
</clipPath>
</defs>
</svg>
