<svg width="70" height="70" viewBox="0 0 70 70" fill="none" xmlns="http://www.w3.org/2000/svg">
<g clip-path="url(#clip0_950_12210)">
<path d="M51.2453 22.256C52.0003 22.256 52.6125 21.6439 52.6125 20.8888V7.48467C52.6125 3.35754 49.255 0 45.1279 0H18.1111C13.9842 0 10.6265 3.35754 10.6265 7.48467V35.6336H9.28595C7.02818 35.6336 5.1915 37.4704 5.1915 39.728V51.2066C5.1915 53.4643 7.02831 55.3011 9.28595 55.3011H10.1677L10.6265 56.2126V62.5155C10.6265 66.6426 13.9842 70.0001 18.1111 70.0001H45.1279C49.2549 70.0001 52.6125 66.6426 52.6125 62.5155V34.7121C52.6125 33.957 52.0003 33.3449 51.2453 33.3449C50.4904 33.3449 49.8782 33.957 49.8782 34.7121V62.5155C49.8782 65.1347 47.7471 67.2658 45.1279 67.2658H18.1111C15.4919 67.2658 13.3609 65.1349 13.3609 62.5155V56.5187L14.8013 55.3011H25.4616C27.7193 55.3011 29.556 53.4643 29.556 51.2066V39.728C29.556 37.4702 27.7193 35.6336 25.4616 35.6336H13.361V7.48467C13.361 4.86527 15.4919 2.73438 18.1111 2.73438H45.1279C47.7471 2.73438 49.8782 4.86527 49.8782 7.48467V20.8888C49.8782 21.6439 50.4904 22.256 51.2453 22.256ZM26.8218 39.728V51.2066C26.8218 51.9565 26.2116 52.5667 25.4617 52.5667H14.3011C13.978 52.5667 13.6653 52.6812 13.4184 52.8898L12.434 53.7219L12.2314 53.3192C11.9991 52.8579 11.5268 52.5667 11.0102 52.5667H9.28595C8.53605 52.5667 7.92587 51.9567 7.92587 51.2066V39.728C7.92587 38.9781 8.53605 38.3679 9.28595 38.3679H25.4616C26.2116 38.3678 26.8218 38.978 26.8218 39.728Z" fill="#024273"/>
<path d="M29.4204 61.3936C28.6653 61.3936 28.0532 62.0056 28.0532 62.7607C28.0532 63.5158 28.6653 64.1279 29.4204 64.1279H33.8186C34.5737 64.1279 35.1858 63.5158 35.1858 62.7607C35.1858 62.0056 34.5737 61.3936 33.8186 61.3936H29.4204Z" fill="#024273"/>
<path d="M42.2022 7.48486C42.2022 6.72977 41.5901 6.11768 40.835 6.11768H22.4041C21.649 6.11768 21.0369 6.72977 21.0369 7.48486C21.0369 8.23996 21.649 8.85205 22.4041 8.85205H40.835C41.59 8.85205 42.2022 8.23996 42.2022 7.48486Z" fill="#024273"/>
<path d="M37.0818 14.666H60.8082C63.0175 14.666 64.8085 16.457 64.8085 18.6664V35.503C64.8085 37.7124 63.0175 39.5034 60.8082 39.5034H58.2793L56.8385 42.3658L53.4523 39.5034H37.0818C34.8725 39.5034 33.0815 37.7124 33.0815 35.503V18.6664C33.0816 16.457 34.8726 14.666 37.0818 14.666Z" fill="#E95440"/>
<path d="M55.813 25.293H42.0771C41.3221 25.293 40.71 24.6809 40.71 23.9258C40.71 23.1707 41.3221 22.5586 42.0771 22.5586H55.813C56.568 22.5586 57.1802 23.1707 57.1802 23.9258C57.1802 24.6809 56.568 25.293 55.813 25.293Z" fill="#024273"/>
<path d="M55.813 31.7158H42.0771C41.3221 31.7158 40.71 31.1037 40.71 30.3486C40.71 29.5935 41.3221 28.9814 42.0771 28.9814H55.813C56.568 28.9814 57.1802 29.5935 57.1802 30.3486C57.1802 31.1037 56.568 31.7158 55.813 31.7158Z" fill="#024273"/>
</g>
<defs>
<clipPath id="clip0_950_12210">
<rect width="70" height="70" fill="white"/>
</clipPath>
</defs>
</svg>
