<svg width="70" height="70" viewBox="0 0 70 70" fill="none" xmlns="http://www.w3.org/2000/svg">
<path d="M50.7227 23.3789V47.9883H19.2773V23.3789H9.57031V53.457H60.4297V23.3789H50.7227Z" fill="#E95440"/>
<path d="M68.6328 57.5586H67.2656V22.0117C67.2656 18.9963 64.8123 16.543 61.7969 16.543H52.0898V2.87109C52.0898 2.116 51.4776 1.50391 50.7227 1.50391H19.2773C18.5222 1.50391 17.9102 2.116 17.9102 2.87109V16.543H8.20312C5.18766 16.543 2.73438 18.9963 2.73438 22.0117V57.5586H1.36719C0.61209 57.5586 0 58.1708 0 58.9258V63.0273C0 66.0428 2.45328 68.4961 5.46875 68.4961H64.5312C67.5467 68.4961 70 66.0428 70 63.0273V58.9258C70 58.1708 69.3878 57.5586 68.6328 57.5586ZM20.6445 4.23828H49.3555V46.6211H20.6445V4.23828ZM5.46875 22.0117C5.46875 20.504 6.69539 19.2773 8.20312 19.2773H17.9102V46.6211H16.543C15.788 46.6211 15.1758 47.2333 15.1758 47.9883C15.1758 48.7432 15.788 49.3555 16.543 49.3555H53.457C54.212 49.3555 54.8242 48.7432 54.8242 47.9883C54.8242 47.2333 54.212 46.6211 53.457 46.6211H52.0898V19.2773H61.7969C63.3046 19.2773 64.5312 20.504 64.5312 22.0117V57.5586H5.46875V22.0117ZM67.2656 63.0273C67.2656 64.5351 66.039 65.7617 64.5312 65.7617H5.46875C3.96102 65.7617 2.73438 64.5351 2.73438 63.0273V60.293H67.2656V63.0273Z" fill="#024273"/>
<path d="M37.1366 17.7209C35.7775 17.2405 34.2732 16.6593 33.4213 15.9913C32.735 15.4532 33.0143 13.6507 34.2915 13.2661C36.0001 12.7512 37.1053 13.6864 37.1517 13.7263L37.1368 13.7128L37.138 13.7114C37.3886 13.9422 37.7214 14.0752 38.0639 14.0752C38.8169 14.0752 39.4311 13.4615 39.4311 12.708C39.4311 12.3469 39.2848 11.9957 39.0303 11.7414C39.0171 11.7281 39.0027 11.7167 38.9891 11.7041L38.9904 11.7026C38.9327 11.6495 38.0331 10.8402 36.5503 10.5123V9.70703C36.5503 8.95207 35.938 8.33984 35.1831 8.33984C34.4281 8.33984 33.8159 8.95207 33.8159 9.70703V10.5619C33.7127 10.5876 33.6083 10.6161 33.5028 10.6478C31.9133 11.1267 30.7263 12.4832 30.4052 14.188C30.1103 15.7536 30.6193 17.2689 31.7338 18.143C32.6711 18.8783 33.9724 19.5029 36.2253 20.2992C37.8239 20.8642 37.7888 22.1616 37.6994 22.6931C37.5203 23.7576 36.6252 24.9078 35.0822 24.9181C33.6099 24.9272 33.1497 24.8546 32.0131 24.1112C31.3813 23.6975 30.5341 23.8749 30.1205 24.5067C29.7072 25.1386 29.8841 25.9859 30.5162 26.3993C31.7637 27.2156 32.6654 27.5174 33.8159 27.6132V28.3214C33.8159 29.0764 34.4281 29.6886 35.1831 29.6886C35.938 29.6886 36.5503 29.0764 36.5503 28.3214V27.4516C38.7059 26.8503 40.0866 24.9862 40.3959 23.1466C40.8017 20.7338 39.4918 18.5536 37.1366 17.7209Z" fill="#024273"/>
<path d="M26.1133 35.6836H43.8867C44.6417 35.6836 45.2539 35.0714 45.2539 34.3164C45.2539 33.5613 44.6417 32.9492 43.8867 32.9492H26.1133C25.3582 32.9492 24.7461 33.5613 24.7461 34.3164C24.7461 35.0714 25.3582 35.6836 26.1133 35.6836Z" fill="#024273"/>
<path d="M26.1133 42.5195H43.8867C44.6417 42.5195 45.2539 41.9073 45.2539 41.1523C45.2539 40.3974 44.6417 39.7852 43.8867 39.7852H26.1133C25.3582 39.7852 24.7461 40.3974 24.7461 41.1523C24.7461 41.9073 25.3582 42.5195 26.1133 42.5195Z" fill="#024273"/>
</svg>
