<svg width="54" height="53" viewBox="0 0 54 53" fill="none" xmlns="http://www.w3.org/2000/svg">
<g clip-path="url(#clip0_1274_3725)">
<path d="M38.7507 17.9019V36.2633H15.2889V17.9019H8.04639V40.3436H45.9933V17.9019H38.7507Z" fill="#E95440"/>
<path d="M52.1137 43.4038H51.0936V16.8817C51.0936 14.6319 49.2632 12.8014 47.0133 12.8014H39.7707V2.60064C39.7707 2.03726 39.3139 1.58057 38.7506 1.58057H15.2889C14.7255 1.58057 14.2688 2.03726 14.2688 2.60064V12.8014H7.02623C4.77635 12.8014 2.94592 14.6319 2.94592 16.8817V43.4038H1.92584C1.36245 43.4038 0.905762 43.8605 0.905762 44.4238V47.4841C0.905762 49.734 2.73619 51.5644 4.98607 51.5644H49.0534C51.3033 51.5644 53.1337 49.734 53.1337 47.4841V44.4238C53.1337 43.8605 52.677 43.4038 52.1137 43.4038ZM16.3089 3.62072H37.7306V35.2431H16.3089V3.62072ZM4.98607 16.8817C4.98607 15.7568 5.90129 14.8416 7.02623 14.8416H14.2688V35.2431H13.2487C12.6854 35.2431 12.2286 35.6999 12.2286 36.2632C12.2286 36.8265 12.6854 37.2833 13.2487 37.2833H40.7908C41.3541 37.2833 41.8109 36.8265 41.8109 36.2632C41.8109 35.6999 41.3541 35.2431 40.7908 35.2431H39.7707V14.8416H47.0133C48.1382 14.8416 49.0534 15.7568 49.0534 16.8817V43.4038H4.98607V16.8817ZM51.0936 47.4841C51.0936 48.609 50.1784 49.5242 49.0534 49.5242H4.98607C3.86113 49.5242 2.94592 48.609 2.94592 47.4841V45.4439H51.0936V47.4841Z" fill="#024273"/>
<path d="M28.6143 13.6805C27.6002 13.3221 26.4778 12.8884 25.8422 12.39C25.3301 11.9885 25.5385 10.6436 26.4915 10.3567C27.7663 9.97254 28.5909 10.6703 28.6255 10.7001L28.6144 10.69L28.6153 10.6889C28.8023 10.8611 29.0506 10.9604 29.3061 10.9604C29.868 10.9604 30.3262 10.5025 30.3262 9.9403C30.3262 9.6709 30.217 9.40884 30.0272 9.21911C30.0173 9.20921 30.0066 9.20064 29.9964 9.19126L29.9974 9.19014C29.9544 9.15056 29.2832 8.54667 28.1768 8.30206V7.70123C28.1768 7.13794 27.72 6.68115 27.1567 6.68115C26.5934 6.68115 26.1366 7.13794 26.1366 7.70123V8.33908C26.0596 8.35826 25.9818 8.37948 25.903 8.40315C24.7171 8.76048 23.8314 9.7726 23.5918 11.0445C23.3718 12.2126 23.7516 13.3433 24.5831 13.9954C25.2825 14.544 26.2534 15.0101 27.9343 15.6042C29.1271 16.0258 29.1009 16.9937 29.0342 17.3903C28.9005 18.1846 28.2327 19.0428 27.0814 19.0504C25.9829 19.0572 25.6395 19.0031 24.7915 18.4484C24.3202 18.1397 23.688 18.2721 23.3795 18.7435C23.0711 19.2149 23.2031 19.8471 23.6747 20.1556C24.6055 20.7647 25.2782 20.9898 26.1366 21.0613V21.5897C26.1366 22.153 26.5934 22.6098 27.1567 22.6098C27.72 22.6098 28.1768 22.153 28.1768 21.5897V20.9407C29.7851 20.4921 30.8153 19.1012 31.0461 17.7287C31.3488 15.9285 30.3715 14.3017 28.6143 13.6805Z" fill="#024273"/>
<path d="M20.3892 27.0826H33.6502C34.2135 27.0826 34.6703 26.6258 34.6703 26.0626C34.6703 25.4992 34.2135 25.0425 33.6502 25.0425H20.3892C19.8258 25.0425 19.3691 25.4992 19.3691 26.0626C19.3691 26.6258 19.8258 27.0826 20.3892 27.0826Z" fill="#024273"/>
<path d="M20.3892 32.1827H33.6502C34.2135 32.1827 34.6703 31.7259 34.6703 31.1627C34.6703 30.5994 34.2135 30.1426 33.6502 30.1426H20.3892C19.8258 30.1426 19.3691 30.5994 19.3691 31.1627C19.3691 31.7259 19.8258 32.1827 20.3892 32.1827Z" fill="#024273"/>
</g>
<defs>
<clipPath id="clip0_1274_3725">
<rect width="52.228" height="52.228" fill="white" transform="translate(0.905762 0.458496)"/>
</clipPath>
</defs>
</svg>
