<svg width="12" height="12" viewBox="0 0 12 12" fill="none" xmlns="http://www.w3.org/2000/svg">
<path d="M10.8535 5.64633L7.35346 2.14633C7.25596 2.04883 7.12801 1.99988 7.00001 1.99988C6.87201 1.99988 6.74401 2.04883 6.64651 2.14633C6.45101 2.34183 6.45101 2.65788 6.64651 2.85338L9.29301 5.49988L1.5 5.49988C1.2235 5.49988 1 5.72338 1 5.99988C1 6.27638 1.2235 6.49988 1.5 6.49988L9.29301 6.49988L6.64651 9.14634C6.45101 9.34184 6.45101 9.65787 6.64651 9.85337C6.84201 10.0489 7.15796 10.0489 7.35346 9.85337L10.8535 6.35338C11.049 6.15788 11.049 5.84183 10.8535 5.64633Z" fill="#181A1F"/>
</svg>
