<svg width="56" height="56" viewBox="0 0 56 56" fill="none" xmlns="http://www.w3.org/2000/svg">
<g clip-path="url(#clip0_950_7506)">
<path d="M14.2576 14.2V37.9931C14.2576 40.604 15.8931 43.045 18.4241 44.2118L28 48.6264V8.69727C24.231 11.4261 19.7485 13.2107 14.2576 14.2Z" fill="#E95440"/>
<path d="M48.2215 8.18475C48.0113 7.97902 47.7319 7.86625 47.4328 7.87292C47.2658 7.87653 47.1003 7.87839 46.9371 7.87839C45.7094 7.87839 44.5136 7.78116 43.3825 7.58931C35.0009 6.16777 31.0474 2.77747 28.8029 0.350984C28.5959 0.127313 28.3048 0 28 0C27.6952 0 27.4041 0.127313 27.1971 0.350984C24.9526 2.77747 20.9991 6.16777 12.6175 7.5892C11.4868 7.78105 10.291 7.87839 9.06316 7.87839C8.89997 7.87839 8.73503 7.87664 8.56791 7.87292C8.27096 7.86636 7.9891 7.97869 7.77877 8.18442C7.56833 8.39027 7.44977 8.67202 7.44977 8.96634V37.9932C7.44977 43.2438 10.6368 48.1059 15.5692 50.3798L27.5421 55.8994C27.6873 55.9663 27.8437 55.9998 28 55.9998C28.1563 55.9998 28.3126 55.9663 28.458 55.8994L40.4308 50.3798C45.3633 48.1059 48.5503 43.2438 48.5503 37.9932V8.96645C48.5503 8.67223 48.4317 8.39048 48.2215 8.18475ZM46.3628 37.9933C46.3628 42.3933 43.6749 46.4755 39.515 48.3933L28 53.7019L16.4851 48.3933C12.3253 46.4755 9.63738 42.3933 9.63738 37.9933V10.0594C10.7873 10.0332 11.9103 9.92808 12.9835 9.74597C21.1128 8.3673 25.4238 5.22364 28 2.66897C30.5762 5.22353 34.8873 8.36719 43.0168 9.74608C44.0901 9.92808 45.2132 10.0332 46.3628 10.0594V37.9933Z" fill="#024273"/>
</g>
<defs>
<clipPath id="clip0_950_7506">
<rect width="56" height="56" fill="white"/>
</clipPath>
</defs>
</svg>
