<svg width="50" height="49" viewBox="0 0 50 49" fill="none" xmlns="http://www.w3.org/2000/svg">
<g clip-path="url(#clip0_1274_3662)">
<path d="M13.1787 12.2963V32.8659C13.1787 35.1231 14.5926 37.2333 16.7808 38.242L25.0593 42.0585V7.53906C21.801 9.89816 17.9257 11.441 13.1787 12.2963Z" fill="#E95440"/>
<path d="M42.5414 7.09589C42.3597 6.91803 42.1182 6.82054 41.8595 6.82631C41.7152 6.82943 41.5721 6.83104 41.431 6.83104C40.3696 6.83104 39.3358 6.74698 38.358 6.58113C31.1119 5.35217 27.6941 2.42119 25.7537 0.323452C25.5747 0.130084 25.3231 0.0200195 25.0595 0.0200195C24.796 0.0200195 24.5444 0.130084 24.3654 0.323452C22.425 2.42119 19.0072 5.35217 11.7611 6.58103C10.7835 6.74688 9.74976 6.83104 8.68826 6.83104C8.54719 6.83104 8.40459 6.82953 8.26011 6.82631C8.00339 6.82064 7.75972 6.91775 7.57788 7.09561C7.39596 7.27357 7.29346 7.51714 7.29346 7.7716V32.8658C7.29346 37.4051 10.0487 41.6085 14.3129 43.5743L24.6636 48.3461C24.7892 48.404 24.9244 48.4329 25.0595 48.4329C25.1947 48.4329 25.3298 48.404 25.4555 48.3461L35.8062 43.5743C40.0704 41.6085 42.8256 37.4051 42.8256 32.8658V7.77169C42.8256 7.51733 42.7231 7.27376 42.5414 7.09589ZM40.9345 32.8659C40.9345 36.6699 38.6108 40.199 35.0145 41.857L25.0595 46.4464L15.1047 41.857C11.5084 40.199 9.18469 36.6699 9.18469 32.8659V8.7166C10.1789 8.6939 11.1497 8.60303 12.0775 8.4456C19.1054 7.25371 22.8324 4.53596 25.0595 2.32739C27.2867 4.53586 31.0137 7.25361 38.0418 8.44569C38.9697 8.60303 39.9407 8.6939 40.9345 8.7166V32.8659Z" fill="#024273"/>
</g>
<defs>
<clipPath id="clip0_1274_3662">
<rect width="48.4131" height="48.4131" fill="white" transform="translate(0.853027 0.0200195)"/>
</clipPath>
</defs>
</svg>
