<svg width="42" height="43" viewBox="0 0 42 43" fill="none" xmlns="http://www.w3.org/2000/svg">
<g clip-path="url(#clip0_1274_3722)">
<path d="M10.7705 11.0534V28.8058C10.7705 30.7538 11.9908 32.575 13.8792 33.4456L21.0239 36.7394V6.94775C18.2119 8.98375 14.8674 10.3153 10.7705 11.0534Z" fill="#E95440"/>
<path d="M36.1113 6.56525C35.9544 6.41175 35.746 6.32762 35.5228 6.33259C35.3982 6.33529 35.2747 6.33667 35.153 6.33667C34.2369 6.33667 33.3447 6.26413 32.5009 6.12099C26.2472 5.06035 23.2975 2.5308 21.6228 0.72037C21.4683 0.553486 21.2512 0.458496 21.0237 0.458496C20.7963 0.458496 20.5792 0.553486 20.4247 0.72037C18.75 2.5308 15.8003 5.06035 9.54665 6.12091C8.703 6.26404 7.8108 6.33667 6.89469 6.33667C6.77293 6.33667 6.64987 6.33537 6.52518 6.33259C6.30362 6.3277 6.09332 6.41151 5.93639 6.56501C5.77938 6.71859 5.69092 6.92881 5.69092 7.14841V28.8057C5.69092 32.7233 8.06884 36.351 11.749 38.0475L20.6821 42.1658C20.7904 42.2157 20.9071 42.2407 21.0237 42.2407C21.1404 42.2407 21.257 42.2157 21.3654 42.1658L30.2985 38.0475C33.9787 36.351 36.3566 32.7233 36.3566 28.8057V7.14849C36.3566 6.92897 36.2681 6.71875 36.1113 6.56525ZM34.7245 28.8058C34.7245 32.0887 32.719 35.1345 29.6153 36.5654L21.0237 40.5263L12.4323 36.5654C9.3286 35.1345 7.32312 32.0887 7.32312 28.8058V7.96398C8.18113 7.9444 9.01898 7.86597 9.8197 7.7301C15.8851 6.70145 19.1016 4.35593 21.0237 2.44985C22.9459 4.35585 26.1624 6.70137 32.228 7.73018C33.0288 7.86597 33.8668 7.9444 34.7245 7.96398V28.8058Z" fill="#024273"/>
</g>
<defs>
<clipPath id="clip0_1274_3722">
<rect width="41.7824" height="41.7824" fill="white" transform="translate(0.132812 0.458496)"/>
</clipPath>
</defs>
</svg>
