<svg width="49" height="49" viewBox="0 0 49 49" fill="none" xmlns="http://www.w3.org/2000/svg">
<g clip-path="url(#clip0_1274_3668)">
<path d="M12.835 12.2963V32.8659C12.835 35.1231 14.2489 37.2333 16.437 38.242L24.7156 42.0585V7.53906C21.4572 9.89816 17.582 11.441 12.835 12.2963Z" fill="#E95440"/>
<path d="M42.1976 7.09589C42.0159 6.91803 41.7744 6.82054 41.5158 6.82631C41.3714 6.82943 41.2283 6.83104 41.0873 6.83104C40.0259 6.83104 38.9921 6.74698 38.0143 6.58113C30.7682 5.35217 27.3503 2.42119 25.4099 0.323452C25.2309 0.130084 24.9793 0.0200195 24.7158 0.0200195C24.4523 0.0200195 24.2006 0.130084 24.0217 0.323452C22.0813 2.42119 18.6634 5.35217 11.4173 6.58103C10.4398 6.74688 9.40601 6.83104 8.34451 6.83104C8.20344 6.83104 8.06084 6.82953 7.91636 6.82631C7.65964 6.82064 7.41597 6.91775 7.23413 7.09561C7.05221 7.27357 6.94971 7.51714 6.94971 7.7716V32.8658C6.94971 37.4051 9.705 41.6085 13.9691 43.5743L24.3199 48.3461C24.4455 48.404 24.5807 48.4329 24.7158 48.4329C24.8509 48.4329 24.986 48.404 25.1117 48.3461L35.4625 43.5743C39.7267 41.6085 42.4819 37.4051 42.4819 32.8658V7.77169C42.4819 7.51733 42.3794 7.27376 42.1976 7.09589ZM40.5907 32.8659C40.5907 36.6699 38.267 40.199 34.6707 41.857L24.7158 46.4464L14.7609 41.857C11.1647 40.199 8.84094 36.6699 8.84094 32.8659V8.7166C9.83511 8.6939 10.8059 8.60303 11.7337 8.4456C18.7616 7.25371 22.4886 4.53596 24.7158 2.32739C26.943 4.53586 30.6699 7.25361 37.6981 8.44569C38.6259 8.60303 39.597 8.6939 40.5907 8.7166V32.8659Z" fill="#024273"/>
</g>
<defs>
<clipPath id="clip0_1274_3668">
<rect width="48.4131" height="48.4131" fill="white" transform="translate(0.509277 0.0200195)"/>
</clipPath>
</defs>
</svg>
