<svg width="21" height="20" viewBox="0 0 21 20" fill="none" xmlns="http://www.w3.org/2000/svg">
<g clip-path="url(#clip0_954_6763)">
<path d="M15.8033 13.7799C15.5735 13.7799 15.365 13.6868 15.2142 13.536C15.0633 13.3851 14.9702 13.1766 14.9702 12.9468L14.9702 6.70892L5.78609 15.893C5.46023 16.2189 4.93344 16.2189 4.60758 15.893C4.28172 15.5671 4.28172 15.0403 4.60758 14.7145L13.7917 5.5304L7.55377 5.53038C7.09297 5.53038 6.7206 5.158 6.7206 4.6972C6.7206 4.23641 7.09306 3.86394 7.55386 3.86394L15.8034 3.86394C16.2642 3.86394 16.6366 4.23629 16.6366 4.69708L16.6366 12.9467C16.6366 13.4075 16.2641 13.7799 15.8033 13.7799Z" fill="white"/>
</g>
<defs>
<clipPath id="clip0_954_6763">
<rect width="20" height="20" fill="white" transform="translate(0.5)"/>
</clipPath>
</defs>
</svg>
