<svg width="20" height="21" viewBox="0 0 20 21" fill="none" xmlns="http://www.w3.org/2000/svg">
<g clip-path="url(#clip0_1285_85)">
<path d="M15.3034 14.1518C15.0736 14.1518 14.8651 14.0586 14.7142 13.9078C14.5634 13.7569 14.4702 13.5484 14.4702 13.3186L14.4702 7.08074L5.28615 16.2648C4.9603 16.5907 4.4335 16.5907 4.10764 16.2648C3.78178 15.939 3.78178 15.4122 4.10764 15.0863L13.2917 5.90223L7.05383 5.9022C6.59303 5.9022 6.22066 5.52983 6.22066 5.06903C6.22066 4.60823 6.59312 4.23577 7.05392 4.23577L15.3035 4.23576C15.7643 4.23576 16.1366 4.60811 16.1366 5.06891L16.1366 13.3185C16.1366 13.7793 15.7642 14.1518 15.3034 14.1518Z" fill="white"/>
</g>
<defs>
<clipPath id="clip0_1285_85">
<rect width="20" height="20" fill="white" transform="translate(0 0.372314)"/>
</clipPath>
</defs>
</svg>
