<svg width="20" height="21" viewBox="0 0 20 21" fill="none" xmlns="http://www.w3.org/2000/svg">
<g clip-path="url(#clip0_954_3086)">
<path d="M15.3033 14.2799C15.0735 14.2799 14.865 14.1868 14.7142 14.036C14.5633 13.8851 14.4701 13.6766 14.4701 13.4468L14.4701 7.20892L5.28607 16.393C4.96021 16.7189 4.43342 16.7189 4.10756 16.393C3.7817 16.0671 3.7817 15.5403 4.10756 15.2145L13.2916 6.0304L7.05375 6.03038C6.59295 6.03038 6.22058 5.658 6.22058 5.1972C6.22058 4.73641 6.59304 4.36394 7.05384 4.36394L15.3034 4.36394C15.7642 4.36394 16.1366 4.73629 16.1366 5.19708L16.1366 13.4467C16.1366 13.9075 15.7641 14.2799 15.3033 14.2799Z" fill="#181A1F"/>
</g>
<defs>
<clipPath id="clip0_954_3086">
<rect width="20" height="20" fill="white" transform="translate(0 0.5)"/>
</clipPath>
</defs>
</svg>
