<svg width="16" height="16" viewBox="0 0 16 16" fill="none" xmlns="http://www.w3.org/2000/svg">
<g clip-path="url(#clip0_1285_24)">
<path d="M11.7752 10.4189C11.6038 10.4189 11.4482 10.3495 11.3357 10.2369C11.2231 10.1244 11.1536 9.96877 11.1536 9.79731L11.1536 5.14315L4.30123 11.9955C4.05811 12.2387 3.66506 12.2387 3.42193 11.9955C3.1788 11.7524 3.1788 11.3593 3.42193 11.1162L10.2743 4.26385L5.62012 4.26383C5.27632 4.26383 4.99848 3.98599 4.99848 3.64219C4.99848 3.29838 5.27638 3.02048 5.62019 3.02048L11.7753 3.02047C12.1191 3.02047 12.3969 3.29829 12.3969 3.6421L12.3969 9.79722C12.3969 10.141 12.119 10.4189 11.7752 10.4189Z" fill="#181A1F"/>
</g>
<defs>
<clipPath id="clip0_1285_24">
<rect width="14.9223" height="14.9223" fill="white" transform="translate(0.356934 0.137695)"/>
</clipPath>
</defs>
</svg>
